<svg id="svg" version="1.1" width="400" height="400" viewBox="0 0 400 400" xmlns="http://www.w3.org/2000/svg" xmlns:xlink="http://www.w3.org/1999/xlink" style="display: block;"><g id="svgg"><path id="path0" d="M172.801 0.500 C 172.802 0.872,171.885 0.967,169.209 0.872 C 166.434 0.773,165.412 0.887,164.719 1.372 C 164.118 1.793,162.927 2.000,161.111 2.000 C 158.864 2.000,158.252 2.148,157.533 2.867 C 156.813 3.587,156.270 3.718,154.331 3.639 C 152.517 3.565,151.943 3.683,151.756 4.172 C 151.574 4.645,150.930 4.800,149.145 4.800 C 147.407 4.800,146.713 4.960,146.545 5.400 C 146.385 5.817,145.735 6.000,144.419 6.000 C 143.032 6.000,142.330 6.214,141.800 6.800 C 141.286 7.368,140.568 7.600,139.325 7.600 C 138.138 7.600,137.501 7.793,137.345 8.200 C 137.196 8.588,136.576 8.800,135.586 8.800 C 134.745 8.800,133.787 9.070,133.457 9.400 C 133.127 9.730,132.332 10.000,131.691 10.000 C 131.032 10.000,130.209 10.348,129.800 10.800 C 129.360 11.286,128.568 11.600,127.781 11.600 C 126.998 11.600,126.394 11.838,126.255 12.200 C 126.129 12.530,125.552 12.800,124.974 12.800 C 124.396 12.800,123.446 13.058,122.862 13.374 C 122.278 13.689,121.305 14.053,120.700 14.181 C 120.095 14.310,119.600 14.682,119.600 15.008 C 119.600 15.401,119.192 15.600,118.387 15.600 C 117.679 15.600,117.079 15.849,116.945 16.200 C 116.813 16.544,116.215 16.800,115.545 16.800 C 114.874 16.800,114.277 17.056,114.145 17.400 C 114.016 17.734,113.422 18.000,112.804 18.000 C 112.030 18.000,111.630 18.242,111.484 18.800 C 111.332 19.383,110.938 19.600,110.037 19.600 C 109.204 19.600,108.800 19.796,108.800 20.200 C 108.800 20.619,108.378 20.800,107.400 20.800 C 106.422 20.800,106.000 20.981,106.000 21.400 C 106.000 21.779,105.618 22.000,104.963 22.000 C 104.262 22.000,103.857 22.259,103.716 22.800 C 103.567 23.369,103.170 23.600,102.341 23.600 C 101.673 23.600,101.076 23.857,100.945 24.200 C 100.818 24.530,100.278 24.800,99.745 24.800 C 99.211 24.800,98.671 25.070,98.545 25.400 C 98.418 25.730,97.974 26.000,97.557 26.000 C 97.067 26.000,96.800 26.282,96.800 26.800 C 96.800 27.424,96.533 27.600,95.587 27.600 C 94.879 27.600,94.279 27.849,94.145 28.200 C 94.018 28.530,93.584 28.800,93.181 28.800 C 92.777 28.800,92.329 28.991,92.185 29.225 C 92.040 29.458,91.490 29.814,90.961 30.015 C 90.433 30.216,90.000 30.655,90.000 30.990 C 90.000 31.376,89.628 31.600,88.987 31.600 C 88.431 31.600,87.871 31.870,87.745 32.200 C 87.618 32.530,87.174 32.800,86.757 32.800 C 86.341 32.800,86.000 33.070,86.000 33.400 C 86.000 33.730,85.730 34.000,85.400 34.000 C 85.070 34.000,84.440 34.360,84.000 34.800 C 83.560 35.240,83.014 35.600,82.787 35.600 C 82.561 35.600,82.271 35.870,82.145 36.200 C 82.018 36.530,81.664 36.800,81.357 36.800 C 81.051 36.800,80.800 37.070,80.800 37.400 C 80.800 37.733,80.444 38.000,80.000 38.000 C 79.560 38.000,78.840 38.360,78.400 38.800 C 77.960 39.240,77.420 39.600,77.200 39.600 C 76.980 39.600,76.800 39.870,76.800 40.200 C 76.800 40.530,76.530 40.800,76.200 40.800 C 75.870 40.800,75.600 41.047,75.600 41.350 C 75.600 41.653,75.060 42.008,74.400 42.140 C 73.696 42.281,73.200 42.632,73.200 42.990 C 73.200 43.333,72.850 43.600,72.400 43.600 C 71.956 43.600,71.600 43.867,71.600 44.200 C 71.600 44.530,71.400 44.800,71.156 44.800 C 70.542 44.800,68.815 46.490,68.807 47.100 C 68.803 47.375,68.530 47.600,68.200 47.600 C 67.870 47.600,67.600 47.870,67.600 48.200 C 67.600 48.530,67.330 48.800,67.000 48.800 C 66.670 48.800,66.040 49.115,65.600 49.500 C 65.160 49.885,64.440 50.515,64.000 50.900 C 63.560 51.285,63.020 51.600,62.800 51.600 C 62.580 51.600,62.400 51.870,62.400 52.200 C 62.400 52.530,62.228 52.800,62.018 52.800 C 61.522 52.800,59.600 54.722,59.600 55.218 C 59.600 55.428,59.399 55.600,59.153 55.600 C 58.571 55.600,55.600 58.571,55.600 59.153 C 55.600 59.399,55.375 59.608,55.100 59.618 C 54.825 59.629,54.240 60.089,53.800 60.641 C 53.360 61.193,52.325 62.400,51.500 63.323 C 48.960 66.164,48.800 66.382,48.800 67.000 C 48.800 67.330,48.530 67.600,48.200 67.600 C 47.870 67.600,47.600 67.870,47.600 68.200 C 47.600 68.533,47.244 68.800,46.800 68.800 C 46.360 68.800,46.000 69.051,46.000 69.357 C 46.000 69.664,45.730 70.018,45.400 70.145 C 45.070 70.271,44.800 70.651,44.800 70.987 C 44.800 71.324,44.530 71.600,44.200 71.600 C 43.870 71.600,43.600 71.842,43.600 72.138 C 43.600 72.434,43.240 73.002,42.800 73.400 C 42.360 73.798,42.000 74.456,42.000 74.862 C 42.000 75.268,41.730 75.600,41.400 75.600 C 41.070 75.600,40.800 75.870,40.800 76.200 C 40.800 76.530,40.530 76.800,40.200 76.800 C 39.870 76.800,39.600 77.030,39.600 77.311 C 39.600 77.592,39.240 78.130,38.800 78.507 C 38.360 78.884,38.000 79.554,38.000 79.996 C 38.000 80.444,37.734 80.800,37.400 80.800 C 37.070 80.800,36.800 81.070,36.800 81.400 C 36.800 81.730,36.616 82.000,36.390 82.000 C 36.165 82.000,35.809 82.450,35.600 83.000 C 35.391 83.550,35.039 84.000,34.818 84.000 C 34.596 84.000,34.306 84.437,34.172 84.971 C 34.037 85.505,33.674 86.039,33.364 86.159 C 33.054 86.278,32.800 86.631,32.800 86.945 C 32.800 87.258,32.530 87.618,32.200 87.745 C 31.870 87.871,31.600 88.431,31.600 88.987 C 31.600 89.599,31.373 90.000,31.028 90.000 C 30.713 90.000,30.039 90.855,29.528 91.900 C 29.018 92.945,28.376 93.944,28.100 94.120 C 27.825 94.296,27.600 94.971,27.600 95.620 C 27.600 96.533,27.419 96.800,26.800 96.800 C 26.267 96.800,26.000 97.067,26.000 97.600 C 26.000 98.040,25.834 98.400,25.632 98.400 C 25.429 98.400,25.145 98.940,25.000 99.600 C 24.855 100.260,24.481 100.800,24.168 100.800 C 23.789 100.800,23.600 101.251,23.600 102.153 C 23.600 103.170,23.401 103.559,22.800 103.716 C 22.271 103.854,22.000 104.262,22.000 104.920 C 22.000 105.467,21.730 106.018,21.400 106.145 C 21.049 106.279,20.800 106.879,20.800 107.587 C 20.800 108.399,20.601 108.800,20.200 108.800 C 19.781 108.800,19.600 109.222,19.600 110.200 C 19.600 111.333,19.448 111.600,18.800 111.600 C 18.184 111.600,18.000 111.867,18.000 112.757 C 18.000 113.417,17.742 114.013,17.400 114.145 C 17.049 114.279,16.800 114.879,16.800 115.587 C 16.800 116.399,16.601 116.800,16.200 116.800 C 15.781 116.800,15.600 117.222,15.600 118.200 C 15.600 119.130,15.413 119.600,15.043 119.600 C 14.345 119.600,14.000 120.471,14.000 122.233 C 14.000 123.181,13.816 123.600,13.400 123.600 C 12.999 123.600,12.800 124.001,12.800 124.813 C 12.800 125.521,12.551 126.121,12.200 126.255 C 11.796 126.410,11.600 127.045,11.600 128.196 C 11.600 129.570,11.443 129.948,10.800 130.116 C 10.169 130.281,10.000 130.662,10.000 131.914 C 10.000 132.838,9.749 133.710,9.400 134.000 C 9.061 134.282,8.800 135.154,8.800 136.006 C 8.800 136.978,8.587 137.596,8.200 137.745 C 7.782 137.905,7.600 138.557,7.600 139.891 C 7.600 141.374,7.419 141.921,6.800 142.307 C 6.213 142.674,6.000 143.240,6.000 144.432 C 6.000 145.343,5.736 146.321,5.400 146.657 C 5.017 147.040,4.800 148.027,4.800 149.386 C 4.800 150.940,4.633 151.579,4.180 151.752 C 3.699 151.937,3.587 152.503,3.680 154.280 C 3.781 156.216,3.661 156.708,2.900 157.467 C 2.118 158.246,2.000 158.778,2.000 161.539 C 2.000 163.993,1.864 164.767,1.400 164.945 C 0.925 165.127,0.800 165.968,0.800 168.987 C 0.800 171.262,0.639 172.800,0.400 172.800 C 0.137 172.800,0.000 182.133,0.000 200.000 C 0.000 217.867,0.137 227.200,0.400 227.200 C 0.639 227.200,0.800 228.738,0.800 231.013 C 0.800 234.032,0.925 234.873,1.400 235.055 C 1.862 235.233,2.000 235.999,2.000 238.389 C 2.000 240.886,2.156 241.691,2.800 242.509 C 3.401 243.273,3.600 244.132,3.600 245.963 C 3.600 247.863,3.732 248.400,4.200 248.400 C 4.658 248.400,4.800 248.903,4.800 250.524 C 4.800 251.771,5.042 252.967,5.387 253.424 C 5.710 253.851,5.980 254.982,5.987 255.937 C 5.997 257.332,6.158 257.716,6.800 257.884 C 7.459 258.056,7.600 258.430,7.600 259.998 C 7.600 261.202,7.820 262.085,8.200 262.400 C 8.539 262.682,8.800 263.554,8.800 264.406 C 8.800 265.378,9.013 265.996,9.400 266.145 C 9.799 266.298,10.000 266.927,10.000 268.025 C 10.000 269.338,10.163 269.718,10.800 269.884 C 11.448 270.053,11.600 270.430,11.600 271.859 C 11.600 273.060,11.792 273.699,12.200 273.855 C 12.544 273.987,12.800 274.585,12.800 275.255 C 12.800 275.926,13.056 276.523,13.400 276.655 C 13.736 276.784,14.000 277.380,14.000 278.010 C 14.000 279.540,14.375 280.400,15.043 280.400 C 15.413 280.400,15.600 280.870,15.600 281.800 C 15.600 282.778,15.781 283.200,16.200 283.200 C 16.601 283.200,16.800 283.601,16.800 284.413 C 16.800 285.121,17.049 285.721,17.400 285.855 C 17.737 285.985,18.000 286.580,18.000 287.216 C 18.000 287.995,18.249 288.425,18.800 288.600 C 19.360 288.778,19.600 289.205,19.600 290.027 C 19.600 290.803,19.803 291.200,20.200 291.200 C 20.601 291.200,20.800 291.601,20.800 292.413 C 20.800 293.121,21.049 293.721,21.400 293.855 C 21.737 293.985,22.000 294.580,22.000 295.216 C 22.000 295.995,22.249 296.425,22.800 296.600 C 23.360 296.778,23.600 297.205,23.600 298.027 C 23.600 298.803,23.803 299.200,24.200 299.200 C 24.530 299.200,24.800 299.547,24.800 299.971 C 24.800 300.396,25.070 301.013,25.400 301.343 C 25.730 301.673,26.000 302.226,26.000 302.571 C 26.000 302.933,26.339 303.200,26.800 303.200 C 27.448 303.200,27.600 303.467,27.600 304.600 C 27.600 305.449,27.797 306.003,28.100 306.008 C 28.375 306.013,29.008 306.913,29.508 308.008 C 30.007 309.104,30.682 310.000,31.008 310.000 C 31.375 310.000,31.600 310.385,31.600 311.013 C 31.600 311.569,31.870 312.129,32.200 312.255 C 32.530 312.382,32.800 312.826,32.800 313.243 C 32.800 313.659,33.070 314.000,33.400 314.000 C 33.730 314.000,34.000 314.270,34.000 314.600 C 34.000 314.930,34.360 315.560,34.800 316.000 C 35.240 316.440,35.600 317.070,35.600 317.400 C 35.600 317.730,35.870 318.000,36.200 318.000 C 36.530 318.000,36.800 318.270,36.800 318.600 C 36.800 318.930,37.070 319.200,37.400 319.200 C 37.733 319.200,38.000 319.556,38.000 320.000 C 38.000 320.440,38.360 321.160,38.800 321.600 C 39.240 322.040,39.600 322.580,39.600 322.800 C 39.600 323.020,39.870 323.200,40.200 323.200 C 40.530 323.200,40.800 323.476,40.800 323.813 C 40.800 324.149,41.070 324.529,41.400 324.655 C 41.730 324.782,42.000 325.108,42.000 325.381 C 42.000 325.653,42.360 326.202,42.800 326.600 C 43.240 326.998,43.600 327.566,43.600 327.862 C 43.600 328.158,43.870 328.400,44.200 328.400 C 44.530 328.400,44.800 328.676,44.800 329.013 C 44.800 329.349,45.070 329.729,45.400 329.855 C 45.730 329.982,46.000 330.336,46.000 330.643 C 46.000 330.949,46.360 331.200,46.800 331.200 C 47.333 331.200,47.600 331.467,47.600 332.000 C 47.600 332.444,47.867 332.800,48.200 332.800 C 48.530 332.800,48.800 332.980,48.800 333.200 C 48.800 333.420,49.160 334.005,49.600 334.500 C 51.154 336.248,51.600 336.802,51.600 336.983 C 51.600 337.396,54.711 340.400,55.138 340.400 C 55.392 340.400,55.600 340.601,55.600 340.847 C 55.600 341.429,58.571 344.400,59.153 344.400 C 59.399 344.400,59.603 344.625,59.607 344.900 C 59.615 345.510,61.342 347.200,61.956 347.200 C 62.200 347.200,62.400 347.470,62.400 347.800 C 62.400 348.130,62.580 348.400,62.800 348.400 C 63.020 348.400,63.560 348.715,64.000 349.100 C 64.440 349.485,65.160 350.115,65.600 350.500 C 66.040 350.885,66.670 351.200,67.000 351.200 C 67.333 351.200,67.600 351.556,67.600 352.000 C 67.600 352.444,67.867 352.800,68.200 352.800 C 68.530 352.800,68.800 353.070,68.800 353.400 C 68.800 353.730,69.051 354.000,69.357 354.000 C 69.664 354.000,70.018 354.270,70.145 354.600 C 70.271 354.930,70.651 355.200,70.987 355.200 C 71.324 355.200,71.600 355.470,71.600 355.800 C 71.600 356.130,71.830 356.400,72.111 356.400 C 72.392 356.400,72.930 356.760,73.307 357.200 C 73.684 357.640,74.354 358.000,74.796 358.000 C 75.244 358.000,75.600 358.266,75.600 358.600 C 75.600 358.930,75.870 359.200,76.200 359.200 C 76.530 359.200,76.800 359.389,76.800 359.619 C 76.800 360.331,78.950 361.974,79.900 361.987 C 80.428 361.995,80.800 362.248,80.800 362.600 C 80.800 362.930,80.969 363.200,81.175 363.200 C 81.382 363.200,82.147 363.747,82.875 364.415 C 83.604 365.083,84.605 365.732,85.100 365.858 C 85.595 365.984,86.000 366.337,86.000 366.643 C 86.000 366.950,86.360 367.200,86.800 367.200 C 87.240 367.200,87.600 367.384,87.600 367.609 C 87.600 367.833,88.095 368.235,88.700 368.500 C 89.305 368.766,89.944 369.212,90.120 369.492 C 90.296 369.771,90.679 370.000,90.971 370.000 C 91.263 370.000,91.726 370.270,92.000 370.600 C 92.274 370.930,92.746 371.200,93.049 371.200 C 93.352 371.200,93.960 371.560,94.400 372.000 C 94.840 372.440,95.560 372.800,96.000 372.800 C 96.444 372.800,96.800 373.067,96.800 373.400 C 96.800 373.730,97.141 374.000,97.557 374.000 C 97.974 374.000,98.418 374.270,98.545 374.600 C 98.671 374.930,99.141 375.200,99.587 375.200 C 100.034 375.200,100.760 375.560,101.200 376.000 C 101.640 376.440,102.360 376.800,102.800 376.800 C 103.244 376.800,103.600 377.067,103.600 377.400 C 103.600 377.800,104.000 378.000,104.800 378.000 C 105.600 378.000,106.000 378.200,106.000 378.600 C 106.000 379.019,106.422 379.200,107.400 379.200 C 108.330 379.200,108.800 379.387,108.800 379.757 C 108.800 380.369,109.641 380.800,110.833 380.800 C 111.255 380.800,111.600 381.070,111.600 381.400 C 111.600 381.795,111.995 382.000,112.757 382.000 C 113.417 382.000,114.013 382.258,114.145 382.600 C 114.279 382.951,114.879 383.200,115.587 383.200 C 116.382 383.200,116.800 383.401,116.800 383.782 C 116.800 384.128,117.356 384.468,118.172 384.621 C 118.927 384.763,119.641 385.131,119.760 385.439 C 119.878 385.748,120.476 386.006,121.087 386.013 C 121.699 386.020,122.549 386.290,122.976 386.613 C 123.404 386.936,124.264 387.200,124.889 387.200 C 125.532 387.200,126.125 387.462,126.256 387.802 C 126.383 388.133,127.184 388.516,128.036 388.652 C 128.888 388.788,129.790 389.147,130.041 389.450 C 130.293 389.752,131.029 390.000,131.678 390.000 C 132.326 390.000,133.127 390.270,133.457 390.600 C 133.787 390.930,134.699 391.200,135.484 391.200 C 136.332 391.200,137.102 391.460,137.380 391.841 C 137.642 392.199,138.672 392.574,139.718 392.692 C 140.746 392.808,141.792 393.150,142.043 393.451 C 142.312 393.776,143.277 394.000,144.406 394.000 C 145.733 394.000,146.385 394.183,146.545 394.600 C 146.714 395.042,147.412 395.200,149.187 395.200 C 150.968 395.200,151.600 395.344,151.600 395.750 C 151.600 396.345,153.280 396.800,155.479 396.800 C 156.237 396.800,157.127 397.070,157.457 397.400 C 157.876 397.818,158.900 398.000,160.843 398.000 C 162.702 398.000,163.947 398.209,164.588 398.629 C 165.327 399.113,166.385 399.228,169.175 399.129 C 171.879 399.033,172.802 399.127,172.801 399.500 C 172.800 399.895,178.506 400.000,200.000 400.000 C 217.867 400.000,227.200 399.863,227.200 399.600 C 227.200 399.360,228.784 399.200,231.151 399.200 C 234.175 399.200,235.219 399.059,235.600 398.600 C 235.959 398.167,236.911 398.000,239.020 398.000 C 241.085 398.000,242.119 397.824,242.543 397.400 C 242.873 397.070,243.763 396.800,244.521 396.800 C 246.881 396.800,248.400 396.351,248.406 395.650 C 248.409 395.293,248.606 394.730,248.844 394.400 C 249.208 393.894,249.240 393.909,249.050 394.500 C 248.746 395.445,252.824 395.535,253.600 394.600 C 253.900 394.239,254.775 394.000,255.800 394.000 C 256.754 394.000,257.702 393.759,257.957 393.451 C 258.208 393.150,259.227 392.811,260.223 392.699 C 261.218 392.586,262.354 392.203,262.748 391.847 C 263.141 391.491,263.999 391.200,264.655 391.200 C 265.311 391.200,266.196 390.936,266.624 390.613 C 267.051 390.290,267.966 390.020,268.657 390.013 C 269.349 390.006,270.008 389.755,270.123 389.457 C 270.238 389.158,271.074 388.795,271.981 388.649 C 272.888 388.504,273.733 388.119,273.858 387.793 C 273.995 387.436,274.607 387.200,275.394 387.200 C 276.113 387.200,276.926 386.930,277.200 386.600 C 277.474 386.270,278.222 386.000,278.862 386.000 C 279.501 386.000,280.122 385.748,280.240 385.439 C 280.359 385.131,281.073 384.763,281.828 384.621 C 282.644 384.468,283.200 384.128,283.200 383.782 C 283.200 383.384,283.642 383.200,284.600 383.200 C 285.578 383.200,286.000 383.019,286.000 382.600 C 286.000 382.199,286.401 382.000,287.213 382.000 C 287.921 382.000,288.521 381.751,288.655 381.400 C 288.782 381.070,289.310 380.800,289.829 380.800 C 290.362 380.800,290.958 380.453,291.200 380.000 C 291.480 379.476,292.038 379.200,292.814 379.200 C 293.602 379.200,294.000 378.998,294.000 378.600 C 294.000 378.205,294.395 378.000,295.157 378.000 C 295.794 378.000,296.412 377.747,296.530 377.438 C 296.649 377.128,297.298 376.754,297.973 376.606 C 298.648 376.458,299.200 376.081,299.200 375.768 C 299.200 375.427,299.604 375.200,300.213 375.200 C 300.769 375.200,301.329 374.930,301.455 374.600 C 301.582 374.270,302.026 374.000,302.443 374.000 C 302.859 374.000,303.200 373.750,303.200 373.445 C 303.200 373.126,303.798 372.777,304.600 372.626 C 305.438 372.469,306.000 372.130,306.000 371.782 C 306.000 371.462,306.347 371.200,306.771 371.200 C 307.196 371.200,307.781 370.965,308.071 370.678 C 308.362 370.390,308.915 370.036,309.300 369.890 C 309.685 369.744,310.000 369.454,310.000 369.244 C 310.000 369.035,310.540 368.745,311.200 368.600 C 311.860 368.455,312.400 368.081,312.400 367.768 C 312.400 367.456,312.760 367.200,313.200 367.200 C 313.640 367.200,314.007 366.975,314.016 366.700 C 314.024 366.425,314.924 365.765,316.016 365.234 C 317.107 364.703,318.000 364.028,318.000 363.734 C 318.000 363.440,318.270 363.200,318.600 363.200 C 318.930 363.200,319.200 362.930,319.200 362.600 C 319.200 362.218,319.584 362.000,320.254 362.000 C 321.265 362.000,323.200 360.410,323.200 359.579 C 323.200 359.371,323.461 359.200,323.780 359.200 C 324.099 359.200,324.504 358.971,324.680 358.692 C 324.856 358.412,325.495 357.966,326.100 357.700 C 326.705 357.435,327.200 357.033,327.200 356.809 C 327.200 356.584,327.470 356.400,327.800 356.400 C 328.130 356.400,328.400 356.130,328.400 355.800 C 328.400 355.467,328.756 355.200,329.200 355.200 C 329.644 355.200,330.000 354.933,330.000 354.600 C 330.000 354.270,330.270 354.000,330.600 354.000 C 330.930 354.000,331.200 353.751,331.200 353.447 C 331.200 353.142,331.560 352.799,332.000 352.684 C 332.440 352.569,332.800 352.188,332.800 351.837 C 332.800 351.487,333.051 351.200,333.357 351.200 C 333.664 351.200,334.018 350.930,334.145 350.600 C 334.271 350.270,334.649 350.000,334.985 350.000 C 335.320 350.000,336.857 348.740,338.400 347.200 C 339.943 345.660,341.384 344.400,341.603 344.400 C 341.821 344.400,342.000 344.130,342.000 343.800 C 342.000 343.470,342.270 343.200,342.600 343.200 C 342.930 343.200,343.200 343.030,343.200 342.823 C 343.200 342.616,344.558 341.061,346.218 339.369 C 347.877 337.677,349.502 335.776,349.828 335.146 C 350.154 334.516,350.596 334.000,350.810 334.000 C 351.025 334.000,351.200 333.751,351.200 333.447 C 351.200 333.142,351.560 332.799,352.000 332.684 C 352.440 332.569,352.800 332.188,352.800 331.837 C 352.800 331.487,353.070 331.200,353.400 331.200 C 353.730 331.200,354.000 330.930,354.000 330.600 C 354.000 330.270,354.270 330.000,354.600 330.000 C 354.933 330.000,355.200 329.644,355.200 329.200 C 355.200 328.756,355.467 328.400,355.800 328.400 C 356.130 328.400,356.400 328.170,356.400 327.889 C 356.400 327.608,356.760 327.070,357.200 326.693 C 357.640 326.316,358.000 325.755,358.000 325.447 C 358.000 325.138,358.270 324.782,358.600 324.655 C 358.930 324.529,359.200 324.149,359.200 323.813 C 359.200 323.476,359.389 323.200,359.619 323.200 C 360.331 323.200,361.974 321.050,361.987 320.100 C 361.995 319.572,362.248 319.200,362.600 319.200 C 362.930 319.200,363.200 318.930,363.200 318.600 C 363.200 318.270,363.427 318.000,363.705 318.000 C 364.198 318.000,364.649 317.336,365.672 315.100 C 365.949 314.495,366.406 314.000,366.688 314.000 C 366.969 314.000,367.200 313.730,367.200 313.400 C 367.200 313.070,367.560 312.440,368.000 312.000 C 368.440 311.560,368.800 310.930,368.800 310.600 C 368.800 310.270,369.070 310.000,369.400 310.000 C 369.730 310.000,370.000 309.662,370.000 309.249 C 370.000 308.836,370.270 308.274,370.600 308.000 C 370.930 307.726,371.200 307.164,371.200 306.751 C 371.200 306.338,371.451 306.000,371.757 306.000 C 372.369 306.000,372.800 305.159,372.800 303.967 C 372.800 303.545,373.070 303.200,373.400 303.200 C 373.730 303.200,374.000 302.859,374.000 302.443 C 374.000 302.026,374.270 301.582,374.600 301.455 C 374.930 301.329,375.200 300.769,375.200 300.213 C 375.200 299.604,375.427 299.200,375.768 299.200 C 376.081 299.200,376.458 298.648,376.606 297.973 C 376.754 297.298,377.128 296.649,377.438 296.530 C 377.747 296.412,378.000 295.794,378.000 295.157 C 378.000 294.395,378.205 294.000,378.600 294.000 C 379.015 294.000,379.200 293.583,379.200 292.647 C 379.200 291.630,379.399 291.241,380.000 291.084 C 380.529 290.946,380.800 290.538,380.800 289.880 C 380.800 289.333,381.070 288.782,381.400 288.655 C 381.751 288.521,382.000 287.921,382.000 287.213 C 382.000 286.401,382.199 286.000,382.600 286.000 C 383.019 286.000,383.200 285.578,383.200 284.600 C 383.200 283.642,383.384 283.200,383.782 283.200 C 384.128 283.200,384.468 282.644,384.621 281.828 C 384.763 281.073,385.131 280.359,385.439 280.240 C 385.788 280.106,386.000 279.433,386.000 278.455 C 386.000 277.429,386.208 276.806,386.600 276.655 C 386.930 276.529,387.200 275.944,387.200 275.357 C 387.200 274.769,387.474 274.088,387.809 273.843 C 388.144 273.598,388.531 272.678,388.670 271.799 C 388.808 270.919,389.164 270.056,389.461 269.880 C 389.769 269.697,390.000 268.879,390.000 267.968 C 390.000 266.921,390.206 266.296,390.600 266.145 C 390.975 266.001,391.200 265.391,391.200 264.520 C 391.200 263.732,391.548 262.684,392.000 262.109 C 392.478 261.502,392.800 260.486,392.800 259.589 C 392.800 258.622,393.014 258.003,393.400 257.855 C 393.812 257.697,394.000 257.053,394.000 255.800 C 394.000 254.547,394.188 253.903,394.600 253.745 C 395.047 253.573,395.200 252.861,395.200 250.957 C 395.200 249.054,395.341 248.400,395.750 248.400 C 396.345 248.400,396.800 246.720,396.800 244.521 C 396.800 243.763,397.070 242.873,397.400 242.543 C 397.838 242.104,398.000 241.035,398.000 238.571 C 398.000 235.841,398.114 235.200,398.600 235.200 C 399.093 235.200,399.200 234.489,399.200 231.200 C 399.200 228.800,399.360 227.200,399.600 227.200 C 399.863 227.200,400.000 217.867,400.000 200.000 C 400.000 182.133,399.863 172.800,399.600 172.800 C 399.360 172.800,399.200 171.200,399.200 168.800 C 399.200 165.511,399.093 164.800,398.600 164.800 C 398.114 164.800,398.000 164.159,398.000 161.429 C 398.000 158.965,397.838 157.896,397.400 157.457 C 397.070 157.127,396.800 156.237,396.800 155.479 C 396.800 153.280,396.345 151.600,395.750 151.600 C 395.344 151.600,395.200 150.968,395.200 149.187 C 395.200 147.412,395.042 146.714,394.600 146.545 C 394.179 146.383,394.000 145.727,394.000 144.345 C 394.000 142.963,393.821 142.306,393.400 142.145 C 393.014 141.997,392.800 141.378,392.800 140.411 C 392.800 139.514,392.478 138.498,392.000 137.891 C 391.548 137.316,391.200 136.268,391.200 135.480 C 391.200 134.609,390.975 133.999,390.600 133.855 C 390.206 133.704,390.000 133.079,390.000 132.032 C 390.000 131.121,389.769 130.303,389.461 130.120 C 389.164 129.944,388.810 129.090,388.673 128.223 C 388.537 127.356,388.150 126.492,387.813 126.303 C 387.476 126.115,387.200 125.429,387.200 124.780 C 387.200 123.998,386.998 123.600,386.600 123.600 C 386.155 123.600,386.000 123.132,386.000 121.787 C 386.000 120.602,385.806 119.900,385.439 119.760 C 385.131 119.641,384.763 118.927,384.621 118.172 C 384.468 117.356,384.128 116.800,383.782 116.800 C 383.401 116.800,383.200 116.382,383.200 115.587 C 383.200 114.879,382.951 114.279,382.600 114.145 C 382.258 114.013,382.000 113.417,382.000 112.757 C 382.000 111.995,381.795 111.600,381.400 111.600 C 381.070 111.600,380.800 111.255,380.800 110.833 C 380.800 109.641,380.369 108.800,379.757 108.800 C 379.387 108.800,379.200 108.330,379.200 107.400 C 379.200 106.422,379.019 106.000,378.600 106.000 C 378.200 106.000,378.000 105.600,378.000 104.800 C 378.000 104.043,377.795 103.600,377.445 103.600 C 377.126 103.600,376.777 103.002,376.626 102.200 C 376.469 101.362,376.130 100.800,375.782 100.800 C 375.426 100.800,375.200 100.407,375.200 99.787 C 375.200 99.231,374.930 98.671,374.600 98.545 C 374.270 98.418,374.000 97.974,374.000 97.557 C 374.000 97.141,373.730 96.800,373.400 96.800 C 373.067 96.800,372.800 96.444,372.800 96.000 C 372.800 95.560,372.440 94.840,372.000 94.400 C 371.560 93.960,371.200 93.352,371.200 93.049 C 371.200 92.746,370.930 92.274,370.600 92.000 C 370.270 91.726,370.000 91.263,370.000 90.971 C 370.000 90.679,369.771 90.296,369.492 90.120 C 369.212 89.944,368.766 89.305,368.500 88.700 C 368.235 88.095,367.833 87.600,367.609 87.600 C 367.384 87.600,367.200 87.240,367.200 86.800 C 367.200 86.360,366.950 86.000,366.643 86.000 C 366.337 86.000,365.984 85.595,365.858 85.100 C 365.732 84.605,365.083 83.604,364.415 82.875 C 363.747 82.147,363.200 81.382,363.200 81.175 C 363.200 80.969,362.930 80.800,362.600 80.800 C 362.248 80.800,361.995 80.428,361.987 79.900 C 361.974 78.950,360.331 76.800,359.619 76.800 C 359.389 76.800,359.200 76.530,359.200 76.200 C 359.200 75.870,358.930 75.600,358.600 75.600 C 358.266 75.600,358.000 75.244,358.000 74.796 C 358.000 74.354,357.640 73.684,357.200 73.307 C 356.760 72.930,356.400 72.392,356.400 72.111 C 356.400 71.830,356.130 71.600,355.800 71.600 C 355.467 71.600,355.200 71.244,355.200 70.800 C 355.200 70.356,354.933 70.000,354.600 70.000 C 354.270 70.000,354.000 69.730,354.000 69.400 C 354.000 69.070,353.730 68.800,353.400 68.800 C 353.070 68.800,352.800 68.530,352.800 68.200 C 352.800 67.867,352.444 67.600,352.000 67.600 C 351.467 67.600,351.200 67.333,351.200 66.800 C 351.200 66.360,351.016 66.000,350.790 66.000 C 350.565 66.000,350.207 65.545,349.996 64.990 C 349.785 64.434,349.339 63.875,349.006 63.747 C 348.673 63.619,348.400 63.361,348.400 63.174 C 348.400 62.648,345.383 59.600,344.862 59.600 C 344.608 59.600,344.400 59.324,344.400 58.987 C 344.400 58.651,344.130 58.271,343.800 58.145 C 343.470 58.018,343.200 57.664,343.200 57.357 C 343.200 57.051,342.949 56.800,342.643 56.800 C 342.336 56.800,341.982 56.530,341.855 56.200 C 341.729 55.870,341.349 55.600,341.013 55.600 C 340.676 55.600,340.400 55.392,340.400 55.138 C 340.400 54.711,337.396 51.600,336.983 51.600 C 336.882 51.600,336.395 51.240,335.900 50.800 C 333.969 49.084,333.586 48.800,333.200 48.800 C 332.980 48.800,332.800 48.530,332.800 48.200 C 332.800 47.867,332.444 47.600,332.000 47.600 C 331.467 47.600,331.200 47.333,331.200 46.800 C 331.200 46.356,330.933 46.000,330.600 46.000 C 330.270 46.000,330.000 45.730,330.000 45.400 C 330.000 45.067,329.644 44.800,329.200 44.800 C 328.756 44.800,328.400 44.533,328.400 44.200 C 328.400 43.870,328.130 43.600,327.800 43.600 C 327.470 43.600,327.200 43.416,327.200 43.191 C 327.200 42.967,326.705 42.565,326.100 42.300 C 325.495 42.034,324.856 41.588,324.680 41.308 C 324.504 41.029,324.099 40.800,323.780 40.800 C 323.461 40.800,323.200 40.530,323.200 40.200 C 323.200 39.870,322.973 39.600,322.696 39.600 C 322.419 39.600,321.968 39.240,321.693 38.800 C 321.410 38.348,320.760 38.000,320.197 38.000 C 319.577 38.000,319.200 37.773,319.200 37.400 C 319.200 37.070,318.930 36.800,318.600 36.800 C 318.270 36.800,318.000 36.530,318.000 36.200 C 318.000 35.870,317.730 35.600,317.400 35.600 C 317.070 35.600,316.440 35.240,316.000 34.800 C 315.560 34.360,314.930 34.000,314.600 34.000 C 314.270 34.000,314.000 33.730,314.000 33.400 C 314.000 33.070,313.659 32.800,313.243 32.800 C 312.826 32.800,312.382 32.530,312.255 32.200 C 312.129 31.870,311.569 31.600,311.013 31.600 C 310.372 31.600,310.000 31.376,310.000 30.990 C 310.000 30.655,309.567 30.216,309.039 30.015 C 308.510 29.814,307.960 29.458,307.815 29.225 C 307.671 28.991,307.203 28.800,306.776 28.800 C 306.349 28.800,306.000 28.530,306.000 28.200 C 306.000 27.796,305.596 27.600,304.763 27.600 C 303.862 27.600,303.468 27.383,303.316 26.800 C 303.201 26.360,302.787 26.000,302.396 26.000 C 302.005 26.000,301.582 25.730,301.455 25.400 C 301.329 25.070,300.769 24.800,300.213 24.800 C 299.579 24.800,299.200 24.575,299.200 24.200 C 299.200 23.803,298.803 23.600,298.027 23.600 C 297.205 23.600,296.778 23.360,296.600 22.800 C 296.422 22.240,295.995 22.000,295.173 22.000 C 294.397 22.000,294.000 21.797,294.000 21.400 C 294.000 20.981,293.578 20.800,292.600 20.800 C 291.622 20.800,291.200 20.619,291.200 20.200 C 291.200 19.805,290.805 19.600,290.047 19.600 C 289.230 19.600,288.832 19.367,288.684 18.800 C 288.532 18.217,288.138 18.000,287.237 18.000 C 286.404 18.000,286.000 17.804,286.000 17.400 C 286.000 16.981,285.578 16.800,284.600 16.800 C 283.622 16.800,283.200 16.619,283.200 16.200 C 283.200 15.781,282.778 15.600,281.800 15.600 C 280.870 15.600,280.400 15.413,280.400 15.043 C 280.400 14.440,279.563 14.000,278.416 14.000 C 278.021 14.000,277.474 13.730,277.200 13.400 C 276.926 13.070,276.113 12.800,275.394 12.800 C 274.600 12.800,273.995 12.564,273.855 12.200 C 273.714 11.831,273.106 11.600,272.275 11.600 C 271.432 11.600,270.652 11.299,270.200 10.800 C 269.802 10.360,269.009 9.994,268.438 9.987 C 267.867 9.980,267.051 9.710,266.624 9.387 C 266.196 9.064,265.274 8.800,264.573 8.800 C 263.872 8.800,263.074 8.530,262.800 8.200 C 262.501 7.840,261.626 7.600,260.613 7.600 C 259.432 7.600,258.706 7.359,258.200 6.800 C 257.694 6.241,256.968 6.000,255.787 6.000 C 254.736 6.000,253.900 5.761,253.574 5.368 C 253.179 4.893,252.474 4.769,250.724 4.868 C 248.726 4.981,248.399 4.902,248.399 4.300 C 248.400 3.710,248.018 3.600,245.963 3.600 C 244.132 3.600,243.273 3.401,242.509 2.800 C 241.721 2.180,240.886 2.000,238.795 2.000 C 236.886 2.000,235.953 1.825,235.600 1.400 C 235.219 0.941,234.175 0.800,231.151 0.800 C 228.784 0.800,227.200 0.640,227.200 0.400 C 227.200 0.137,217.867 0.000,200.000 0.000 C 178.506 0.000,172.800 0.105,172.801 0.500 M218.000 26.600 C 218.387 27.067,219.476 27.200,222.905 27.200 C 226.460 27.200,227.401 27.322,227.774 27.832 C 228.103 28.282,229.185 28.529,231.517 28.689 C 233.547 28.828,234.968 29.121,235.247 29.457 C 235.541 29.811,236.590 30.000,238.262 30.000 C 240.171 30.000,240.884 30.153,241.055 30.600 C 241.222 31.033,241.900 31.200,243.499 31.200 C 245.046 31.200,245.850 31.389,246.170 31.827 C 246.422 32.171,247.432 32.557,248.414 32.685 C 249.396 32.813,250.555 33.161,250.989 33.458 C 251.423 33.756,252.346 34.000,253.040 34.000 C 253.734 34.000,254.526 34.270,254.800 34.600 C 255.082 34.939,255.954 35.200,256.806 35.200 C 257.770 35.200,258.397 35.414,258.542 35.793 C 258.667 36.119,259.493 36.501,260.377 36.643 C 261.261 36.784,262.190 37.147,262.441 37.450 C 262.693 37.752,263.394 38.000,264.000 38.000 C 264.606 38.000,265.326 38.270,265.600 38.600 C 265.874 38.930,266.706 39.200,267.449 39.200 C 268.350 39.200,268.800 39.389,268.800 39.768 C 268.800 40.082,269.372 40.462,270.077 40.617 C 270.780 40.771,271.603 41.146,271.906 41.449 C 272.209 41.752,272.817 42.000,273.257 42.000 C 273.697 42.000,274.327 42.270,274.657 42.600 C 274.987 42.930,275.694 43.200,276.229 43.200 C 276.763 43.200,277.200 43.389,277.200 43.620 C 277.200 43.852,277.818 44.299,278.573 44.614 C 279.328 44.930,280.058 45.371,280.196 45.594 C 280.334 45.817,280.867 46.000,281.381 46.000 C 281.894 46.000,282.418 46.270,282.545 46.600 C 282.671 46.930,283.141 47.200,283.587 47.200 C 284.034 47.200,284.760 47.560,285.200 48.000 C 285.640 48.440,286.360 48.800,286.800 48.800 C 287.244 48.800,287.600 49.067,287.600 49.400 C 287.600 49.775,287.979 50.000,288.613 50.000 C 289.169 50.000,289.729 50.270,289.855 50.600 C 289.982 50.930,290.426 51.200,290.843 51.200 C 291.259 51.200,291.600 51.456,291.600 51.768 C 291.600 52.081,292.125 52.452,292.767 52.593 C 293.408 52.734,294.033 53.108,294.154 53.424 C 294.276 53.741,294.631 54.000,294.945 54.000 C 295.258 54.000,295.618 54.270,295.745 54.600 C 295.871 54.930,296.431 55.200,296.987 55.200 C 297.647 55.200,298.000 55.422,298.000 55.837 C 298.000 56.188,298.348 56.566,298.772 56.677 C 299.197 56.788,299.641 57.131,299.760 57.439 C 299.878 57.748,300.431 58.000,300.987 58.000 C 301.621 58.000,302.000 58.225,302.000 58.600 C 302.000 58.933,302.356 59.200,302.800 59.200 C 303.240 59.200,303.600 59.389,303.600 59.619 C 303.600 60.370,305.693 62.000,306.658 62.000 C 307.229 62.000,307.600 62.237,307.600 62.600 C 307.600 62.930,307.870 63.200,308.200 63.200 C 308.530 63.200,308.800 63.404,308.800 63.654 C 308.800 64.166,310.659 66.000,311.178 66.000 C 311.363 66.000,311.618 66.270,311.745 66.600 C 311.871 66.930,312.168 67.200,312.404 67.200 C 312.640 67.200,313.220 67.560,313.692 68.000 C 314.164 68.440,314.787 68.800,315.075 68.800 C 315.364 68.800,315.600 69.070,315.600 69.400 C 315.600 69.730,315.870 70.000,316.200 70.000 C 316.530 70.000,316.800 70.270,316.800 70.600 C 316.800 70.930,317.070 71.200,317.400 71.200 C 317.730 71.200,318.000 71.487,318.000 71.837 C 318.000 72.188,318.360 72.569,318.800 72.684 C 319.240 72.799,319.600 73.142,319.600 73.447 C 319.600 73.751,319.870 74.000,320.200 74.000 C 320.530 74.000,320.800 74.270,320.800 74.600 C 320.800 74.930,321.070 75.200,321.400 75.200 C 321.730 75.200,322.000 75.458,322.000 75.773 C 322.000 76.088,322.360 76.460,322.800 76.600 C 323.240 76.740,323.600 77.112,323.600 77.427 C 323.600 77.742,323.870 78.000,324.200 78.000 C 324.530 78.000,324.800 78.270,324.800 78.600 C 324.800 78.930,325.070 79.200,325.400 79.200 C 325.730 79.200,326.000 79.458,326.000 79.773 C 326.000 80.088,326.360 80.460,326.800 80.600 C 327.240 80.740,327.600 81.112,327.600 81.427 C 327.600 81.742,327.870 82.000,328.200 82.000 C 328.530 82.000,328.800 82.270,328.800 82.600 C 328.800 82.930,329.049 83.200,329.353 83.200 C 329.658 83.200,330.001 83.560,330.116 84.000 C 330.231 84.440,330.591 84.800,330.916 84.800 C 331.241 84.800,331.622 85.115,331.763 85.500 C 332.238 86.795,333.241 88.400,333.575 88.400 C 333.758 88.400,334.001 88.760,334.116 89.200 C 334.231 89.640,334.612 90.000,334.963 90.000 C 335.313 90.000,335.600 90.270,335.600 90.600 C 335.600 90.930,335.870 91.200,336.200 91.200 C 336.530 91.200,336.800 91.461,336.800 91.780 C 336.800 92.099,337.029 92.504,337.308 92.680 C 337.588 92.856,338.034 93.495,338.300 94.100 C 338.565 94.705,338.967 95.200,339.191 95.200 C 339.416 95.200,339.600 95.451,339.600 95.757 C 339.600 96.064,339.870 96.418,340.200 96.545 C 340.530 96.671,340.800 97.051,340.800 97.387 C 340.800 97.724,341.070 98.000,341.400 98.000 C 341.779 98.000,342.000 98.382,342.000 99.037 C 342.000 99.738,342.259 100.143,342.800 100.284 C 343.243 100.400,343.600 100.830,343.600 101.247 C 343.600 101.661,343.870 102.000,344.200 102.000 C 344.575 102.000,344.800 102.379,344.800 103.013 C 344.800 103.569,345.052 104.122,345.361 104.240 C 345.669 104.359,346.012 104.803,346.123 105.228 C 346.234 105.652,346.612 106.000,346.963 106.000 C 347.404 106.000,347.600 106.369,347.600 107.200 C 347.600 108.000,347.800 108.400,348.200 108.400 C 348.530 108.400,348.800 108.741,348.800 109.157 C 348.800 109.574,349.070 110.018,349.400 110.145 C 349.730 110.271,350.000 110.818,350.000 111.360 C 350.000 111.995,350.285 112.437,350.800 112.600 C 351.360 112.778,351.600 113.205,351.600 114.027 C 351.600 114.803,351.803 115.200,352.200 115.200 C 352.530 115.200,352.800 115.547,352.800 115.971 C 352.800 116.396,353.070 117.013,353.400 117.343 C 353.730 117.673,354.000 118.226,354.000 118.571 C 354.000 118.917,354.360 119.560,354.800 120.000 C 355.240 120.440,355.600 121.166,355.600 121.613 C 355.600 122.059,355.870 122.529,356.200 122.655 C 356.530 122.782,356.800 123.303,356.800 123.814 C 356.800 124.325,357.070 125.013,357.400 125.343 C 357.730 125.673,358.000 126.211,358.000 126.539 C 358.000 127.571,358.465 128.400,359.043 128.400 C 359.413 128.400,359.600 128.870,359.600 129.800 C 359.600 130.778,359.781 131.200,360.200 131.200 C 360.619 131.200,360.800 131.622,360.800 132.600 C 360.800 133.578,360.981 134.000,361.400 134.000 C 361.833 134.000,362.000 134.444,362.000 135.597 C 362.000 136.760,362.217 137.329,362.800 137.693 C 363.328 138.023,363.600 138.626,363.600 139.468 C 363.600 140.169,363.870 141.013,364.200 141.343 C 364.530 141.673,364.800 142.461,364.800 143.095 C 364.800 143.729,365.064 144.596,365.387 145.024 C 365.710 145.451,365.986 146.340,366.000 147.000 C 366.026 148.217,366.794 149.600,367.444 149.600 C 367.640 149.600,367.738 150.499,367.662 151.598 C 367.554 153.146,367.667 153.651,368.162 153.841 C 368.635 154.022,368.800 154.634,368.800 156.214 C 368.800 157.573,369.017 158.560,369.400 158.943 C 369.792 159.335,370.000 160.328,370.000 161.809 C 370.000 163.738,370.119 164.106,370.800 164.284 C 371.529 164.475,371.600 164.830,371.600 168.259 C 371.600 171.238,371.725 172.073,372.200 172.255 C 372.682 172.440,372.800 173.336,372.800 176.814 C 372.800 180.129,372.941 181.283,373.400 181.743 C 373.915 182.258,374.000 184.838,374.000 200.000 C 374.000 215.162,373.915 217.742,373.400 218.257 C 372.941 218.717,372.800 219.871,372.800 223.186 C 372.800 226.664,372.682 227.560,372.200 227.745 C 371.725 227.927,371.600 228.762,371.600 231.741 C 371.600 235.170,371.529 235.525,370.800 235.716 C 370.119 235.894,370.000 236.262,370.000 238.191 C 370.000 239.672,369.792 240.665,369.400 241.057 C 369.013 241.444,368.800 242.433,368.800 243.841 C 368.800 245.413,368.632 246.090,368.200 246.255 C 367.783 246.415,367.600 247.065,367.600 248.381 C 367.600 249.768,367.386 250.470,366.800 251.000 C 366.337 251.419,365.995 252.245,365.987 252.962 C 365.980 253.643,365.710 254.549,365.387 254.976 C 365.064 255.404,364.800 256.271,364.800 256.905 C 364.800 257.539,364.530 258.327,364.200 258.657 C 363.870 258.987,363.600 259.831,363.600 260.532 C 363.600 261.374,363.328 261.977,362.800 262.307 C 362.223 262.667,362.000 263.240,362.000 264.361 C 362.000 265.373,361.791 265.995,361.400 266.145 C 361.049 266.279,360.800 266.879,360.800 267.587 C 360.800 268.399,360.601 268.800,360.200 268.800 C 359.781 268.800,359.600 269.222,359.600 270.200 C 359.600 271.143,359.415 271.600,359.032 271.600 C 358.715 271.600,358.338 272.176,358.181 272.900 C 358.025 273.615,357.651 274.555,357.349 274.989 C 357.047 275.423,356.800 276.079,356.800 276.446 C 356.800 276.814,356.530 277.218,356.200 277.345 C 355.870 277.471,355.600 277.941,355.600 278.387 C 355.600 278.834,355.240 279.560,354.800 280.000 C 354.360 280.440,354.000 281.083,354.000 281.429 C 354.000 281.774,353.730 282.327,353.400 282.657 C 353.070 282.987,352.800 283.604,352.800 284.029 C 352.800 284.453,352.530 284.800,352.200 284.800 C 351.781 284.800,351.600 285.222,351.600 286.200 C 351.600 287.333,351.448 287.600,350.800 287.600 C 350.211 287.600,350.000 287.867,350.000 288.613 C 350.000 289.169,349.730 289.729,349.400 289.855 C 349.070 289.982,348.800 290.426,348.800 290.843 C 348.800 291.259,348.530 291.600,348.200 291.600 C 347.800 291.600,347.600 292.000,347.600 292.800 C 347.600 293.611,347.401 294.000,346.987 294.000 C 346.651 294.000,346.256 294.315,346.110 294.700 C 345.964 295.085,345.610 295.638,345.322 295.929 C 345.035 296.219,344.800 296.804,344.800 297.229 C 344.800 297.653,344.530 298.000,344.200 298.000 C 343.867 298.000,343.600 298.356,343.600 298.800 C 343.600 299.250,343.333 299.600,342.990 299.600 C 342.632 299.600,342.281 300.096,342.140 300.800 C 342.008 301.460,341.653 302.000,341.350 302.000 C 341.048 302.000,340.800 302.360,340.800 302.800 C 340.800 303.244,340.533 303.600,340.200 303.600 C 339.870 303.600,339.600 303.780,339.600 304.000 C 339.600 304.220,339.240 304.760,338.800 305.200 C 338.360 305.640,338.000 306.360,338.000 306.800 C 338.000 307.244,337.733 307.600,337.400 307.600 C 337.070 307.600,336.800 307.870,336.800 308.200 C 336.800 308.530,336.530 308.800,336.200 308.800 C 335.870 308.800,335.600 308.965,335.600 309.166 C 335.600 309.367,334.970 310.180,334.200 310.973 C 333.430 311.766,332.800 312.662,332.800 312.964 C 332.800 313.267,332.530 313.618,332.200 313.745 C 331.870 313.871,331.600 314.341,331.600 314.787 C 331.600 315.333,331.337 315.600,330.800 315.600 C 330.356 315.600,330.000 315.867,330.000 316.200 C 330.000 316.530,329.730 316.800,329.400 316.800 C 329.070 316.800,328.800 317.070,328.800 317.400 C 328.800 317.730,328.530 318.000,328.200 318.000 C 327.867 318.000,327.600 318.356,327.600 318.800 C 327.600 319.333,327.333 319.600,326.800 319.600 C 326.356 319.600,326.000 319.867,326.000 320.200 C 326.000 320.530,325.730 320.800,325.400 320.800 C 325.070 320.800,324.800 321.070,324.800 321.400 C 324.800 321.730,324.530 322.000,324.200 322.000 C 323.867 322.000,323.600 322.356,323.600 322.800 C 323.600 323.252,323.333 323.600,322.987 323.600 C 322.651 323.600,322.271 323.870,322.145 324.200 C 322.018 324.530,321.664 324.800,321.357 324.800 C 321.051 324.800,320.800 325.070,320.800 325.400 C 320.800 325.730,320.530 326.000,320.200 326.000 C 319.867 326.000,319.600 326.356,319.600 326.800 C 319.600 327.333,319.333 327.600,318.800 327.600 C 318.356 327.600,318.000 327.867,318.000 328.200 C 318.000 328.530,317.730 328.800,317.400 328.800 C 317.070 328.800,316.800 329.070,316.800 329.400 C 316.800 329.730,316.530 330.000,316.200 330.000 C 315.867 330.000,315.600 330.356,315.600 330.800 C 315.600 331.316,315.333 331.600,314.849 331.600 C 314.436 331.600,313.874 331.870,313.600 332.200 C 313.326 332.530,312.898 332.800,312.648 332.800 C 312.399 332.800,311.616 333.430,310.910 334.200 C 310.203 334.970,309.439 335.600,309.212 335.600 C 308.986 335.600,308.800 335.870,308.800 336.200 C 308.800 336.530,308.530 336.800,308.200 336.800 C 307.870 336.800,307.600 337.070,307.600 337.400 C 307.600 337.733,307.244 338.000,306.800 338.000 C 306.360 338.000,305.640 338.360,305.200 338.800 C 304.760 339.240,304.220 339.600,304.000 339.600 C 303.780 339.600,303.600 339.870,303.600 340.200 C 303.600 340.533,303.244 340.800,302.800 340.800 C 302.360 340.800,302.000 341.048,302.000 341.350 C 302.000 341.653,301.460 342.008,300.800 342.140 C 300.096 342.281,299.600 342.632,299.600 342.990 C 299.600 343.333,299.250 343.600,298.800 343.600 C 298.356 343.600,298.000 343.867,298.000 344.200 C 298.000 344.570,297.624 344.800,297.020 344.800 C 296.481 344.800,295.896 345.039,295.720 345.330 C 295.544 345.622,295.085 345.976,294.700 346.118 C 294.315 346.259,294.000 346.651,294.000 346.987 C 294.000 347.401,293.611 347.600,292.800 347.600 C 292.000 347.600,291.600 347.800,291.600 348.200 C 291.600 348.530,291.259 348.800,290.843 348.800 C 290.426 348.800,289.982 349.070,289.855 349.400 C 289.729 349.730,289.169 350.000,288.613 350.000 C 287.867 350.000,287.600 350.211,287.600 350.800 C 287.600 351.424,287.333 351.600,286.387 351.600 C 285.679 351.600,285.079 351.849,284.945 352.200 C 284.818 352.530,284.278 352.800,283.745 352.800 C 283.211 352.800,282.671 353.070,282.545 353.400 C 282.418 353.730,281.974 354.000,281.557 354.000 C 281.141 354.000,280.440 354.360,280.000 354.800 C 279.560 355.240,278.834 355.600,278.387 355.600 C 277.941 355.600,277.471 355.870,277.345 356.200 C 277.218 356.530,276.697 356.800,276.186 356.800 C 275.675 356.800,275.009 357.048,274.706 357.351 C 274.403 357.654,273.580 358.029,272.877 358.183 C 272.172 358.338,271.600 358.718,271.600 359.032 C 271.600 359.398,271.168 359.600,270.387 359.600 C 269.679 359.600,269.079 359.849,268.945 360.200 C 268.805 360.564,268.200 360.800,267.406 360.800 C 266.687 360.800,265.874 361.070,265.600 361.400 C 265.326 361.730,264.586 362.000,263.954 362.000 C 263.240 362.000,262.618 362.302,262.307 362.800 C 261.950 363.371,261.374 363.600,260.291 363.600 C 259.312 363.600,258.693 363.813,258.545 364.200 C 258.396 364.587,257.778 364.800,256.806 364.800 C 255.954 364.800,255.082 365.061,254.800 365.400 C 254.526 365.730,253.694 366.000,252.951 366.000 C 252.133 366.000,251.284 366.316,250.800 366.800 C 250.235 367.365,249.467 367.600,248.187 367.600 C 246.945 367.600,246.302 367.789,246.145 368.200 C 245.977 368.638,245.288 368.800,243.600 368.800 C 241.912 368.800,241.223 368.962,241.055 369.400 C 240.887 369.839,240.196 370.000,238.488 370.000 C 236.704 370.000,235.948 370.189,235.292 370.800 C 234.580 371.463,233.881 371.600,231.204 371.600 C 228.703 371.600,227.923 371.735,227.745 372.200 C 227.559 372.684,226.644 372.800,223.006 372.800 C 219.487 372.800,218.389 372.932,218.000 373.400 C 217.250 374.304,182.750 374.304,182.000 373.400 C 181.611 372.932,180.513 372.800,176.994 372.800 C 173.356 372.800,172.441 372.684,172.255 372.200 C 172.079 371.739,171.317 371.600,168.976 371.600 C 166.532 371.600,165.724 371.441,164.909 370.800 C 164.160 370.210,163.286 370.000,161.589 370.000 C 159.911 370.000,159.223 369.837,159.055 369.400 C 158.887 368.960,158.193 368.800,156.455 368.800 C 154.654 368.800,154.027 368.647,153.841 368.162 C 153.651 367.667,153.146 367.554,151.598 367.662 C 150.221 367.757,149.600 367.649,149.600 367.314 C 149.600 366.660,148.293 366.000,146.998 366.000 C 146.418 366.000,145.673 365.730,145.343 365.400 C 145.013 365.070,144.055 364.800,143.214 364.800 C 142.224 364.800,141.604 364.588,141.455 364.200 C 141.307 363.813,140.688 363.600,139.709 363.600 C 138.626 363.600,138.050 363.371,137.693 362.800 C 137.382 362.302,136.760 362.000,136.046 362.000 C 135.414 362.000,134.674 361.730,134.400 361.400 C 134.126 361.070,133.294 360.800,132.551 360.800 C 131.617 360.800,131.200 360.615,131.200 360.200 C 131.200 359.781,130.778 359.600,129.800 359.600 C 128.870 359.600,128.400 359.413,128.400 359.043 C 128.400 358.439,127.562 358.000,126.410 358.000 C 126.012 358.000,125.582 357.730,125.455 357.400 C 125.329 357.070,124.791 356.800,124.262 356.800 C 123.732 356.800,123.074 356.530,122.800 356.200 C 122.526 355.870,121.874 355.600,121.351 355.600 C 120.828 355.600,120.400 355.411,120.400 355.180 C 120.400 354.948,119.782 354.501,119.027 354.186 C 118.272 353.870,117.542 353.429,117.404 353.206 C 117.266 352.983,116.713 352.800,116.176 352.800 C 115.575 352.800,115.200 352.569,115.200 352.200 C 115.200 351.803,114.803 351.600,114.027 351.600 C 113.205 351.600,112.778 351.360,112.600 350.800 C 112.437 350.285,111.995 350.000,111.360 350.000 C 110.818 350.000,110.271 349.730,110.145 349.400 C 110.018 349.070,109.574 348.800,109.157 348.800 C 108.741 348.800,108.400 348.530,108.400 348.200 C 108.400 347.800,108.000 347.600,107.200 347.600 C 106.389 347.600,106.000 347.401,106.000 346.987 C 106.000 346.651,105.685 346.259,105.300 346.118 C 104.915 345.976,104.456 345.622,104.280 345.330 C 104.104 345.039,103.519 344.800,102.980 344.800 C 102.376 344.800,102.000 344.570,102.000 344.200 C 102.000 343.870,101.661 343.600,101.247 343.600 C 100.830 343.600,100.400 343.243,100.284 342.800 C 100.143 342.259,99.738 342.000,99.037 342.000 C 98.382 342.000,98.000 341.779,98.000 341.400 C 98.000 341.070,97.724 340.800,97.387 340.800 C 97.051 340.800,96.671 340.530,96.545 340.200 C 96.418 339.870,96.064 339.600,95.757 339.600 C 95.451 339.600,95.200 339.344,95.200 339.032 C 95.200 338.719,94.660 338.345,94.000 338.200 C 93.340 338.055,92.800 337.681,92.800 337.368 C 92.800 337.056,92.440 336.800,92.000 336.800 C 91.556 336.800,91.200 336.533,91.200 336.200 C 91.200 335.870,90.930 335.600,90.600 335.600 C 90.270 335.600,90.000 335.342,90.000 335.027 C 90.000 334.712,89.657 334.345,89.237 334.212 C 88.817 334.079,88.373 333.706,88.250 333.385 C 88.126 333.063,87.749 332.800,87.413 332.800 C 87.076 332.800,86.800 332.623,86.800 332.408 C 86.800 332.192,86.350 331.902,85.800 331.764 C 85.250 331.626,84.800 331.246,84.800 330.919 C 84.800 330.592,84.440 330.231,84.000 330.116 C 83.560 330.001,83.200 329.658,83.200 329.353 C 83.200 329.049,82.930 328.800,82.600 328.800 C 82.270 328.800,82.000 328.530,82.000 328.200 C 82.000 327.870,81.742 327.600,81.427 327.600 C 81.112 327.600,80.740 327.240,80.600 326.800 C 80.460 326.360,80.088 326.000,79.773 326.000 C 79.458 326.000,79.200 325.730,79.200 325.400 C 79.200 325.070,78.930 324.800,78.600 324.800 C 78.270 324.800,78.000 324.530,78.000 324.200 C 78.000 323.870,77.742 323.600,77.427 323.600 C 77.112 323.600,76.740 323.240,76.600 322.800 C 76.460 322.360,76.088 322.000,75.773 322.000 C 75.458 322.000,75.200 321.730,75.200 321.400 C 75.200 321.070,74.930 320.800,74.600 320.800 C 74.270 320.800,74.000 320.530,74.000 320.200 C 74.000 319.870,73.730 319.600,73.400 319.600 C 73.070 319.600,72.800 319.313,72.800 318.963 C 72.800 318.612,72.440 318.231,72.000 318.116 C 71.560 318.001,71.200 317.658,71.200 317.353 C 71.200 317.049,70.930 316.800,70.600 316.800 C 70.270 316.800,70.000 316.530,70.000 316.200 C 70.000 315.870,69.730 315.600,69.400 315.600 C 69.070 315.600,68.800 315.358,68.800 315.062 C 68.800 314.766,68.440 314.198,68.000 313.800 C 67.560 313.402,67.200 312.828,67.200 312.525 C 67.200 312.223,66.930 311.871,66.600 311.745 C 66.270 311.618,65.997 311.309,65.993 311.057 C 65.984 310.480,64.236 308.800,63.644 308.800 C 63.400 308.800,63.200 308.530,63.200 308.200 C 63.200 307.870,62.930 307.600,62.600 307.600 C 62.248 307.600,61.995 307.228,61.987 306.700 C 61.974 305.750,60.331 303.600,59.619 303.600 C 59.389 303.600,59.200 303.240,59.200 302.800 C 59.200 302.356,58.933 302.000,58.600 302.000 C 58.230 302.000,58.000 301.624,58.000 301.020 C 58.000 300.481,57.761 299.896,57.470 299.720 C 57.178 299.544,56.824 299.085,56.682 298.700 C 56.541 298.315,56.149 298.000,55.813 298.000 C 55.424 298.000,55.200 297.630,55.200 296.987 C 55.200 296.431,54.930 295.871,54.600 295.745 C 54.270 295.618,54.000 295.258,54.000 294.945 C 54.000 294.631,53.741 294.276,53.424 294.154 C 53.108 294.033,52.734 293.408,52.593 292.767 C 52.452 292.125,52.081 291.600,51.768 291.600 C 51.456 291.600,51.200 291.259,51.200 290.843 C 51.200 290.426,50.930 289.982,50.600 289.855 C 50.270 289.729,50.000 289.169,50.000 288.613 C 50.000 288.015,49.772 287.600,49.445 287.600 C 49.126 287.600,48.777 287.002,48.626 286.200 C 48.469 285.362,48.130 284.800,47.782 284.800 C 47.426 284.800,47.200 284.407,47.200 283.787 C 47.200 283.231,46.930 282.671,46.600 282.545 C 46.270 282.418,46.000 282.078,46.000 281.790 C 46.000 281.105,44.086 277.301,43.587 276.992 C 43.374 276.860,43.200 276.425,43.200 276.025 C 43.200 275.625,42.930 275.074,42.600 274.800 C 42.270 274.526,42.000 273.887,42.000 273.380 C 42.000 272.872,41.752 272.209,41.449 271.906 C 41.146 271.603,40.771 270.780,40.617 270.077 C 40.462 269.372,40.082 268.800,39.768 268.800 C 39.385 268.800,39.200 268.343,39.200 267.400 C 39.200 266.422,39.019 266.000,38.600 266.000 C 38.170 266.000,38.000 265.561,38.000 264.449 C 38.000 263.596,37.752 262.693,37.450 262.441 C 37.147 262.190,36.784 261.261,36.643 260.377 C 36.501 259.493,36.119 258.667,35.793 258.542 C 35.440 258.406,35.200 257.796,35.200 257.034 C 35.200 256.329,34.936 255.404,34.613 254.976 C 34.290 254.549,34.020 253.655,34.013 252.989 C 34.006 252.323,33.756 251.423,33.458 250.989 C 33.161 250.555,32.813 249.396,32.685 248.414 C 32.557 247.432,32.171 246.422,31.827 246.170 C 31.385 245.847,31.200 245.041,31.200 243.443 C 31.200 241.796,31.036 241.112,30.600 240.945 C 30.161 240.776,30.000 240.086,30.000 238.377 C 30.000 236.830,29.816 235.932,29.456 235.720 C 29.091 235.505,28.841 234.225,28.696 231.824 C 28.536 229.193,28.310 228.123,27.839 227.779 C 27.320 227.399,27.200 226.476,27.200 222.843 C 27.200 219.240,27.084 218.330,26.600 218.145 C 25.693 217.797,25.693 182.203,26.600 181.855 C 27.084 181.670,27.200 180.760,27.200 177.157 C 27.200 173.442,27.313 172.606,27.869 172.199 C 28.379 171.826,28.581 170.868,28.719 168.155 C 28.843 165.717,29.073 164.499,29.450 164.280 C 29.817 164.066,30.000 163.184,30.000 161.623 C 30.000 159.914,30.161 159.224,30.600 159.055 C 31.036 158.888,31.200 158.204,31.200 156.557 C 31.200 154.959,31.385 154.153,31.827 153.830 C 32.171 153.578,32.557 152.568,32.685 151.586 C 32.813 150.604,33.161 149.445,33.458 149.011 C 33.756 148.577,34.000 147.654,34.000 146.960 C 34.000 146.266,34.270 145.474,34.600 145.200 C 34.939 144.918,35.200 144.046,35.200 143.194 C 35.200 142.230,35.414 141.603,35.793 141.458 C 36.119 141.333,36.500 140.515,36.640 139.640 C 36.780 138.765,37.143 137.954,37.447 137.837 C 37.805 137.700,38.000 136.986,38.000 135.813 C 38.000 134.468,38.155 134.000,38.600 134.000 C 39.019 134.000,39.200 133.578,39.200 132.600 C 39.200 131.642,39.384 131.200,39.782 131.200 C 40.128 131.200,40.468 130.644,40.621 129.828 C 40.763 129.073,41.131 128.359,41.439 128.240 C 41.748 128.122,42.000 127.557,42.000 126.984 C 42.000 126.411,42.270 125.673,42.600 125.343 C 42.930 125.013,43.200 124.406,43.200 123.995 C 43.200 123.584,43.374 123.140,43.587 123.008 C 44.086 122.699,46.000 118.895,46.000 118.210 C 46.000 117.922,46.270 117.582,46.600 117.455 C 46.930 117.329,47.200 116.769,47.200 116.213 C 47.200 115.604,47.427 115.200,47.768 115.200 C 48.081 115.200,48.458 114.648,48.606 113.973 C 48.754 113.298,49.128 112.649,49.438 112.530 C 49.747 112.412,50.000 111.878,50.000 111.345 C 50.000 110.811,50.270 110.271,50.600 110.145 C 50.930 110.018,51.200 109.574,51.200 109.157 C 51.200 108.741,51.456 108.400,51.768 108.400 C 52.081 108.400,52.455 107.860,52.600 107.200 C 52.745 106.540,53.119 106.000,53.432 106.000 C 53.744 106.000,54.000 105.659,54.000 105.243 C 54.000 104.826,54.270 104.382,54.600 104.255 C 54.930 104.129,55.200 103.569,55.200 103.013 C 55.200 102.370,55.424 102.000,55.813 102.000 C 56.149 102.000,56.541 101.685,56.682 101.300 C 56.824 100.915,57.178 100.456,57.470 100.280 C 57.761 100.104,58.000 99.519,58.000 98.980 C 58.000 98.376,58.230 98.000,58.600 98.000 C 58.930 98.000,59.206 97.775,59.213 97.500 C 59.220 97.225,59.850 96.379,60.613 95.619 C 61.376 94.860,62.000 93.915,62.000 93.519 C 62.000 93.124,62.270 92.800,62.600 92.800 C 62.933 92.800,63.200 92.444,63.200 92.000 C 63.200 91.560,63.400 91.200,63.644 91.200 C 64.258 91.200,65.985 89.510,65.993 88.900 C 65.997 88.625,66.184 88.400,66.410 88.400 C 66.635 88.400,66.993 87.945,67.204 87.390 C 67.415 86.834,67.861 86.275,68.194 86.147 C 68.527 86.019,68.800 85.683,68.800 85.400 C 68.800 85.117,69.070 84.782,69.400 84.655 C 69.730 84.529,70.000 84.149,70.000 83.813 C 70.000 83.476,70.270 83.200,70.600 83.200 C 70.930 83.200,71.200 82.930,71.200 82.600 C 71.200 82.270,71.400 82.000,71.644 82.000 C 72.258 82.000,73.985 80.310,73.993 79.700 C 73.997 79.425,74.270 79.200,74.600 79.200 C 74.930 79.200,75.200 78.930,75.200 78.600 C 75.200 78.270,75.372 78.000,75.582 78.000 C 76.078 78.000,78.000 76.078,78.000 75.582 C 78.000 75.372,78.270 75.200,78.600 75.200 C 78.930 75.200,79.200 74.930,79.200 74.600 C 79.200 74.270,79.425 73.997,79.700 73.993 C 80.310 73.985,82.000 72.258,82.000 71.644 C 82.000 71.400,82.270 71.200,82.600 71.200 C 82.930 71.200,83.200 70.930,83.200 70.600 C 83.200 70.270,83.476 70.000,83.813 70.000 C 84.149 70.000,84.529 69.730,84.655 69.400 C 84.782 69.070,85.097 68.800,85.354 68.800 C 85.612 68.800,86.083 68.440,86.400 68.000 C 86.717 67.560,87.213 67.200,87.501 67.200 C 87.789 67.200,88.129 66.930,88.255 66.600 C 88.382 66.270,88.691 65.997,88.943 65.993 C 89.520 65.984,91.200 64.236,91.200 63.644 C 91.200 63.400,91.560 63.200,92.000 63.200 C 92.444 63.200,92.800 62.933,92.800 62.600 C 92.800 62.270,93.151 62.000,93.581 62.000 C 94.010 62.000,94.973 61.370,95.721 60.600 C 96.469 59.830,97.309 59.200,97.587 59.200 C 97.881 59.200,98.013 58.892,97.901 58.466 C 97.744 57.865,97.892 57.767,98.717 57.925 C 99.327 58.041,99.898 57.887,100.163 57.534 C 100.403 57.213,100.915 56.832,101.300 56.688 C 101.685 56.543,102.000 56.149,102.000 55.813 C 102.000 55.424,102.370 55.200,103.013 55.200 C 103.569 55.200,104.129 54.930,104.255 54.600 C 104.382 54.270,104.826 54.000,105.243 54.000 C 105.659 54.000,106.000 53.744,106.000 53.432 C 106.000 53.119,106.540 52.745,107.200 52.600 C 107.860 52.455,108.400 52.081,108.400 51.768 C 108.400 51.456,108.741 51.200,109.157 51.200 C 109.574 51.200,110.018 50.930,110.145 50.600 C 110.271 50.270,110.811 50.000,111.345 50.000 C 111.878 50.000,112.412 49.747,112.530 49.438 C 112.649 49.128,113.298 48.754,113.973 48.606 C 114.648 48.458,115.200 48.081,115.200 47.768 C 115.200 47.437,115.596 47.200,116.151 47.200 C 116.674 47.200,117.326 46.930,117.600 46.600 C 117.874 46.270,118.423 46.000,118.820 46.000 C 119.218 46.000,119.804 45.739,120.123 45.420 C 120.442 45.101,121.190 44.717,121.784 44.568 C 122.378 44.419,122.959 44.050,123.075 43.749 C 123.191 43.447,123.722 43.200,124.255 43.200 C 124.789 43.200,125.329 42.930,125.455 42.600 C 125.587 42.256,126.185 42.000,126.855 42.000 C 127.499 42.000,128.122 41.748,128.240 41.439 C 128.359 41.131,129.073 40.763,129.828 40.621 C 130.644 40.468,131.200 40.128,131.200 39.782 C 131.200 39.388,131.635 39.200,132.551 39.200 C 133.294 39.200,134.126 38.930,134.400 38.600 C 134.674 38.270,135.512 38.000,136.262 38.000 C 137.053 38.000,137.714 37.768,137.837 37.447 C 137.954 37.143,138.765 36.780,139.640 36.640 C 140.515 36.500,141.333 36.119,141.458 35.793 C 141.604 35.412,142.233 35.200,143.214 35.200 C 144.055 35.200,145.013 34.930,145.343 34.600 C 145.673 34.270,146.573 34.000,147.343 34.000 C 148.113 34.000,149.013 33.730,149.343 33.400 C 149.673 33.070,150.293 32.800,150.721 32.800 C 152.366 32.800,154.000 32.277,154.000 31.750 C 154.000 31.344,154.632 31.200,156.413 31.200 C 158.188 31.200,158.886 31.042,159.055 30.600 C 159.226 30.155,159.933 30.000,161.794 30.000 C 163.432 30.000,164.460 29.810,164.758 29.451 C 165.047 29.102,166.397 28.833,168.466 28.714 C 170.875 28.574,171.845 28.354,172.204 27.863 C 172.604 27.315,173.454 27.200,177.095 27.200 C 180.524 27.200,181.613 27.067,182.000 26.600 C 182.750 25.696,217.250 25.696,218.000 26.600 M158.000 62.290 C 157.670 62.415,157.256 62.761,157.080 63.059 C 156.904 63.356,156.224 63.600,155.568 63.600 C 154.876 63.600,154.278 63.852,154.145 64.200 C 154.018 64.530,153.584 64.800,153.181 64.800 C 152.777 64.800,152.329 64.991,152.185 65.225 C 152.040 65.458,151.490 65.814,150.961 66.015 C 150.433 66.216,150.000 66.655,150.000 66.990 C 150.000 67.401,149.609 67.600,148.800 67.600 C 148.000 67.600,147.600 67.800,147.600 68.200 C 147.600 68.600,147.200 68.800,146.400 68.800 C 145.740 68.800,145.200 68.978,145.200 69.195 C 145.200 69.412,144.570 69.852,143.800 70.174 C 143.030 70.496,142.400 70.948,142.400 71.180 C 142.400 71.411,142.040 71.600,141.600 71.600 C 141.156 71.600,140.800 71.867,140.800 72.200 C 140.800 72.598,140.402 72.800,139.620 72.800 C 138.971 72.800,138.296 73.029,138.120 73.308 C 137.944 73.588,137.305 74.034,136.700 74.300 C 136.095 74.565,135.600 74.967,135.600 75.191 C 135.600 75.416,135.381 75.600,135.113 75.600 C 134.352 75.600,132.800 77.626,132.800 78.619 C 132.800 79.112,132.530 79.618,132.200 79.745 C 131.731 79.925,131.600 80.724,131.600 83.400 C 131.600 86.076,131.731 86.875,132.200 87.055 C 132.539 87.185,132.800 87.781,132.800 88.423 C 132.800 89.048,133.029 89.704,133.308 89.880 C 133.588 90.056,134.034 90.695,134.300 91.300 C 134.565 91.905,134.967 92.400,135.191 92.400 C 135.416 92.400,135.600 92.760,135.600 93.200 C 135.600 93.644,135.867 94.000,136.200 94.000 C 136.595 94.000,136.800 94.395,136.800 95.157 C 136.800 95.794,137.044 96.408,137.343 96.523 C 137.642 96.637,137.997 97.287,138.133 97.966 C 138.279 98.697,138.628 99.200,138.990 99.200 C 139.376 99.200,139.600 99.572,139.600 100.213 C 139.600 100.769,139.870 101.329,140.200 101.455 C 140.530 101.582,140.800 102.026,140.800 102.443 C 140.800 102.859,141.070 103.200,141.400 103.200 C 141.804 103.200,142.000 103.604,142.000 104.437 C 142.000 105.338,142.217 105.732,142.800 105.884 C 143.367 106.032,143.600 106.430,143.600 107.247 C 143.600 108.005,143.805 108.400,144.200 108.400 C 144.530 108.400,144.800 108.747,144.800 109.171 C 144.800 109.596,145.070 110.213,145.400 110.543 C 145.730 110.873,146.000 111.414,146.000 111.744 C 146.000 112.075,146.360 112.460,146.800 112.600 C 147.360 112.778,147.600 113.205,147.600 114.027 C 147.600 114.803,147.803 115.200,148.200 115.200 C 148.565 115.200,148.800 115.572,148.800 116.151 C 148.800 116.674,149.070 117.326,149.400 117.600 C 149.730 117.874,150.000 118.303,150.000 118.553 C 150.000 118.803,150.360 119.232,150.800 119.507 C 151.252 119.790,151.600 120.440,151.600 121.003 C 151.600 121.623,151.827 122.000,152.200 122.000 C 152.600 122.000,152.800 122.400,152.800 123.200 C 152.800 124.000,153.000 124.400,153.400 124.400 C 153.733 124.400,154.000 124.756,154.000 125.200 C 154.000 125.640,154.360 126.360,154.800 126.800 C 155.240 127.240,155.600 127.870,155.600 128.200 C 155.600 128.530,155.870 128.800,156.200 128.800 C 156.600 128.800,156.800 129.200,156.800 130.000 C 156.800 130.800,157.000 131.200,157.400 131.200 C 157.730 131.200,158.000 131.545,158.000 131.967 C 158.000 133.159,158.431 134.000,159.043 134.000 C 159.372 134.000,159.600 134.414,159.600 135.013 C 159.600 135.569,159.870 136.129,160.200 136.255 C 160.530 136.382,160.800 136.826,160.800 137.243 C 160.800 137.659,161.070 138.000,161.400 138.000 C 161.795 138.000,162.000 138.395,162.000 139.153 C 162.000 139.970,162.233 140.368,162.800 140.516 C 163.344 140.658,163.600 141.062,163.600 141.775 C 163.600 142.353,163.870 142.929,164.200 143.055 C 164.530 143.182,164.800 143.604,164.800 143.994 C 164.800 144.383,165.070 144.926,165.400 145.200 C 165.730 145.474,166.000 146.036,166.000 146.449 C 166.000 146.988,166.289 147.200,167.024 147.200 C 167.695 147.200,167.949 147.041,167.762 146.738 C 167.578 146.441,167.653 146.385,167.973 146.583 C 168.331 146.804,168.348 147.012,168.035 147.325 C 167.366 147.994,167.490 150.000,168.200 150.000 C 168.530 150.000,168.800 150.267,168.800 150.593 C 168.800 151.400,171.378 154.000,172.179 154.000 C 172.534 154.000,172.929 154.270,173.055 154.600 C 173.240 155.080,174.118 155.200,177.455 155.200 C 180.793 155.200,181.671 155.080,181.855 154.600 C 181.987 154.258,182.583 154.000,183.243 154.000 C 184.005 154.000,184.400 153.795,184.400 153.400 C 184.400 153.067,184.756 152.800,185.200 152.800 C 185.640 152.800,186.360 152.440,186.800 152.000 C 187.240 151.560,187.851 151.200,188.157 151.200 C 188.464 151.200,188.818 150.930,188.945 150.600 C 189.071 150.270,189.631 150.000,190.187 150.000 C 190.821 150.000,191.200 149.775,191.200 149.400 C 191.200 149.067,191.556 148.800,192.000 148.800 C 192.440 148.800,193.134 148.466,193.542 148.058 C 193.950 147.650,194.760 147.196,195.342 147.050 C 195.924 146.904,196.400 146.608,196.400 146.392 C 196.400 146.177,196.760 146.000,197.200 146.000 C 197.644 146.000,198.000 145.733,198.000 145.400 C 198.000 145.066,198.356 144.800,198.804 144.800 C 199.246 144.800,199.916 144.440,200.293 144.000 C 200.670 143.560,201.272 143.200,201.630 143.200 C 202.549 143.200,204.319 141.461,204.620 140.263 C 204.759 139.710,205.126 139.161,205.436 139.041 C 206.214 138.743,206.251 130.311,205.478 129.529 C 205.190 129.238,204.836 128.685,204.690 128.300 C 204.544 127.915,204.149 127.600,203.813 127.600 C 203.379 127.600,203.200 127.191,203.200 126.200 C 203.200 125.222,203.019 124.800,202.600 124.800 C 202.235 124.800,202.000 124.428,202.000 123.849 C 202.000 123.326,201.730 122.674,201.400 122.400 C 201.070 122.126,200.800 121.656,200.800 121.354 C 200.800 121.053,200.440 120.582,200.000 120.307 C 199.560 120.032,199.200 119.401,199.200 118.904 C 199.200 118.367,198.956 118.000,198.600 118.000 C 198.200 118.000,198.000 117.600,198.000 116.800 C 198.000 116.000,197.800 115.600,197.400 115.600 C 197.067 115.600,196.800 115.244,196.800 114.800 C 196.800 114.360,196.440 113.640,196.000 113.200 C 195.560 112.760,195.200 112.242,195.200 112.049 C 195.200 111.856,194.930 111.474,194.600 111.200 C 194.270 110.926,194.000 110.274,194.000 109.751 C 194.000 109.196,193.763 108.800,193.432 108.800 C 193.119 108.800,192.742 108.248,192.594 107.573 C 192.446 106.898,192.072 106.249,191.762 106.130 C 191.453 106.012,191.200 105.478,191.200 104.945 C 191.200 104.411,190.930 103.871,190.600 103.745 C 190.270 103.618,190.000 103.174,190.000 102.757 C 190.000 102.341,189.730 102.000,189.400 102.000 C 189.021 102.000,188.800 101.618,188.800 100.963 C 188.800 100.262,188.541 99.857,188.000 99.716 C 187.437 99.569,187.200 99.170,187.200 98.373 C 187.200 97.750,186.975 97.096,186.700 96.920 C 186.424 96.744,185.782 95.745,185.272 94.700 C 184.689 93.506,184.083 92.800,183.641 92.800 C 183.089 92.800,182.976 92.545,183.114 91.605 C 183.238 90.759,183.101 90.337,182.645 90.162 C 182.290 90.026,182.000 89.478,182.000 88.945 C 182.000 88.411,181.730 87.871,181.400 87.745 C 181.070 87.618,180.800 87.298,180.800 87.033 C 180.800 86.768,180.440 86.164,180.000 85.692 C 179.560 85.220,179.200 84.556,179.200 84.217 C 179.200 83.878,178.930 83.600,178.600 83.600 C 178.199 83.600,178.000 83.199,178.000 82.387 C 178.000 81.702,177.750 81.079,177.424 80.954 C 177.108 80.833,176.734 80.208,176.593 79.567 C 176.452 78.925,176.081 78.400,175.768 78.400 C 175.456 78.400,175.200 78.062,175.200 77.649 C 175.200 77.236,174.930 76.674,174.600 76.400 C 174.270 76.126,174.000 75.558,174.000 75.138 C 174.000 74.719,173.741 74.276,173.424 74.154 C 173.108 74.033,172.734 73.408,172.593 72.767 C 172.452 72.125,172.081 71.600,171.768 71.600 C 171.437 71.600,171.200 71.204,171.200 70.649 C 171.200 70.126,170.930 69.474,170.600 69.200 C 170.270 68.926,170.000 68.454,170.000 68.151 C 170.000 67.848,169.753 67.600,169.450 67.600 C 169.148 67.600,168.791 67.057,168.659 66.393 C 168.503 65.614,168.074 65.056,167.448 64.818 C 166.914 64.615,166.360 64.258,166.215 64.025 C 166.071 63.791,165.513 63.600,164.976 63.600 C 164.439 63.600,164.000 63.449,164.000 63.264 C 164.000 62.311,159.762 61.623,158.000 62.290 M125.345 88.200 C 125.218 88.530,124.774 88.800,124.357 88.800 C 123.941 88.800,123.600 89.070,123.600 89.400 C 123.600 89.804,123.196 90.000,122.363 90.000 C 121.522 90.000,121.065 90.225,120.937 90.700 C 120.833 91.085,119.860 91.808,118.774 92.308 C 117.688 92.807,116.800 93.392,116.800 93.608 C 116.800 93.823,116.558 94.000,116.262 94.000 C 115.966 94.000,115.398 94.360,115.000 94.800 C 114.602 95.240,114.028 95.600,113.725 95.600 C 113.423 95.600,113.071 95.870,112.945 96.200 C 112.818 96.530,112.464 96.800,112.157 96.800 C 111.851 96.800,111.600 97.070,111.600 97.400 C 111.600 97.733,111.244 98.000,110.800 98.000 C 110.267 98.000,110.000 98.267,110.000 98.800 C 110.000 99.244,109.733 99.600,109.400 99.600 C 109.070 99.600,108.800 99.870,108.800 100.200 C 108.800 100.530,108.530 100.800,108.200 100.800 C 107.870 100.800,107.600 101.070,107.600 101.400 C 107.600 101.733,107.244 102.000,106.800 102.000 C 106.267 102.000,106.000 102.267,106.000 102.800 C 106.000 103.244,105.733 103.600,105.400 103.600 C 105.070 103.600,104.800 103.870,104.800 104.200 C 104.800 104.530,104.530 104.800,104.200 104.800 C 103.870 104.800,103.600 105.027,103.600 105.304 C 103.600 105.581,103.240 106.032,102.800 106.307 C 102.348 106.590,102.000 107.240,102.000 107.803 C 102.000 108.423,101.773 108.800,101.400 108.800 C 100.981 108.800,100.800 109.222,100.800 110.200 C 100.800 111.178,100.619 111.600,100.200 111.600 C 99.805 111.600,99.600 111.995,99.600 112.753 C 99.600 113.570,99.367 113.968,98.800 114.116 C 98.150 114.286,98.000 114.662,98.000 116.114 C 98.000 117.215,97.770 118.093,97.400 118.400 C 96.946 118.777,96.800 119.798,96.800 122.606 C 96.800 125.533,96.674 126.363,96.200 126.545 C 95.705 126.735,95.600 127.791,95.600 132.600 C 95.600 137.409,95.705 138.465,96.200 138.655 C 96.692 138.844,96.800 139.844,96.800 144.194 C 96.800 148.424,96.922 149.603,97.400 150.000 C 97.839 150.365,98.000 151.332,98.000 153.616 C 98.000 157.081,98.219 158.000,99.043 158.000 C 99.470 158.000,99.600 158.704,99.600 161.013 C 99.600 163.321,99.740 164.079,100.200 164.255 C 100.647 164.427,100.800 165.140,100.800 167.055 C 100.800 168.971,100.953 169.684,101.400 169.855 C 101.807 170.012,102.000 170.650,102.000 171.843 C 102.000 173.067,102.243 173.843,102.800 174.400 C 103.365 174.965,103.600 175.733,103.600 177.013 C 103.600 178.255,103.789 178.898,104.200 179.055 C 104.608 179.212,104.800 179.851,104.800 181.055 C 104.800 182.259,104.992 182.899,105.400 183.055 C 105.766 183.196,106.000 183.802,106.000 184.610 C 106.000 186.331,106.350 187.200,107.043 187.200 C 107.437 187.200,107.600 187.730,107.600 189.013 C 107.600 190.255,107.789 190.898,108.200 191.055 C 108.567 191.196,108.800 191.802,108.800 192.614 C 108.800 193.345,109.070 194.213,109.400 194.543 C 109.730 194.873,110.000 195.713,110.000 196.409 C 110.000 197.338,110.213 197.730,110.800 197.884 C 111.421 198.047,111.600 198.430,111.600 199.598 C 111.600 200.447,111.861 201.319,112.200 201.600 C 112.530 201.874,112.800 202.532,112.800 203.062 C 112.800 203.591,113.070 204.129,113.400 204.255 C 113.764 204.395,114.000 205.000,114.000 205.796 C 114.000 206.770,114.205 207.160,114.800 207.316 C 115.437 207.482,115.600 207.862,115.600 209.175 C 115.600 210.273,115.801 210.902,116.200 211.055 C 116.544 211.187,116.800 211.785,116.800 212.455 C 116.800 213.126,117.056 213.723,117.400 213.855 C 117.730 213.982,118.000 214.510,118.000 215.029 C 118.000 215.562,118.347 216.158,118.800 216.400 C 119.324 216.680,119.600 217.238,119.600 218.014 C 119.600 218.802,119.802 219.200,120.200 219.200 C 120.601 219.200,120.800 219.601,120.800 220.413 C 120.800 221.121,121.049 221.721,121.400 221.855 C 121.737 221.985,122.000 222.580,122.000 223.216 C 122.000 223.995,122.249 224.425,122.800 224.600 C 123.360 224.778,123.600 225.205,123.600 226.027 C 123.600 226.803,123.803 227.200,124.200 227.200 C 124.601 227.200,124.800 227.601,124.800 228.413 C 124.800 229.121,125.049 229.721,125.400 229.855 C 125.730 229.982,126.000 230.510,126.000 231.029 C 126.000 231.562,126.347 232.158,126.800 232.400 C 127.272 232.653,127.600 233.238,127.600 233.827 C 127.600 234.376,127.870 234.929,128.200 235.055 C 128.530 235.182,128.800 235.613,128.800 236.014 C 128.800 236.415,129.070 237.013,129.400 237.343 C 129.730 237.673,130.000 238.198,130.000 238.509 C 130.000 238.821,130.360 239.402,130.800 239.800 C 131.240 240.198,131.600 240.856,131.600 241.262 C 131.600 241.668,131.870 242.000,132.200 242.000 C 132.600 242.000,132.800 242.400,132.800 243.200 C 132.800 243.860,132.978 244.400,133.195 244.400 C 133.412 244.400,133.852 245.030,134.174 245.800 C 134.496 246.570,134.948 247.200,135.180 247.200 C 135.411 247.200,135.600 247.476,135.600 247.813 C 135.600 248.149,135.870 248.529,136.200 248.655 C 136.530 248.782,136.800 249.322,136.800 249.855 C 136.800 250.389,137.050 250.921,137.355 251.038 C 137.660 251.155,138.016 251.780,138.145 252.426 C 138.282 253.109,138.635 253.600,138.990 253.600 C 139.333 253.600,139.600 253.950,139.600 254.400 C 139.600 254.844,139.867 255.200,140.200 255.200 C 140.601 255.200,140.800 255.601,140.800 256.413 C 140.800 257.121,141.049 257.721,141.400 257.855 C 141.730 257.982,142.000 258.336,142.000 258.643 C 142.000 258.949,142.360 259.200,142.800 259.200 C 143.424 259.200,143.600 259.467,143.600 260.413 C 143.600 261.121,143.849 261.721,144.200 261.855 C 144.530 261.982,144.800 262.336,144.800 262.643 C 144.800 262.949,145.070 263.200,145.400 263.200 C 145.733 263.200,146.000 263.556,146.000 264.000 C 146.000 264.440,146.360 265.160,146.800 265.600 C 147.240 266.040,147.600 266.580,147.600 266.800 C 147.600 267.020,147.870 267.200,148.200 267.200 C 148.565 267.200,148.800 267.572,148.800 268.151 C 148.800 268.674,149.070 269.326,149.400 269.600 C 149.730 269.874,150.000 270.346,150.000 270.649 C 150.000 270.952,150.360 271.200,150.800 271.200 C 151.318 271.200,151.600 271.467,151.600 271.957 C 151.600 272.374,151.870 272.818,152.200 272.945 C 152.530 273.071,152.800 273.532,152.800 273.968 C 152.800 274.404,153.039 274.904,153.330 275.080 C 153.622 275.256,153.976 275.715,154.118 276.100 C 154.259 276.485,154.631 276.800,154.944 276.800 C 155.257 276.800,155.626 277.250,155.764 277.800 C 155.902 278.350,156.192 278.800,156.408 278.800 C 156.623 278.800,156.800 279.160,156.800 279.600 C 156.800 280.044,157.067 280.400,157.400 280.400 C 157.730 280.400,158.000 280.687,158.000 281.037 C 158.000 281.388,158.343 281.765,158.763 281.874 C 159.183 281.984,159.636 282.372,159.769 282.737 C 160.395 284.441,162.421 287.200,163.046 287.200 C 163.351 287.200,163.600 287.476,163.600 287.813 C 163.600 288.149,163.870 288.529,164.200 288.655 C 164.530 288.782,164.800 289.136,164.800 289.443 C 164.800 289.749,165.070 290.000,165.400 290.000 C 165.730 290.000,166.000 290.227,166.000 290.504 C 166.000 290.781,166.360 291.232,166.800 291.507 C 167.240 291.782,167.600 292.329,167.600 292.722 C 167.600 293.116,168.132 293.879,168.783 294.419 C 169.434 294.958,169.974 295.613,169.983 295.873 C 169.992 296.133,170.360 296.460,170.800 296.600 C 171.240 296.740,171.600 297.112,171.600 297.427 C 171.600 297.742,171.870 298.000,172.200 298.000 C 172.530 298.000,172.800 298.270,172.800 298.600 C 172.800 298.930,173.049 299.200,173.353 299.200 C 173.658 299.200,174.001 299.560,174.116 300.000 C 174.231 300.440,174.612 300.800,174.963 300.800 C 175.313 300.800,175.600 301.070,175.600 301.400 C 175.600 301.730,175.870 302.000,176.200 302.000 C 176.530 302.000,176.800 302.270,176.800 302.600 C 176.800 302.930,177.049 303.200,177.353 303.200 C 177.658 303.200,178.001 303.560,178.116 304.000 C 178.231 304.440,178.569 304.800,178.868 304.800 C 179.166 304.800,179.588 305.205,179.805 305.700 C 180.022 306.195,180.594 306.773,181.075 306.984 C 181.557 307.196,182.035 307.691,182.138 308.084 C 182.241 308.478,182.612 308.800,182.963 308.800 C 183.313 308.800,183.600 309.070,183.600 309.400 C 183.600 309.730,183.870 310.000,184.200 310.000 C 184.530 310.000,184.800 310.270,184.800 310.600 C 184.800 310.930,185.049 311.200,185.353 311.200 C 185.658 311.200,186.001 311.560,186.116 312.000 C 186.231 312.440,186.612 312.800,186.963 312.800 C 187.313 312.800,187.600 313.070,187.600 313.400 C 187.600 313.730,187.870 314.000,188.200 314.000 C 188.530 314.000,188.800 314.270,188.800 314.600 C 188.800 314.930,189.070 315.200,189.400 315.200 C 189.730 315.200,190.000 315.470,190.000 315.800 C 190.000 316.130,190.264 316.400,190.586 316.400 C 190.908 316.400,191.365 316.760,191.600 317.200 C 191.835 317.640,192.270 318.000,192.565 318.000 C 192.860 318.000,193.326 318.270,193.600 318.600 C 193.874 318.930,194.436 319.200,194.849 319.200 C 195.262 319.200,195.600 319.408,195.600 319.662 C 195.600 320.207,198.660 323.200,199.217 323.200 C 199.563 323.200,199.936 323.493,202.034 325.419 C 202.382 325.738,202.858 326.000,203.091 326.000 C 203.324 326.000,203.618 326.270,203.745 326.600 C 203.871 326.930,204.431 327.200,204.987 327.200 C 205.544 327.200,206.008 327.425,206.017 327.700 C 206.036 328.266,208.576 330.000,209.385 330.000 C 209.676 330.000,210.018 330.270,210.145 330.600 C 210.279 330.951,210.879 331.200,211.587 331.200 C 212.357 331.200,212.800 331.403,212.800 331.757 C 212.800 332.369,213.641 332.800,214.833 332.800 C 215.255 332.800,215.600 333.070,215.600 333.400 C 215.600 333.801,216.001 334.000,216.813 334.000 C 217.521 334.000,218.121 334.249,218.255 334.600 C 218.411 335.006,219.048 335.200,220.223 335.200 C 221.441 335.200,222.074 335.403,222.340 335.878 C 222.622 336.383,223.424 336.601,225.460 336.729 C 226.967 336.824,228.555 337.149,228.989 337.451 C 230.096 338.222,238.120 338.222,238.891 337.452 C 239.205 337.138,240.607 336.829,242.168 336.730 C 244.125 336.605,245.037 336.364,245.392 335.878 C 245.721 335.428,246.450 335.200,247.557 335.200 C 248.671 335.200,249.302 335.001,249.455 334.600 C 249.598 334.228,250.207 334.000,251.055 334.000 C 251.904 334.000,252.513 333.772,252.655 333.400 C 252.782 333.070,253.228 332.800,253.647 332.800 C 254.065 332.800,254.716 332.440,255.093 332.000 C 255.473 331.556,256.273 331.200,256.889 331.200 C 257.610 331.200,258.000 330.989,258.000 330.600 C 258.000 330.205,258.395 330.000,259.157 330.000 C 259.794 330.000,260.412 329.747,260.530 329.438 C 260.649 329.128,261.298 328.754,261.973 328.606 C 262.648 328.458,263.200 328.081,263.200 327.768 C 263.200 327.408,263.624 327.200,264.357 327.200 C 265.679 327.200,266.000 326.645,266.000 324.355 C 266.000 323.319,265.793 322.696,265.400 322.545 C 265.070 322.418,264.800 322.092,264.800 321.819 C 264.800 321.547,264.440 320.998,264.000 320.600 C 263.560 320.202,263.200 319.454,263.200 318.938 C 263.200 318.371,262.963 318.000,262.600 318.000 C 262.230 318.000,262.000 317.624,262.000 317.020 C 262.000 316.481,261.771 315.896,261.492 315.720 C 261.212 315.544,260.717 314.874,260.392 314.231 C 259.202 311.881,259.001 311.600,258.505 311.600 C 258.195 311.600,258.000 311.061,258.000 310.200 C 258.000 309.257,257.815 308.800,257.432 308.800 C 257.119 308.800,256.748 308.275,256.607 307.633 C 256.466 306.992,256.092 306.367,255.776 306.246 C 255.459 306.124,255.200 305.681,255.200 305.262 C 255.200 304.842,254.930 304.274,254.600 304.000 C 254.270 303.726,254.000 303.248,254.000 302.938 C 254.000 302.629,253.750 302.279,253.445 302.162 C 253.140 302.045,252.784 301.420,252.655 300.774 C 252.518 300.091,252.165 299.600,251.810 299.600 C 251.401 299.600,251.200 299.211,251.200 298.420 C 251.200 297.771,250.975 297.096,250.700 296.920 C 250.424 296.744,249.782 295.745,249.272 294.700 C 248.761 293.655,248.087 292.800,247.772 292.800 C 247.402 292.800,247.200 292.372,247.200 291.587 C 247.200 290.879,246.951 290.279,246.600 290.145 C 246.270 290.018,246.000 289.587,246.000 289.186 C 246.000 288.785,245.765 288.219,245.478 287.929 C 245.190 287.638,244.836 287.085,244.690 286.700 C 244.544 286.315,244.091 286.000,243.682 286.000 C 243.083 286.000,242.973 285.766,243.115 284.800 C 243.248 283.890,243.135 283.600,242.645 283.600 C 242.197 283.600,242.000 283.239,242.000 282.420 C 242.000 281.771,241.771 281.096,241.492 280.920 C 241.212 280.744,240.766 280.105,240.500 279.500 C 240.235 278.895,239.833 278.400,239.609 278.400 C 239.384 278.400,239.200 278.040,239.200 277.600 C 239.200 277.156,238.933 276.800,238.600 276.800 C 238.199 276.800,238.000 276.399,238.000 275.587 C 238.000 274.902,237.750 274.279,237.424 274.154 C 237.108 274.033,236.734 273.408,236.593 272.767 C 236.452 272.125,236.081 271.600,235.768 271.600 C 235.456 271.600,235.200 271.262,235.200 270.849 C 235.200 270.436,234.930 269.874,234.600 269.600 C 234.270 269.326,234.000 268.764,234.000 268.351 C 234.000 267.938,233.750 267.600,233.445 267.600 C 233.126 267.600,232.777 267.002,232.626 266.200 C 232.469 265.362,232.130 264.800,231.782 264.800 C 231.402 264.800,231.200 264.383,231.200 263.600 C 231.200 262.800,231.000 262.400,230.600 262.400 C 230.267 262.400,230.000 262.044,230.000 261.600 C 230.000 261.160,229.834 260.800,229.631 260.800 C 229.428 260.800,229.054 260.170,228.800 259.400 C 228.227 257.664,224.139 257.182,223.716 258.800 C 223.547 259.448,223.170 259.600,221.741 259.600 C 220.540 259.600,219.901 259.792,219.745 260.200 C 219.555 260.693,218.533 260.800,214.000 260.800 C 209.467 260.800,208.445 260.693,208.255 260.200 C 208.103 259.804,207.477 259.600,206.413 259.600 C 205.333 259.600,204.535 259.335,204.000 258.800 C 203.560 258.360,202.744 258.000,202.187 258.000 C 201.631 258.000,201.071 257.730,200.945 257.400 C 200.818 257.070,200.361 256.800,199.929 256.800 C 199.496 256.800,198.873 256.530,198.543 256.200 C 198.213 255.870,197.617 255.600,197.218 255.600 C 196.819 255.600,196.399 255.240,196.284 254.800 C 196.143 254.259,195.738 254.000,195.037 254.000 C 194.382 254.000,194.000 253.779,194.000 253.400 C 194.000 253.070,193.749 252.800,193.443 252.800 C 193.136 252.800,192.782 252.530,192.655 252.200 C 192.529 251.870,192.149 251.600,191.813 251.600 C 191.476 251.600,191.194 251.375,191.188 251.100 C 191.181 250.825,190.326 249.970,189.288 249.200 C 188.249 248.430,187.041 247.350,186.602 246.800 C 186.163 246.250,185.218 245.209,184.502 244.487 C 183.786 243.764,183.200 242.999,183.200 242.787 C 183.200 242.574,182.930 242.400,182.600 242.400 C 182.270 242.400,182.000 242.196,182.000 241.946 C 182.000 241.412,180.130 239.600,179.579 239.600 C 179.371 239.600,179.200 239.240,179.200 238.800 C 179.200 238.360,178.950 238.000,178.643 238.000 C 178.337 238.000,177.984 237.595,177.858 237.100 C 177.732 236.605,177.083 235.604,176.415 234.875 C 175.747 234.147,175.200 233.382,175.200 233.175 C 175.200 232.969,174.930 232.800,174.600 232.800 C 174.263 232.800,174.000 232.443,174.000 231.984 C 174.000 230.980,172.442 228.800,171.725 228.800 C 171.410 228.800,171.200 228.327,171.200 227.620 C 171.200 226.971,170.975 226.296,170.700 226.120 C 170.424 225.944,169.792 224.965,169.293 223.944 C 168.795 222.923,168.120 221.866,167.794 221.595 C 167.467 221.324,167.200 220.786,167.200 220.400 C 167.200 220.014,166.930 219.474,166.600 219.200 C 166.270 218.926,166.000 218.351,166.000 217.922 C 166.000 217.494,165.730 216.873,165.400 216.543 C 165.070 216.213,164.800 215.630,164.800 215.247 C 164.800 214.864,164.440 214.164,164.000 213.692 C 163.560 213.220,163.200 212.305,163.200 211.660 C 163.200 210.985,162.945 210.388,162.600 210.255 C 162.270 210.129,162.000 209.552,162.000 208.974 C 162.000 208.396,161.742 207.446,161.426 206.862 C 161.111 206.278,160.747 205.305,160.619 204.700 C 160.490 204.095,160.118 203.600,159.792 203.600 C 159.335 203.600,159.200 203.051,159.200 201.187 C 159.200 199.412,159.042 198.714,158.600 198.545 C 158.185 198.385,158.000 197.738,158.000 196.446 C 158.000 195.419,157.756 194.223,157.459 193.789 C 157.161 193.355,156.808 191.402,156.675 189.449 C 156.514 187.099,156.224 185.668,155.816 185.218 C 154.914 184.221,154.921 175.692,155.824 175.032 C 156.254 174.717,156.521 173.614,156.682 171.488 C 156.850 169.271,157.068 168.400,157.458 168.400 C 157.795 168.400,158.000 167.941,158.000 167.187 C 158.000 166.479,158.249 165.879,158.600 165.745 C 158.942 165.613,159.200 165.017,159.200 164.357 C 159.200 163.624,159.408 163.200,159.768 163.200 C 160.081 163.200,160.452 162.675,160.593 162.033 C 160.734 161.392,161.128 160.760,161.470 160.629 C 161.839 160.487,162.012 160.089,161.896 159.646 C 161.747 159.075,161.876 158.947,162.451 159.097 C 162.955 159.229,163.200 159.082,163.200 158.647 C 163.200 158.285,163.525 158.000,163.939 158.000 C 164.345 158.000,165.093 157.640,165.600 157.200 C 166.107 156.760,166.675 156.400,166.861 156.400 C 167.048 156.400,167.200 155.320,167.200 154.000 C 167.200 152.230,167.056 151.600,166.650 151.600 C 166.347 151.600,165.997 151.083,165.870 150.451 C 165.744 149.819,165.091 148.753,164.420 148.082 C 163.691 147.353,163.200 146.447,163.200 145.831 C 163.200 145.181,162.978 144.800,162.600 144.800 C 162.235 144.800,162.000 144.428,162.000 143.849 C 162.000 143.326,161.730 142.674,161.400 142.400 C 161.070 142.126,160.800 141.682,160.800 141.413 C 160.800 141.144,160.440 140.598,160.000 140.200 C 159.560 139.802,159.200 139.144,159.200 138.738 C 159.200 138.332,158.930 138.000,158.600 138.000 C 158.200 138.000,158.000 137.600,158.000 136.800 C 158.000 136.000,157.800 135.600,157.400 135.600 C 157.067 135.600,156.800 135.244,156.800 134.800 C 156.800 134.360,156.440 133.640,156.000 133.200 C 155.560 132.760,155.200 132.242,155.200 132.049 C 155.200 131.856,154.930 131.474,154.600 131.200 C 154.270 130.926,154.000 130.274,154.000 129.751 C 154.000 129.172,153.765 128.800,153.400 128.800 C 153.067 128.800,152.800 128.444,152.800 128.000 C 152.800 127.560,152.440 126.840,152.000 126.400 C 151.560 125.960,151.200 125.234,151.200 124.787 C 151.200 124.341,150.930 123.871,150.600 123.745 C 150.270 123.618,150.000 123.174,150.000 122.757 C 150.000 122.341,149.742 122.000,149.427 122.000 C 149.098 122.000,148.799 121.530,148.727 120.900 C 148.634 120.098,148.382 119.806,147.797 119.821 C 147.105 119.840,147.014 119.631,147.139 118.321 C 147.250 117.161,147.139 116.800,146.674 116.800 C 146.321 116.800,145.952 116.294,145.800 115.600 C 145.655 114.940,145.392 114.400,145.215 114.400 C 145.038 114.400,144.799 114.040,144.684 113.600 C 144.567 113.150,144.138 112.800,143.707 112.800 C 143.081 112.800,142.971 112.578,143.114 111.605 C 143.238 110.759,143.101 110.337,142.645 110.162 C 142.290 110.026,142.000 109.478,142.000 108.945 C 142.000 108.411,141.730 107.871,141.400 107.745 C 141.070 107.618,140.800 107.298,140.800 107.033 C 140.800 106.768,140.440 106.164,140.000 105.692 C 139.560 105.220,139.200 104.556,139.200 104.217 C 139.200 103.878,138.930 103.600,138.600 103.600 C 138.199 103.600,138.000 103.199,138.000 102.387 C 138.000 101.702,137.750 101.079,137.424 100.954 C 137.108 100.833,136.737 100.223,136.600 99.600 C 136.463 98.977,136.092 98.367,135.776 98.246 C 135.459 98.124,135.200 97.771,135.200 97.462 C 135.200 97.152,134.930 96.674,134.600 96.400 C 134.270 96.126,134.000 95.558,134.000 95.138 C 134.000 94.719,133.741 94.276,133.424 94.154 C 133.108 94.033,132.734 93.408,132.593 92.767 C 132.452 92.125,132.081 91.600,131.768 91.600 C 131.437 91.600,131.200 91.204,131.200 90.649 C 131.200 90.126,130.930 89.474,130.600 89.200 C 130.270 88.926,130.000 88.454,130.000 88.151 C 130.000 87.334,125.660 87.379,125.345 88.200 M254.400 232.200 C 254.400 232.601,253.999 232.800,253.187 232.800 C 252.479 232.800,251.879 233.049,251.745 233.400 C 251.618 233.730,251.175 234.000,250.761 234.000 C 250.346 234.000,249.782 234.360,249.507 234.800 C 249.232 235.240,248.691 235.600,248.304 235.600 C 247.917 235.600,247.600 235.870,247.600 236.200 C 247.600 236.601,247.199 236.800,246.387 236.800 C 245.679 236.800,245.079 237.049,244.945 237.400 C 244.818 237.730,244.372 238.000,243.953 238.000 C 243.535 238.000,242.884 238.360,242.507 238.800 C 242.130 239.240,241.614 239.600,241.360 239.600 C 241.106 239.600,240.674 239.870,240.400 240.200 C 240.126 240.530,239.558 240.800,239.138 240.800 C 238.719 240.800,238.271 241.070,238.145 241.400 C 238.018 241.730,237.467 242.000,236.920 242.000 C 236.262 242.000,235.854 242.271,235.716 242.800 C 235.580 243.321,235.170 243.600,234.541 243.600 C 234.010 243.600,233.478 243.852,233.360 244.161 C 233.241 244.469,232.797 244.812,232.372 244.923 C 231.948 245.034,231.600 245.462,231.600 245.874 C 231.600 246.286,231.240 246.883,230.800 247.200 C 230.287 247.570,230.000 248.235,230.000 249.055 C 230.000 249.758,229.802 250.399,229.561 250.480 C 228.786 250.738,228.627 254.170,229.356 254.899 C 229.710 255.253,230.000 256.096,230.000 256.771 C 230.000 257.733,230.174 258.000,230.800 258.000 C 231.424 258.000,231.600 258.267,231.600 259.213 C 231.600 259.921,231.849 260.521,232.200 260.655 C 232.530 260.782,232.800 261.322,232.800 261.855 C 232.800 262.389,233.050 262.921,233.355 263.038 C 233.660 263.155,234.016 263.780,234.145 264.426 C 234.282 265.109,234.635 265.600,234.990 265.600 C 235.333 265.600,235.600 265.950,235.600 266.400 C 235.600 266.844,235.867 267.200,236.200 267.200 C 236.601 267.200,236.800 267.601,236.800 268.413 C 236.800 269.079,237.050 269.721,237.355 269.838 C 237.660 269.955,238.020 270.601,238.154 271.272 C 238.342 272.208,238.571 272.449,239.133 272.302 C 239.713 272.150,239.833 272.295,239.700 272.992 C 239.607 273.477,239.816 274.159,240.165 274.508 C 240.514 274.857,240.800 275.431,240.800 275.784 C 240.800 276.137,241.070 276.529,241.400 276.655 C 241.730 276.782,242.000 277.333,242.000 277.880 C 242.000 278.538,242.271 278.946,242.800 279.084 C 243.358 279.230,243.600 279.630,243.600 280.404 C 243.600 281.022,243.866 281.616,244.200 281.745 C 244.530 281.871,244.800 282.229,244.800 282.538 C 244.800 282.848,245.070 283.326,245.400 283.600 C 245.730 283.874,246.000 284.453,246.000 284.886 C 246.000 285.338,246.341 285.764,246.800 285.884 C 247.367 286.032,247.600 286.430,247.600 287.247 C 247.600 288.005,247.805 288.400,248.200 288.400 C 248.530 288.400,248.800 288.664,248.800 288.988 C 248.800 289.991,250.451 292.800,251.040 292.800 C 251.396 292.800,251.600 293.238,251.600 294.000 C 251.600 294.800,251.800 295.200,252.200 295.200 C 252.598 295.200,252.800 295.598,252.800 296.380 C 252.800 297.029,253.029 297.704,253.308 297.880 C 253.588 298.056,254.034 298.695,254.300 299.300 C 254.565 299.905,254.967 300.400,255.191 300.400 C 255.416 300.400,255.600 300.760,255.600 301.200 C 255.600 301.644,255.867 302.000,256.200 302.000 C 256.595 302.000,256.800 302.395,256.800 303.157 C 256.800 303.794,257.044 304.408,257.343 304.523 C 257.642 304.637,257.997 305.287,258.133 305.966 C 258.279 306.697,258.628 307.200,258.990 307.200 C 259.326 307.200,259.600 307.538,259.600 307.951 C 259.600 308.364,259.870 308.926,260.200 309.200 C 260.530 309.474,260.800 310.036,260.800 310.449 C 260.800 310.862,261.070 311.200,261.400 311.200 C 261.804 311.200,262.000 311.604,262.000 312.437 C 262.000 313.338,262.217 313.732,262.800 313.884 C 263.321 314.020,263.600 314.430,263.600 315.059 C 263.600 315.590,263.870 316.129,264.200 316.255 C 264.530 316.382,264.800 316.807,264.800 317.200 C 264.800 317.593,265.070 318.018,265.400 318.145 C 265.730 318.271,266.000 318.818,266.000 319.360 C 266.000 319.995,266.285 320.437,266.800 320.600 C 267.240 320.740,267.600 321.112,267.600 321.427 C 267.600 321.742,267.870 322.000,268.200 322.000 C 268.530 322.000,268.800 322.270,268.800 322.600 C 268.800 322.989,269.190 323.200,269.911 323.200 C 270.545 323.200,271.331 323.561,271.742 324.041 C 272.707 325.168,278.602 325.054,279.250 323.896 C 279.465 323.513,280.086 323.200,280.632 323.200 C 281.178 323.200,281.729 322.930,281.855 322.600 C 281.982 322.270,282.522 322.000,283.055 322.000 C 283.589 322.000,284.129 321.730,284.255 321.400 C 284.382 321.070,284.708 320.800,284.981 320.800 C 285.253 320.800,285.802 320.440,286.200 320.000 C 286.598 319.560,287.262 319.200,287.675 319.200 C 288.087 319.200,288.529 318.930,288.655 318.600 C 288.782 318.270,289.322 318.000,289.855 318.000 C 290.389 318.000,290.924 317.741,291.046 317.424 C 291.167 317.108,291.777 316.737,292.400 316.600 C 293.023 316.463,293.633 316.092,293.754 315.776 C 293.876 315.459,294.251 315.200,294.587 315.200 C 294.924 315.200,295.200 314.930,295.200 314.600 C 295.200 314.199,295.601 314.000,296.413 314.000 C 297.098 314.000,297.721 313.750,297.846 313.424 C 297.967 313.108,298.592 312.734,299.233 312.593 C 299.875 312.452,300.400 312.102,300.400 311.815 C 300.400 311.528,300.760 311.199,301.200 311.084 C 301.683 310.958,302.000 310.538,302.000 310.025 C 302.000 309.557,302.270 309.071,302.600 308.945 C 302.974 308.801,303.200 308.191,303.200 307.329 C 303.200 306.566,303.470 305.673,303.800 305.343 C 304.130 305.013,304.400 304.139,304.400 303.400 C 304.400 302.661,304.130 301.787,303.800 301.457 C 303.470 301.127,303.200 300.299,303.200 299.616 C 303.200 298.882,302.955 298.281,302.600 298.145 C 302.270 298.018,302.000 297.493,302.000 296.977 C 302.000 296.462,301.771 295.896,301.492 295.720 C 301.212 295.544,300.717 294.874,300.392 294.231 C 299.202 291.881,299.001 291.600,298.505 291.600 C 298.195 291.600,298.000 291.061,298.000 290.200 C 298.000 289.257,297.815 288.800,297.432 288.800 C 297.119 288.800,296.748 288.275,296.607 287.633 C 296.466 286.992,296.092 286.367,295.776 286.246 C 295.459 286.124,295.200 285.681,295.200 285.262 C 295.200 284.842,294.930 284.274,294.600 284.000 C 294.270 283.726,294.000 283.248,294.000 282.938 C 294.000 282.629,293.750 282.279,293.445 282.162 C 293.140 282.045,292.784 281.420,292.655 280.774 C 292.518 280.091,292.165 279.600,291.810 279.600 C 291.397 279.600,291.200 279.207,291.200 278.387 C 291.200 277.679,290.951 277.079,290.600 276.945 C 290.270 276.818,290.000 276.486,290.000 276.206 C 290.000 275.927,289.730 275.474,289.400 275.200 C 289.070 274.926,288.800 274.347,288.800 273.914 C 288.800 273.462,288.459 273.036,288.000 272.916 C 287.431 272.767,287.200 272.370,287.200 271.541 C 287.200 270.873,286.943 270.276,286.600 270.145 C 286.270 270.018,286.000 269.584,286.000 269.181 C 286.000 268.777,285.809 268.329,285.575 268.185 C 285.342 268.040,284.986 267.490,284.785 266.961 C 284.584 266.433,284.145 266.000,283.810 266.000 C 283.399 266.000,283.200 265.609,283.200 264.800 C 283.200 264.000,283.000 263.600,282.600 263.600 C 282.202 263.600,282.000 263.202,282.000 262.420 C 282.000 261.771,281.771 261.096,281.492 260.920 C 281.212 260.744,280.766 260.105,280.500 259.500 C 280.235 258.895,279.833 258.400,279.609 258.400 C 279.384 258.400,279.200 258.040,279.200 257.600 C 279.200 257.156,278.933 256.800,278.600 256.800 C 278.199 256.800,278.000 256.399,278.000 255.587 C 278.000 254.902,277.750 254.279,277.424 254.154 C 277.108 254.033,276.734 253.408,276.593 252.767 C 276.452 252.125,276.081 251.600,275.768 251.600 C 275.456 251.600,275.200 251.262,275.200 250.849 C 275.200 250.436,274.930 249.874,274.600 249.600 C 274.270 249.326,274.000 248.764,274.000 248.351 C 274.000 247.938,273.750 247.600,273.445 247.600 C 273.126 247.600,272.777 247.002,272.626 246.200 C 272.469 245.362,272.130 244.800,271.782 244.800 C 271.402 244.800,271.200 244.383,271.200 243.600 C 271.200 242.800,271.000 242.400,270.600 242.400 C 270.267 242.400,270.000 242.044,270.000 241.600 C 270.000 241.160,269.834 240.800,269.631 240.800 C 269.428 240.800,269.054 240.170,268.800 239.400 C 268.546 238.630,268.082 238.000,267.769 238.000 C 267.403 238.000,267.200 237.571,267.200 236.800 C 267.200 236.045,266.995 235.600,266.647 235.600 C 266.342 235.600,265.999 235.240,265.884 234.800 C 265.769 234.360,265.388 234.000,265.037 234.000 C 264.687 234.000,264.400 233.730,264.400 233.400 C 264.400 233.005,264.005 232.800,263.243 232.800 C 262.583 232.800,261.987 232.542,261.855 232.200 C 261.674 231.728,260.855 231.600,258.013 231.600 C 255.068 231.600,254.400 231.711,254.400 232.200 " stroke="none" fill="#043c7c" fill-rule="evenodd"></path><path id="path1" d="" stroke="none" fill="#043c84" fill-rule="evenodd"></path><path id="path2" d="" stroke="none" fill="#044483" fill-rule="evenodd"></path><path id="path3" d="" stroke="none" fill="#083c7c" fill-rule="evenodd"></path><path id="path4" d="" stroke="none" fill="#083c7c" fill-rule="evenodd"></path><path id="path5" d="" stroke="none" fill="#083c7c" fill-rule="evenodd"></path><path id="path6" d="" stroke="none" fill="#083c7c" fill-rule="evenodd"></path></g></svg>