<svg id="svg" version="1.1" width="400" height="400" viewBox="0 0 400 400" xmlns="http://www.w3.org/2000/svg" xmlns:xlink="http://www.w3.org/1999/xlink" ><g id="svgg"><path id="path0" d="M54.400 50.802 C 50.263 51.718,48.533 52.000,47.045 52.003 C 46.077 52.004,44.906 52.332,44.200 52.800 C 43.540 53.237,42.450 53.596,41.778 53.597 C 41.105 53.599,39.945 54.050,39.200 54.600 C 38.455 55.150,37.528 55.600,37.140 55.600 C 36.753 55.600,35.772 56.050,34.962 56.600 C 34.151 57.150,33.243 57.600,32.944 57.600 C 32.645 57.600,32.400 57.753,32.400 57.939 C 32.400 58.126,31.680 58.603,30.800 59.000 C 29.920 59.397,29.200 59.855,29.200 60.017 C 29.200 60.180,28.763 60.423,28.228 60.557 C 27.693 60.691,27.014 61.026,26.718 61.301 C 25.614 62.326,22.837 64.400,22.569 64.400 C 21.554 64.400,13.026 74.268,10.811 78.006 C 9.231 80.671,5.600 88.187,5.600 88.792 C 5.600 89.169,5.265 89.864,4.856 90.335 C 4.447 90.807,4.003 92.117,3.869 93.247 C 3.735 94.377,3.305 95.773,2.913 96.351 C 1.821 97.957,1.800 300.424,2.891 302.089 C 3.271 302.669,3.685 303.921,3.812 304.872 C 4.029 306.503,4.291 307.207,6.311 311.600 C 6.767 312.590,7.264 313.850,7.417 314.400 C 7.570 314.950,7.925 315.670,8.207 316.000 C 8.490 316.330,9.015 317.230,9.374 318.000 C 10.166 319.695,11.312 321.588,13.277 324.450 C 14.859 326.755,23.592 335.600,24.285 335.600 C 24.514 335.600,24.937 335.884,25.225 336.230 C 25.513 336.577,27.064 337.583,28.672 338.465 C 30.280 339.348,31.690 340.221,31.804 340.406 C 31.918 340.591,32.679 340.962,33.495 341.231 C 34.310 341.500,35.221 341.964,35.518 342.260 C 35.814 342.557,36.380 342.800,36.775 342.800 C 37.169 342.800,37.921 343.134,38.446 343.542 C 38.971 343.950,40.120 344.415,41.000 344.576 C 41.880 344.736,42.905 345.141,43.277 345.475 C 43.659 345.818,45.279 346.232,46.983 346.423 C 48.648 346.610,50.409 347.041,50.895 347.381 C 52.259 348.337,347.179 348.321,349.000 347.366 C 349.660 347.019,351.407 346.606,352.882 346.446 C 354.388 346.284,355.878 345.879,356.282 345.522 C 356.677 345.173,357.810 344.754,358.800 344.592 C 359.790 344.430,361.029 343.961,361.554 343.549 C 362.079 343.137,362.804 342.800,363.165 342.800 C 363.526 342.800,364.209 342.529,364.681 342.198 C 365.154 341.867,366.769 340.948,368.270 340.156 C 369.772 339.364,372.056 338.014,373.346 337.158 C 374.636 336.301,375.784 335.600,375.897 335.600 C 376.010 335.600,378.244 333.395,380.862 330.700 C 387.123 324.253,387.200 324.169,387.200 323.789 C 387.200 323.610,387.515 323.116,387.900 322.691 C 388.639 321.877,389.522 320.263,391.563 316.000 C 392.248 314.570,393.166 312.734,393.604 311.921 C 394.042 311.107,394.400 310.138,394.400 309.768 C 394.400 309.398,394.744 308.533,395.165 307.847 C 395.586 307.161,396.055 305.700,396.208 304.600 C 396.361 303.500,396.756 302.172,397.085 301.650 C 398.219 299.850,398.366 288.201,398.370 199.200 C 398.375 111.814,398.214 99.169,397.071 96.918 C 396.759 96.303,396.375 94.900,396.217 93.800 C 396.059 92.700,395.586 91.239,395.165 90.553 C 394.744 89.867,394.400 88.935,394.400 88.481 C 394.400 88.028,394.130 87.387,393.800 87.057 C 393.470 86.727,393.200 86.329,393.200 86.173 C 393.200 85.917,390.894 81.181,389.097 77.744 C 388.710 77.005,388.215 76.400,387.997 76.400 C 387.779 76.400,387.600 76.128,387.600 75.796 C 387.600 75.464,387.105 74.652,386.500 73.991 C 385.895 73.330,385.040 72.337,384.600 71.784 C 381.941 68.442,374.607 61.927,372.200 60.769 C 371.760 60.557,370.590 59.857,369.600 59.213 C 368.610 58.569,367.058 57.693,366.152 57.267 C 365.245 56.840,364.379 56.290,364.228 56.045 C 364.077 55.800,363.538 55.600,363.030 55.600 C 362.523 55.600,361.669 55.255,361.133 54.833 C 360.596 54.411,359.447 53.935,358.579 53.774 C 357.710 53.614,356.373 53.149,355.606 52.741 C 354.839 52.334,353.489 51.997,352.606 51.994 C 351.723 51.990,349.308 51.630,347.239 51.194 C 343.299 50.362,58.111 49.980,54.400 50.802 M331.626 89.214 C 333.539 90.237,333.067 90.883,322.434 101.800 C 319.005 105.320,315.727 108.740,315.149 109.400 C 314.571 110.060,313.041 111.595,311.749 112.811 C 310.457 114.027,308.320 116.266,307.000 117.786 C 305.002 120.088,299.930 125.271,297.921 127.066 C 297.635 127.322,296.320 128.762,295.000 130.266 C 293.680 131.770,290.530 135.081,288.000 137.624 C 285.470 140.167,282.410 143.328,281.200 144.649 C 276.914 149.329,276.442 149.825,274.007 152.200 C 272.654 153.520,270.614 155.667,269.474 156.971 C 267.340 159.412,262.604 164.195,258.646 167.907 C 257.411 169.066,256.400 170.193,256.400 170.410 C 256.400 170.720,252.080 175.139,246.440 180.600 C 246.213 180.820,245.076 182.080,243.915 183.400 C 242.753 184.720,239.372 188.331,236.401 191.425 C 233.431 194.518,229.470 198.699,227.600 200.716 C 225.730 202.733,223.894 204.486,223.520 204.612 C 223.147 204.738,222.733 205.183,222.600 205.600 C 222.467 206.017,222.017 206.467,221.600 206.600 C 221.183 206.733,220.730 207.192,220.594 207.620 C 220.457 208.049,220.088 208.400,219.773 208.400 C 219.458 208.400,219.200 208.619,219.200 208.886 C 219.200 209.475,219.238 209.434,211.342 217.400 C 207.852 220.920,204.368 224.647,203.599 225.681 C 200.859 229.365,199.291 229.194,195.509 224.800 C 194.089 223.150,190.288 219.148,187.063 215.906 C 183.839 212.664,181.196 209.784,181.191 209.506 C 181.187 209.228,180.536 208.460,179.746 207.800 C 175.740 204.452,155.019 182.821,154.243 181.175 C 154.046 180.758,153.583 180.322,153.213 180.204 C 152.454 179.963,145.726 173.129,143.596 170.435 C 142.828 169.465,141.482 168.025,140.603 167.235 C 138.061 164.950,133.159 159.971,131.200 157.685 C 130.210 156.530,128.435 154.643,127.256 153.492 C 123.126 149.463,122.187 148.503,120.475 146.559 C 119.526 145.481,116.196 141.975,113.075 138.767 C 105.564 131.048,102.400 127.608,102.400 127.165 C 102.400 126.964,102.161 126.800,101.869 126.800 C 101.578 126.800,99.643 124.973,97.569 122.740 C 95.496 120.507,91.460 116.269,88.600 113.322 C 85.740 110.375,82.877 107.387,82.239 106.682 C 81.600 105.977,78.109 102.347,74.482 98.616 C 67.853 91.798,66.763 90.242,67.968 89.313 C 68.806 88.666,330.420 88.569,331.626 89.214 M44.800 123.298 C 46.230 124.880,50.370 129.244,54.000 132.996 C 67.673 147.128,76.706 156.557,88.038 168.529 C 89.667 170.250,93.275 173.984,96.055 176.827 C 110.182 191.270,116.362 197.911,116.615 198.918 C 116.985 200.390,116.322 201.329,111.237 206.547 C 105.912 212.011,104.162 213.846,98.200 220.227 C 93.035 225.755,85.515 233.616,81.000 238.207 C 72.561 246.789,63.793 255.885,60.800 259.162 C 58.930 261.210,55.420 264.909,53.000 267.381 C 50.580 269.853,47.083 273.531,45.228 275.555 L 41.856 279.234 41.028 278.406 L 40.200 277.578 40.200 199.374 C 40.200 130.295,40.270 121.127,40.800 120.792 C 41.820 120.147,42.122 120.335,44.800 123.298 M359.610 121.426 C 360.058 122.605,360.091 275.982,359.644 277.600 C 359.109 279.535,357.978 279.036,354.594 275.375 C 352.837 273.475,349.150 269.632,346.400 266.836 C 343.650 264.040,340.050 260.303,338.400 258.531 C 333.081 252.819,323.904 243.174,320.000 239.191 C 313.378 232.436,303.522 222.249,300.000 218.522 C 298.130 216.543,295.333 213.589,293.783 211.958 C 292.234 210.327,290.535 208.410,290.008 207.697 C 289.481 206.983,288.911 206.400,288.741 206.400 C 288.429 206.400,285.795 203.676,283.834 201.324 C 281.995 199.120,281.452 199.804,300.432 180.407 C 305.364 175.367,310.840 169.669,312.600 167.745 C 314.360 165.821,317.330 162.681,319.200 160.767 C 321.070 158.853,324.038 155.782,325.795 153.943 C 327.553 152.105,333.701 145.740,339.457 139.800 C 345.214 133.860,350.346 128.528,350.862 127.952 C 358.034 119.937,358.821 119.350,359.610 121.426 M150.903 233.846 C 153.157 236.168,155.135 238.307,155.300 238.599 C 155.465 238.890,158.255 241.839,161.500 245.152 C 164.745 248.464,170.100 253.988,173.400 257.427 C 182.977 267.407,188.769 273.136,189.926 273.770 C 194.864 276.479,200.710 277.517,203.789 276.230 C 204.619 275.884,205.684 275.600,206.156 275.600 C 206.628 275.600,207.677 275.150,208.486 274.600 C 209.295 274.050,210.139 273.600,210.360 273.600 C 210.934 273.600,225.517 258.809,236.800 246.783 C 239.110 244.321,241.810 241.457,242.800 240.417 C 243.790 239.378,246.490 236.502,248.800 234.026 C 253.285 229.219,254.752 228.129,255.904 228.753 C 256.991 229.341,268.724 241.297,269.926 243.041 C 270.516 243.898,271.170 244.672,271.379 244.760 C 271.961 245.005,291.888 265.389,296.200 270.150 C 298.146 272.299,307.215 281.707,314.049 288.668 C 317.542 292.225,320.400 295.241,320.400 295.371 C 320.400 295.500,322.920 298.104,326.000 301.158 C 331.851 306.959,332.614 308.229,330.826 309.186 C 329.705 309.786,70.253 309.763,69.131 309.163 C 67.420 308.247,68.439 306.594,74.208 300.928 C 77.173 298.015,79.600 295.521,79.600 295.387 C 79.600 295.253,82.359 292.321,85.731 288.871 C 89.104 285.422,93.063 281.340,94.530 279.800 C 95.997 278.260,99.223 274.872,101.699 272.270 C 106.335 267.400,113.871 259.757,114.848 258.936 C 115.152 258.681,116.210 257.524,117.200 256.366 C 120.318 252.717,128.168 244.800,128.667 244.800 C 128.931 244.800,129.260 244.441,129.399 244.002 C 129.842 242.606,142.103 229.957,143.988 228.951 C 145.312 228.244,145.814 228.600,150.903 233.846 " stroke="none" fill="#050584" fill-rule="evenodd"></path><path id="path1" d="M382.200 68.400 C 383.283 69.500,384.260 70.400,384.370 70.400 C 384.480 70.400,383.683 69.500,382.600 68.400 C 381.517 67.300,380.540 66.400,380.430 66.400 C 380.320 66.400,381.117 67.300,382.200 68.400 M69.149 90.300 C 68.671 90.909,68.678 90.940,69.200 90.538 C 69.530 90.284,70.250 89.994,70.800 89.893 L 71.800 89.709 70.749 89.654 C 70.170 89.624,69.452 89.914,69.149 90.300 M329.200 89.893 C 329.750 89.994,330.470 90.284,330.800 90.538 C 331.322 90.940,331.329 90.909,330.851 90.300 C 330.548 89.914,329.830 89.624,329.251 89.654 L 328.200 89.709 329.200 89.893 M78.200 101.600 C 79.283 102.700,80.260 103.600,80.370 103.600 C 80.480 103.600,79.683 102.700,78.600 101.600 C 77.517 100.500,76.540 99.600,76.430 99.600 C 76.320 99.600,77.117 100.500,78.200 101.600 M320.581 102.500 L 319.000 104.200 320.700 102.619 C 322.281 101.148,322.584 100.800,322.281 100.800 C 322.216 100.800,321.451 101.565,320.581 102.500 M0.000 199.200 C 0.000 282.133,0.068 292.800,0.600 292.800 C 1.132 292.800,1.200 282.133,1.200 199.200 C 1.200 116.267,1.132 105.600,0.600 105.600 C 0.068 105.600,0.000 116.267,0.000 199.200 M399.200 199.200 C 399.200 258.400,399.335 288.400,399.600 288.400 C 399.865 288.400,400.000 258.400,400.000 199.200 C 400.000 140.000,399.865 110.000,399.600 110.000 C 399.335 110.000,399.200 140.000,399.200 199.200 M345.588 134.300 L 343.000 137.000 345.700 134.412 C 347.185 132.988,348.400 131.773,348.400 131.712 C 348.400 131.417,347.993 131.792,345.588 134.300 M275.775 149.300 L 274.600 150.600 275.900 149.425 C 276.615 148.779,277.200 148.194,277.200 148.125 C 277.200 147.816,276.870 148.088,275.775 149.300 M178.600 264.000 C 179.459 264.880,180.252 265.600,180.362 265.600 C 180.472 265.600,179.859 264.880,179.000 264.000 C 178.141 263.120,177.348 262.400,177.238 262.400 C 177.128 262.400,177.741 263.120,178.600 264.000 M298.600 274.000 C 299.459 274.880,300.252 275.600,300.362 275.600 C 300.472 275.600,299.859 274.880,299.000 274.000 C 298.141 273.120,297.348 272.400,297.238 272.400 C 297.128 272.400,297.741 273.120,298.600 274.000 M96.378 278.700 L 95.000 280.200 96.500 278.822 C 97.896 277.538,98.184 277.200,97.878 277.200 C 97.812 277.200,97.137 277.875,96.378 278.700 " stroke="none" fill="#7c7cbc" fill-rule="evenodd"></path><path id="path2" d="M0.000 50.800 C 0.000 93.295,0.089 101.600,0.542 101.600 C 0.933 101.600,1.162 100.677,1.360 98.303 C 1.511 96.490,1.874 94.641,2.167 94.194 C 2.459 93.748,2.829 92.576,2.988 91.591 C 3.147 90.606,3.502 89.440,3.778 89.000 C 4.053 88.560,4.512 87.487,4.798 86.616 C 5.084 85.744,5.741 84.188,6.259 83.158 C 6.776 82.127,7.200 81.168,7.200 81.026 C 7.200 80.884,7.532 80.280,7.937 79.684 C 8.343 79.088,9.192 77.790,9.825 76.800 C 11.027 74.917,11.431 74.384,12.781 72.900 C 13.232 72.405,13.600 71.856,13.600 71.680 C 13.600 70.944,20.918 63.989,24.417 61.400 C 28.870 58.105,29.636 57.634,33.600 55.750 C 35.250 54.966,37.255 53.982,38.054 53.562 C 38.854 53.143,39.890 52.800,40.356 52.800 C 40.822 52.800,41.875 52.440,42.696 52.000 C 43.516 51.560,44.780 51.200,45.504 51.200 C 46.228 51.200,47.844 50.840,49.096 50.400 C 52.688 49.138,347.312 49.138,350.904 50.400 C 352.156 50.840,353.772 51.200,354.496 51.200 C 355.220 51.200,356.484 51.560,357.304 52.000 C 358.125 52.440,359.176 52.800,359.640 52.800 C 360.103 52.800,361.319 53.236,362.341 53.768 C 363.363 54.301,365.370 55.306,366.800 56.002 C 371.338 58.212,372.910 59.202,376.599 62.169 C 380.072 64.963,383.734 68.461,385.400 70.576 C 385.840 71.135,386.560 72.037,387.000 72.580 C 389.829 76.075,392.794 80.807,393.404 82.800 C 393.572 83.350,394.045 84.229,394.455 84.754 C 394.865 85.279,395.200 85.963,395.200 86.276 C 395.200 86.588,395.582 87.683,396.050 88.709 C 396.517 89.735,396.995 91.300,397.112 92.187 C 397.229 93.074,397.579 94.193,397.891 94.674 C 398.324 95.341,399.084 100.392,399.189 103.300 C 399.195 103.465,399.380 103.600,399.600 103.600 C 399.865 103.600,400.000 86.067,400.000 51.800 L 400.000 0.000 200.000 0.000 L 0.000 0.000 0.000 50.800 M69.811 91.181 C 69.682 91.391,71.156 93.169,73.088 95.133 C 78.097 100.224,84.529 106.905,91.000 113.739 C 98.251 121.397,101.771 125.062,112.378 136.000 C 117.179 140.950,122.456 146.440,124.106 148.200 C 125.755 149.960,127.949 152.300,128.981 153.400 C 130.012 154.500,133.499 158.138,136.728 161.485 C 139.958 164.831,142.820 167.801,143.089 168.085 C 143.358 168.368,143.765 168.780,143.993 169.000 C 145.303 170.261,163.462 189.148,167.600 193.553 C 168.590 194.607,171.110 197.267,173.200 199.464 C 175.290 201.662,177.857 204.391,178.905 205.530 C 179.953 206.668,180.988 207.600,181.205 207.600 C 181.422 207.600,181.600 207.753,181.600 207.940 C 181.600 208.126,183.625 210.364,186.100 212.913 C 188.575 215.461,192.600 219.628,195.043 222.173 C 197.487 224.718,199.671 226.800,199.895 226.800 C 200.408 226.800,207.426 219.830,207.742 219.007 C 207.870 218.673,208.251 218.400,208.587 218.400 C 208.924 218.400,209.200 218.235,209.200 218.032 C 209.200 217.830,211.225 215.581,213.700 213.035 C 216.175 210.488,218.790 207.774,219.510 207.002 C 220.231 206.231,220.996 205.600,221.210 205.600 C 221.425 205.600,221.600 205.368,221.600 205.084 C 221.600 204.799,222.275 203.944,223.100 203.183 C 223.925 202.422,227.312 198.919,230.628 195.400 C 233.943 191.880,238.173 187.438,240.028 185.529 C 243.065 182.402,254.618 170.368,255.929 168.966 C 256.219 168.655,256.612 168.400,256.802 168.400 C 256.991 168.400,257.257 168.049,257.394 167.620 C 257.530 167.192,257.992 166.730,258.420 166.594 C 258.849 166.457,259.200 166.164,259.200 165.941 C 259.200 165.719,259.965 164.763,260.900 163.818 C 261.835 162.872,263.950 160.676,265.600 158.936 C 272.619 151.538,282.584 141.148,287.700 135.894 C 290.725 132.788,293.200 130.101,293.200 129.923 C 293.200 129.745,293.366 129.600,293.569 129.600 C 293.946 129.600,296.400 127.297,296.400 126.943 C 296.400 126.836,297.975 125.120,299.900 123.130 C 305.487 117.356,308.544 114.173,316.000 106.370 C 319.850 102.341,324.667 97.356,326.705 95.293 C 328.744 93.230,330.308 91.375,330.182 91.171 C 329.866 90.660,70.127 90.671,69.811 91.181 M41.439 122.951 C 41.063 124.351,41.182 276.152,41.559 276.748 C 41.848 277.203,41.965 277.191,42.253 276.680 C 42.444 276.341,46.020 272.502,50.200 268.149 C 54.380 263.795,59.150 258.800,60.800 257.049 C 62.450 255.298,64.880 252.770,66.200 251.430 C 69.978 247.597,80.879 236.262,86.800 230.011 C 89.770 226.875,94.540 221.902,97.400 218.959 C 100.260 216.017,103.809 212.302,105.287 210.705 C 106.765 209.107,109.598 206.180,111.583 204.200 C 116.175 199.619,116.174 199.684,111.700 195.156 C 109.775 193.208,106.717 190.035,104.905 188.107 C 103.093 186.178,99.345 182.260,96.578 179.400 C 93.810 176.540,88.813 171.353,85.473 167.873 C 82.133 164.394,77.825 159.916,75.900 157.923 C 73.975 155.930,72.400 154.250,72.400 154.189 C 72.400 154.071,70.409 152.002,56.174 137.317 C 51.099 132.083,45.759 126.518,44.307 124.951 C 41.972 122.433,41.640 122.201,41.439 122.951 M350.781 130.076 C 346.722 134.290,341.780 139.400,339.800 141.432 C 337.820 143.464,333.500 147.953,330.200 151.407 C 321.157 160.873,316.892 165.328,313.800 168.538 C 312.260 170.136,307.940 174.639,304.200 178.544 C 300.460 182.449,295.330 187.774,292.800 190.377 C 283.478 199.970,283.759 199.373,286.975 202.730 C 296.148 212.306,302.012 218.446,308.815 225.600 C 310.385 227.250,315.592 232.650,320.387 237.600 C 325.182 242.550,329.685 247.230,330.395 248.000 C 331.105 248.770,334.321 252.148,337.543 255.506 C 340.764 258.864,344.730 263.004,346.356 264.706 C 355.993 274.794,358.126 276.844,358.453 276.328 C 358.876 275.660,358.898 123.574,358.475 122.908 C 358.264 122.575,355.770 124.898,350.781 130.076 M139.906 234.643 C 137.428 237.197,133.420 241.324,131.000 243.815 C 127.051 247.880,123.314 251.766,112.700 262.845 C 110.885 264.739,106.070 269.779,102.000 274.045 C 97.930 278.310,93.340 283.094,91.800 284.675 C 90.260 286.256,85.940 290.736,82.200 294.630 C 78.460 298.524,74.265 302.884,72.879 304.319 C 71.031 306.230,70.497 307.015,70.879 307.258 C 71.655 307.751,328.903 307.494,329.061 307.000 C 329.204 306.550,324.885 301.948,306.600 283.063 C 299.653 275.887,288.365 264.097,285.144 260.651 C 283.525 258.918,280.625 255.904,278.700 253.951 C 276.775 251.999,275.200 250.337,275.200 250.258 C 275.200 250.180,272.815 247.681,269.900 244.706 C 266.985 241.730,262.568 237.204,260.084 234.648 C 257.600 232.092,255.416 230.000,255.232 230.000 C 254.788 230.000,252.107 232.655,245.800 239.345 C 242.940 242.378,238.260 247.269,235.400 250.213 C 232.540 253.157,227.950 257.941,225.200 260.844 C 209.374 277.551,206.189 279.506,197.097 278.092 C 190.663 277.092,189.108 275.903,175.456 261.548 C 173.286 259.266,168.426 254.199,164.656 250.287 C 160.885 246.375,155.860 241.155,153.489 238.687 C 146.852 231.779,145.057 230.000,144.721 230.000 C 144.551 230.000,142.384 232.089,139.906 234.643 M399.040 296.900 C 398.931 297.615,398.743 299.358,398.620 300.772 C 398.497 302.187,398.128 303.756,397.799 304.258 C 397.469 304.761,397.200 305.680,397.200 306.301 C 397.200 306.923,396.840 308.137,396.400 309.000 C 395.960 309.863,395.600 310.766,395.600 311.006 C 395.600 311.535,392.886 317.418,391.912 319.000 C 390.065 322.001,389.360 323.073,388.889 323.600 C 388.593 323.930,387.629 325.190,386.745 326.400 C 384.146 329.959,379.682 334.287,375.275 337.521 C 374.766 337.894,374.032 338.470,373.644 338.800 C 372.551 339.730,370.896 340.665,367.200 342.442 C 365.330 343.341,363.145 344.419,362.346 344.838 C 361.546 345.257,360.549 345.600,360.130 345.600 C 359.712 345.600,358.663 345.960,357.800 346.400 C 356.937 346.840,355.736 347.200,355.130 347.200 C 354.525 347.200,353.078 347.605,351.915 348.100 L 349.800 349.000 206.766 349.113 C 63.290 349.226,49.719 349.119,47.400 347.858 C 46.740 347.499,45.653 347.204,44.985 347.202 C 44.316 347.201,43.063 346.840,42.200 346.400 C 41.337 345.960,40.301 345.600,39.897 345.600 C 39.494 345.600,38.318 345.150,37.285 344.600 C 36.252 344.050,35.202 343.600,34.952 343.600 C 34.379 343.600,28.176 340.182,26.690 339.048 C 26.079 338.582,25.107 337.795,24.531 337.300 C 23.955 336.805,23.374 336.400,23.242 336.400 C 22.999 336.399,22.082 335.646,19.561 333.375 C 17.926 331.903,14.584 328.251,13.200 326.425 C 12.650 325.699,11.835 324.632,11.389 324.053 C 10.675 323.126,10.038 322.153,8.084 319.000 C 7.246 317.647,4.800 312.421,4.800 311.982 C 4.800 311.755,4.464 310.900,4.054 310.084 C 3.644 309.268,3.178 307.886,3.020 307.014 C 2.861 306.141,2.475 304.932,2.162 304.326 C 1.848 303.720,1.477 301.869,1.337 300.212 C 1.156 298.072,0.926 297.200,0.541 297.200 C 0.089 297.200,0.000 305.655,0.000 348.600 L 0.000 400.000 200.000 400.000 L 400.000 400.000 400.000 347.800 C 400.000 299.874,399.844 291.587,399.040 296.900 " stroke="none" fill="#fbfbfb" fill-rule="evenodd"></path><path id="path3" d="M53.400 50.283 C 52.740 50.376,51.312 50.710,50.227 51.026 C 49.142 51.342,47.560 51.600,46.711 51.600 C 45.863 51.600,44.500 51.936,43.684 52.346 C 42.868 52.756,41.543 53.211,40.740 53.357 C 39.937 53.502,39.076 53.868,38.826 54.169 C 38.576 54.470,37.766 54.830,37.026 54.969 C 36.286 55.108,35.460 55.486,35.191 55.811 C 34.922 56.135,34.499 56.400,34.251 56.400 C 33.700 56.401,26.890 60.475,24.223 62.400 C 19.394 65.886,12.299 73.782,9.588 78.689 C 9.007 79.740,8.328 80.960,8.079 81.400 C 7.177 82.995,5.200 87.579,5.197 88.083 C 5.196 88.367,4.837 89.140,4.400 89.800 C 3.963 90.460,3.604 91.505,3.603 92.122 C 3.601 92.739,3.257 93.999,2.838 94.922 C 1.254 98.410,1.200 101.855,1.201 199.769 C 1.202 297.163,1.231 298.975,2.824 303.702 C 3.251 304.967,3.600 306.268,3.600 306.591 C 3.600 306.914,3.953 307.948,4.385 308.889 C 4.817 309.830,5.783 312.040,6.533 313.800 C 7.776 316.720,10.927 322.441,11.979 323.689 C 12.216 323.970,12.962 324.920,13.637 325.800 C 19.642 333.627,29.517 340.866,39.000 344.393 C 40.320 344.884,41.940 345.539,42.600 345.849 C 43.260 346.160,44.790 346.578,46.000 346.779 C 47.210 346.980,48.988 347.427,49.950 347.772 C 53.045 348.882,347.575 348.713,350.400 347.600 C 351.516 347.160,353.008 346.796,353.715 346.791 C 354.422 346.786,355.741 346.446,356.646 346.035 C 357.552 345.624,358.902 345.157,359.646 344.999 C 360.391 344.841,361.270 344.484,361.600 344.206 C 361.930 343.928,362.830 343.490,363.600 343.232 C 370.354 340.969,383.073 330.978,387.342 324.583 C 387.923 323.712,388.823 322.370,389.341 321.600 C 391.140 318.930,395.200 310.571,395.200 309.538 C 395.200 309.216,395.464 308.604,395.787 308.176 C 396.110 307.749,396.380 307.023,396.387 306.563 C 396.394 306.102,396.775 304.662,397.233 303.363 C 399.095 298.081,399.175 293.840,399.195 199.400 C 399.213 113.915,399.095 104.004,397.989 98.400 C 397.438 95.609,396.048 90.742,395.660 90.246 C 395.467 90.001,395.195 89.316,395.053 88.724 C 393.349 81.579,384.604 69.532,376.400 63.026 C 372.309 59.783,363.719 54.800,362.217 54.800 C 361.932 54.800,361.490 54.549,361.235 54.242 C 360.980 53.935,360.111 53.560,359.304 53.408 C 358.497 53.257,357.161 52.788,356.335 52.367 C 355.508 51.945,354.133 51.600,353.280 51.600 C 352.426 51.600,350.844 51.287,349.764 50.904 C 347.918 50.251,57.977 49.643,53.400 50.283 M347.239 51.194 C 349.308 51.630,351.723 51.990,352.606 51.994 C 353.489 51.997,354.839 52.334,355.606 52.741 C 356.373 53.149,357.710 53.614,358.579 53.774 C 359.447 53.935,360.596 54.411,361.133 54.833 C 361.669 55.255,362.523 55.600,363.030 55.600 C 363.538 55.600,364.077 55.800,364.228 56.045 C 364.379 56.290,365.245 56.840,366.152 57.267 C 367.058 57.693,368.610 58.569,369.600 59.213 C 370.590 59.857,371.760 60.557,372.200 60.769 C 374.607 61.927,381.941 68.442,384.600 71.784 C 385.040 72.337,385.895 73.330,386.500 73.991 C 387.105 74.652,387.600 75.464,387.600 75.796 C 387.600 76.128,387.779 76.400,387.997 76.400 C 388.215 76.400,388.710 77.005,389.097 77.744 C 390.894 81.181,393.200 85.917,393.200 86.173 C 393.200 86.329,393.470 86.727,393.800 87.057 C 394.130 87.387,394.400 88.028,394.400 88.481 C 394.400 88.935,394.744 89.867,395.165 90.553 C 395.586 91.239,396.059 92.700,396.217 93.800 C 396.375 94.900,396.759 96.303,397.071 96.918 C 398.214 99.169,398.375 111.814,398.370 199.200 C 398.366 288.201,398.219 299.850,397.085 301.650 C 396.756 302.172,396.361 303.500,396.208 304.600 C 396.055 305.700,395.586 307.161,395.165 307.847 C 394.744 308.533,394.400 309.398,394.400 309.768 C 394.400 310.138,394.042 311.107,393.604 311.921 C 393.166 312.734,392.248 314.570,391.563 316.000 C 389.522 320.263,388.639 321.877,387.900 322.691 C 387.515 323.116,387.200 323.610,387.200 323.789 C 387.200 324.169,387.123 324.253,380.862 330.700 C 378.244 333.395,376.010 335.600,375.897 335.600 C 375.784 335.600,374.636 336.301,373.346 337.158 C 372.056 338.014,369.772 339.364,368.270 340.156 C 366.769 340.948,365.154 341.867,364.681 342.198 C 364.209 342.529,363.526 342.800,363.165 342.800 C 362.804 342.800,362.079 343.137,361.554 343.549 C 361.029 343.961,359.790 344.430,358.800 344.592 C 357.810 344.754,356.677 345.173,356.282 345.522 C 355.878 345.879,354.388 346.284,352.882 346.446 C 351.407 346.606,349.660 347.019,349.000 347.366 C 347.179 348.321,52.259 348.337,50.895 347.381 C 50.409 347.041,48.648 346.610,46.983 346.423 C 45.279 346.232,43.659 345.818,43.277 345.475 C 42.905 345.141,41.880 344.736,41.000 344.576 C 40.120 344.415,38.971 343.950,38.446 343.542 C 37.921 343.134,37.169 342.800,36.775 342.800 C 36.380 342.800,35.814 342.557,35.518 342.260 C 35.221 341.964,34.310 341.500,33.495 341.231 C 32.679 340.962,31.918 340.591,31.804 340.406 C 31.690 340.221,30.280 339.348,28.672 338.465 C 27.064 337.583,25.513 336.577,25.225 336.230 C 24.937 335.884,24.514 335.600,24.285 335.600 C 23.592 335.600,14.859 326.755,13.277 324.450 C 11.312 321.588,10.166 319.695,9.374 318.000 C 9.015 317.230,8.490 316.330,8.207 316.000 C 7.925 315.670,7.570 314.950,7.417 314.400 C 7.264 313.850,6.767 312.590,6.311 311.600 C 4.291 307.207,4.029 306.503,3.812 304.872 C 3.685 303.921,3.271 302.669,2.891 302.089 C 1.800 300.424,1.821 97.957,2.913 96.351 C 3.305 95.773,3.735 94.377,3.869 93.247 C 4.003 92.117,4.447 90.807,4.856 90.335 C 5.265 89.864,5.600 89.169,5.600 88.792 C 5.600 88.187,9.231 80.671,10.811 78.006 C 13.026 74.268,21.554 64.400,22.569 64.400 C 22.837 64.400,25.614 62.326,26.718 61.301 C 27.014 61.026,27.693 60.691,28.228 60.557 C 28.763 60.423,29.200 60.180,29.200 60.017 C 29.200 59.855,29.920 59.397,30.800 59.000 C 31.680 58.603,32.400 58.126,32.400 57.939 C 32.400 57.753,32.645 57.600,32.944 57.600 C 33.243 57.600,34.151 57.150,34.962 56.600 C 35.772 56.050,36.753 55.600,37.140 55.600 C 37.528 55.600,38.455 55.150,39.200 54.600 C 39.945 54.050,41.105 53.599,41.778 53.597 C 42.450 53.596,43.540 53.237,44.200 52.800 C 44.906 52.332,46.077 52.004,47.045 52.003 C 48.533 52.000,50.263 51.718,54.400 50.802 C 58.111 49.980,343.299 50.362,347.239 51.194 M67.968 89.313 C 66.763 90.242,67.853 91.798,74.482 98.616 C 78.109 102.347,81.600 105.977,82.239 106.682 C 82.877 107.387,85.740 110.375,88.600 113.322 C 91.460 116.269,95.496 120.507,97.569 122.740 C 99.643 124.973,101.578 126.800,101.869 126.800 C 102.161 126.800,102.400 126.964,102.400 127.165 C 102.400 127.608,105.564 131.048,113.075 138.767 C 116.196 141.975,119.526 145.481,120.475 146.559 C 122.187 148.503,123.126 149.463,127.256 153.492 C 128.435 154.643,130.210 156.530,131.200 157.685 C 133.159 159.971,138.061 164.950,140.603 167.235 C 141.482 168.025,142.828 169.465,143.596 170.435 C 145.726 173.129,152.454 179.963,153.213 180.204 C 153.583 180.322,154.046 180.758,154.243 181.175 C 155.019 182.821,175.740 204.452,179.746 207.800 C 180.536 208.460,181.187 209.228,181.191 209.506 C 181.196 209.784,183.839 212.664,187.063 215.906 C 190.288 219.148,194.089 223.150,195.509 224.800 C 199.291 229.194,200.859 229.365,203.599 225.681 C 204.368 224.647,207.852 220.920,211.342 217.400 C 219.238 209.434,219.200 209.475,219.200 208.886 C 219.200 208.619,219.458 208.400,219.773 208.400 C 220.088 208.400,220.457 208.049,220.594 207.620 C 220.730 207.192,221.183 206.733,221.600 206.600 C 222.017 206.467,222.467 206.017,222.600 205.600 C 222.733 205.183,223.147 204.738,223.520 204.612 C 223.894 204.486,225.730 202.733,227.600 200.716 C 229.470 198.699,233.431 194.518,236.401 191.425 C 239.372 188.331,242.753 184.720,243.915 183.400 C 245.076 182.080,246.213 180.820,246.440 180.600 C 252.080 175.139,256.400 170.720,256.400 170.410 C 256.400 170.193,257.411 169.066,258.646 167.907 C 262.604 164.195,267.340 159.412,269.474 156.971 C 270.614 155.667,272.654 153.520,274.007 152.200 C 276.442 149.825,276.914 149.329,281.200 144.649 C 282.410 143.328,285.470 140.167,288.000 137.624 C 290.530 135.081,293.680 131.770,295.000 130.266 C 296.320 128.762,297.635 127.322,297.921 127.066 C 299.930 125.271,305.002 120.088,307.000 117.786 C 308.320 116.266,310.457 114.027,311.749 112.811 C 313.041 111.595,314.571 110.060,315.149 109.400 C 315.727 108.740,319.005 105.320,322.434 101.800 C 333.067 90.883,333.539 90.237,331.626 89.214 C 330.420 88.569,68.806 88.666,67.968 89.313 M330.832 90.220 C 331.758 90.792,330.871 92.124,326.692 96.437 C 316.474 106.985,305.923 117.966,305.156 118.853 C 304.706 119.374,301.876 122.333,298.868 125.430 C 295.861 128.526,289.800 134.815,285.400 139.406 C 281.000 143.996,276.698 148.482,275.840 149.376 C 274.981 150.269,272.833 152.530,271.066 154.400 C 268.038 157.604,264.061 161.724,249.800 176.435 C 246.500 179.838,242.388 184.148,240.662 186.012 C 236.823 190.158,232.555 194.625,224.419 203.012 C 215.991 211.701,205.030 223.049,202.650 225.550 C 200.232 228.091,199.566 228.105,197.243 225.662 C 187.604 215.525,180.841 208.455,175.778 203.223 C 169.321 196.551,163.352 190.322,151.600 177.991 C 147.530 173.721,141.486 167.431,138.168 164.014 C 127.680 153.210,121.811 147.088,119.174 144.200 C 117.768 142.660,115.174 139.937,113.409 138.149 C 111.644 136.361,106.600 131.144,102.200 126.555 C 97.800 121.966,91.937 115.869,89.171 113.006 C 86.405 110.143,82.445 106.002,80.371 103.805 C 78.297 101.607,74.845 98.014,72.700 95.821 C 68.959 91.994,68.347 91.013,69.180 90.180 C 69.587 89.773,330.173 89.812,330.832 90.220 M40.800 120.792 C 40.270 121.127,40.200 130.295,40.200 199.374 L 40.200 277.578 41.028 278.406 L 41.856 279.234 45.228 275.555 C 47.083 273.531,50.580 269.853,53.000 267.381 C 55.420 264.909,58.930 261.210,60.800 259.162 C 63.793 255.885,72.561 246.789,81.000 238.207 C 85.515 233.616,93.035 225.755,98.200 220.227 C 104.162 213.846,105.912 212.011,111.237 206.547 C 116.322 201.329,116.985 200.390,116.615 198.918 C 116.362 197.911,110.182 191.270,96.055 176.827 C 93.275 173.984,89.667 170.250,88.038 168.529 C 76.706 156.557,67.673 147.128,54.000 132.996 C 50.370 129.244,46.230 124.880,44.800 123.298 C 42.122 120.335,41.820 120.147,40.800 120.792 M354.761 123.652 C 353.132 125.440,351.378 127.375,350.862 127.952 C 350.346 128.528,345.214 133.860,339.457 139.800 C 333.701 145.740,327.553 152.105,325.795 153.943 C 324.038 155.782,321.070 158.853,319.200 160.767 C 317.330 162.681,314.360 165.821,312.600 167.745 C 310.840 169.669,305.364 175.367,300.432 180.407 C 281.452 199.804,281.995 199.120,283.834 201.324 C 285.795 203.676,288.429 206.400,288.741 206.400 C 288.911 206.400,289.481 206.983,290.008 207.697 C 290.535 208.410,292.234 210.327,293.783 211.958 C 295.333 213.589,298.130 216.543,300.000 218.522 C 303.522 222.249,313.378 232.436,320.000 239.191 C 323.904 243.174,333.081 252.819,338.400 258.531 C 340.050 260.303,343.650 264.040,346.400 266.836 C 349.150 269.632,352.837 273.475,354.594 275.375 C 357.978 279.036,359.109 279.535,359.644 277.600 C 360.091 275.982,360.058 122.605,359.610 121.426 C 358.960 119.716,357.902 120.202,354.761 123.652 M44.888 124.400 C 47.999 127.732,62.049 142.345,66.800 147.190 C 69.110 149.545,72.243 152.806,73.763 154.436 C 77.406 158.343,89.906 171.433,93.200 174.789 C 94.630 176.246,99.760 181.560,104.600 186.598 C 109.440 191.635,114.004 196.377,114.743 197.135 C 117.038 199.489,116.639 200.297,109.684 207.360 C 106.413 210.682,102.226 215.020,100.380 217.000 C 98.533 218.980,95.022 222.670,92.578 225.200 C 90.133 227.730,87.068 230.934,85.767 232.320 C 83.408 234.833,79.866 238.488,69.572 249.038 C 66.587 252.097,62.731 256.130,61.004 258.000 C 50.693 269.161,41.833 277.959,41.327 277.539 C 40.611 276.945,40.538 122.837,41.253 121.502 C 41.697 120.671,41.716 120.670,42.270 121.428 C 42.580 121.853,43.758 123.190,44.888 124.400 M359.101 199.284 C 359.187 265.410,359.118 277.170,358.645 277.563 C 358.197 277.935,357.470 277.383,354.944 274.753 C 353.215 272.953,351.170 270.832,350.400 270.039 C 346.920 266.457,338.809 257.977,332.400 251.221 C 328.550 247.162,322.250 240.608,318.400 236.657 C 314.550 232.705,310.860 228.902,310.200 228.204 C 306.120 223.891,296.716 213.994,295.200 212.416 C 294.210 211.386,291.187 208.249,288.482 205.444 C 283.438 200.212,283.334 200.029,284.352 198.121 C 284.567 197.719,296.637 185.154,307.000 174.545 C 308.540 172.969,311.131 170.266,312.758 168.539 C 319.440 161.446,329.408 151.023,335.822 144.422 C 339.574 140.560,344.965 134.970,347.801 132.000 C 350.637 129.030,354.124 125.381,355.550 123.890 C 356.975 122.400,358.335 121.245,358.571 121.324 C 358.874 121.425,359.030 144.331,359.101 199.284 M143.988 228.951 C 142.103 229.957,129.842 242.606,129.399 244.002 C 129.260 244.441,128.931 244.800,128.667 244.800 C 128.168 244.800,120.318 252.717,117.200 256.366 C 116.210 257.524,115.152 258.681,114.848 258.936 C 113.871 259.757,106.335 267.400,101.699 272.270 C 99.223 274.872,95.997 278.260,94.530 279.800 C 93.063 281.340,89.104 285.422,85.731 288.871 C 82.359 292.321,79.600 295.253,79.600 295.387 C 79.600 295.521,77.173 298.015,74.208 300.928 C 68.439 306.594,67.420 308.247,69.131 309.163 C 70.253 309.763,329.705 309.786,330.826 309.186 C 332.614 308.229,331.851 306.959,326.000 301.158 C 322.920 298.104,320.400 295.500,320.400 295.371 C 320.400 295.241,317.542 292.225,314.049 288.668 C 307.215 281.707,298.146 272.299,296.200 270.150 C 291.888 265.389,271.961 245.005,271.379 244.760 C 271.170 244.672,270.516 243.898,269.926 243.041 C 268.724 241.297,256.991 229.341,255.904 228.753 C 254.752 228.129,253.285 229.219,248.800 234.026 C 246.490 236.502,243.790 239.378,242.800 240.417 C 241.810 241.457,239.110 244.321,236.800 246.783 C 225.517 258.809,210.934 273.600,210.360 273.600 C 210.139 273.600,209.295 274.050,208.486 274.600 C 207.677 275.150,206.628 275.600,206.156 275.600 C 205.684 275.600,204.619 275.884,203.789 276.230 C 200.710 277.517,194.864 276.479,189.926 273.770 C 188.769 273.136,182.977 267.407,173.400 257.427 C 170.100 253.988,164.745 248.464,161.500 245.152 C 158.255 241.839,155.465 238.890,155.300 238.599 C 154.816 237.743,146.893 229.679,145.892 229.023 C 145.120 228.517,144.822 228.506,143.988 228.951 M149.424 233.307 C 151.611 235.565,156.460 240.641,160.200 244.585 C 181.230 266.767,188.467 273.925,191.216 275.263 C 197.259 278.205,202.671 278.218,208.730 275.304 C 211.150 274.140,214.757 270.680,228.200 256.625 C 231.940 252.715,235.990 248.492,237.200 247.241 C 238.410 245.990,240.828 243.444,242.574 241.583 C 253.408 230.037,254.677 228.888,255.873 229.538 C 256.711 229.993,261.675 235.091,287.824 262.354 C 290.697 265.349,295.130 269.960,297.675 272.600 C 300.220 275.240,303.449 278.650,304.851 280.177 C 306.253 281.704,309.470 285.038,312.000 287.586 C 324.011 299.680,330.199 306.448,330.325 307.626 L 330.451 308.800 200.025 308.800 L 69.600 308.800 69.600 307.670 C 69.600 306.760,70.636 305.474,74.900 301.090 C 77.815 298.093,83.260 292.448,87.000 288.544 C 90.740 284.641,95.901 279.277,98.469 276.624 C 101.038 273.971,104.728 270.102,106.669 268.027 C 108.611 265.952,111.910 262.507,114.000 260.370 C 116.090 258.234,120.860 253.295,124.600 249.396 C 138.598 234.802,144.218 229.188,144.824 229.194 C 145.167 229.197,147.237 231.048,149.424 233.307 " stroke="none" fill="#7474b8" fill-rule="evenodd"></path><path id="path4" d="M49.000 50.418 C 47.900 50.830,46.367 51.174,45.594 51.183 C 44.821 51.193,43.516 51.560,42.696 52.000 C 41.875 52.440,40.822 52.800,40.356 52.800 C 39.890 52.800,38.854 53.143,38.054 53.562 C 37.255 53.982,35.250 54.966,33.600 55.750 C 29.636 57.634,28.870 58.105,24.417 61.400 C 20.918 63.989,13.600 70.944,13.600 71.680 C 13.600 71.856,13.232 72.405,12.781 72.900 C 11.431 74.384,11.027 74.917,9.825 76.800 C 9.192 77.790,8.343 79.088,7.937 79.684 C 7.532 80.280,7.200 80.884,7.200 81.026 C 7.200 81.168,6.776 82.127,6.259 83.158 C 5.741 84.188,5.084 85.744,4.798 86.616 C 4.512 87.487,4.053 88.560,3.778 89.000 C 3.502 89.440,3.147 90.606,2.988 91.591 C 2.829 92.576,2.459 93.748,2.167 94.194 C 1.874 94.641,1.511 96.490,1.360 98.303 C 1.162 100.677,0.933 101.600,0.542 101.600 C 0.158 101.600,0.000 102.183,0.000 103.600 C 0.000 107.089,1.083 106.222,1.374 102.500 C 1.648 99.003,2.334 95.200,2.799 94.600 C 2.970 94.380,3.241 93.405,3.401 92.433 C 3.562 91.462,4.031 90.112,4.445 89.433 C 4.859 88.755,5.199 87.930,5.201 87.600 C 5.231 83.174,18.908 65.040,24.331 62.236 C 25.029 61.875,25.600 61.433,25.600 61.254 C 25.600 61.075,26.005 60.726,26.500 60.478 C 26.995 60.230,28.300 59.492,29.400 58.838 C 30.500 58.184,32.750 56.984,34.400 56.171 C 36.050 55.358,38.055 54.357,38.854 53.946 C 39.654 53.536,40.644 53.199,41.054 53.198 C 41.465 53.196,42.340 52.899,43.000 52.538 C 43.660 52.176,45.190 51.740,46.400 51.568 C 47.610 51.397,49.860 50.977,51.400 50.635 C 55.750 49.670,344.384 49.690,348.600 50.655 C 350.140 51.008,352.390 51.425,353.600 51.583 C 354.810 51.740,356.340 52.168,357.000 52.532 C 357.660 52.897,358.450 53.196,358.756 53.198 C 360.112 53.204,373.400 59.999,374.400 61.198 C 374.510 61.329,375.680 62.263,377.000 63.273 C 380.709 66.110,386.016 71.915,388.999 76.400 C 390.921 79.290,395.200 87.852,395.200 88.809 C 395.200 89.146,395.447 89.777,395.748 90.211 C 396.050 90.645,396.501 91.959,396.751 93.131 C 397.000 94.303,397.404 95.634,397.647 96.089 C 397.891 96.544,398.247 98.915,398.438 101.358 C 398.946 107.838,399.248 110.000,399.646 110.000 C 400.139 110.000,400.094 103.698,399.599 103.533 C 399.379 103.460,399.031 101.632,398.827 99.472 C 398.622 97.311,398.201 95.151,397.890 94.672 C 397.579 94.192,397.229 93.074,397.112 92.187 C 396.995 91.300,396.517 89.735,396.050 88.709 C 395.582 87.683,395.200 86.588,395.200 86.276 C 395.200 85.963,394.865 85.279,394.455 84.754 C 394.045 84.229,393.572 83.350,393.404 82.800 C 392.794 80.807,389.829 76.075,387.000 72.580 C 386.560 72.037,385.840 71.135,385.400 70.576 C 383.734 68.461,380.072 64.963,376.599 62.169 C 372.910 59.202,371.338 58.212,366.800 56.002 C 365.370 55.306,363.363 54.301,362.341 53.768 C 361.319 53.236,360.103 52.800,359.640 52.800 C 359.176 52.800,358.125 52.440,357.304 52.000 C 356.484 51.560,355.220 51.200,354.496 51.200 C 353.772 51.200,352.156 50.840,350.904 50.400 C 347.440 49.183,52.254 49.200,49.000 50.418 M69.281 90.479 C 68.605 91.155,68.683 91.864,69.500 92.493 C 70.324 93.127,77.863 100.915,87.400 110.984 C 93.775 117.714,98.054 122.161,111.857 136.400 C 114.950 139.590,118.632 143.451,120.040 144.980 C 123.799 149.061,133.288 158.907,150.011 176.077 C 153.373 179.530,156.232 182.527,156.362 182.739 C 156.626 183.165,166.242 193.267,175.237 202.566 C 190.913 218.773,193.224 221.169,195.327 223.400 C 196.571 224.720,197.592 225.930,197.595 226.090 C 197.598 226.249,198.142 226.660,198.804 227.002 C 200.295 227.773,200.868 227.501,203.179 224.926 C 204.129 223.867,207.988 219.842,211.754 215.981 C 219.264 208.282,227.549 199.671,232.754 194.155 C 239.419 187.090,243.804 182.498,249.152 176.980 C 263.387 162.295,266.839 158.707,269.935 155.382 C 271.770 153.412,275.100 149.906,277.335 147.592 C 281.422 143.361,288.783 135.728,298.800 125.334 C 306.845 116.987,317.247 106.076,318.519 104.653 C 319.135 103.964,322.279 100.738,325.508 97.485 C 330.468 92.486,331.310 91.464,330.945 90.885 C 330.388 90.002,70.161 89.599,69.281 90.479 M330.182 91.171 C 330.308 91.375,328.744 93.230,326.705 95.293 C 324.667 97.356,319.850 102.341,316.000 106.370 C 308.544 114.173,305.487 117.356,299.900 123.130 C 297.975 125.120,296.400 126.836,296.400 126.943 C 296.400 127.297,293.946 129.600,293.569 129.600 C 293.366 129.600,293.200 129.745,293.200 129.923 C 293.200 130.101,290.725 132.788,287.700 135.894 C 282.584 141.148,272.619 151.538,265.600 158.936 C 263.950 160.676,261.835 162.872,260.900 163.818 C 259.965 164.763,259.200 165.719,259.200 165.941 C 259.200 166.164,258.849 166.457,258.420 166.594 C 257.992 166.730,257.530 167.192,257.394 167.620 C 257.257 168.049,256.991 168.400,256.802 168.400 C 256.612 168.400,256.219 168.655,255.929 168.966 C 254.618 170.368,243.065 182.402,240.028 185.529 C 238.173 187.438,233.943 191.880,230.628 195.400 C 227.312 198.919,223.925 202.422,223.100 203.183 C 222.275 203.944,221.600 204.799,221.600 205.084 C 221.600 205.368,221.425 205.600,221.210 205.600 C 220.996 205.600,220.231 206.231,219.510 207.002 C 218.790 207.774,216.175 210.488,213.700 213.035 C 211.225 215.581,209.200 217.830,209.200 218.032 C 209.200 218.235,208.924 218.400,208.587 218.400 C 208.251 218.400,207.870 218.673,207.742 219.007 C 207.426 219.830,200.408 226.800,199.895 226.800 C 199.671 226.800,197.487 224.718,195.043 222.173 C 192.600 219.628,188.575 215.461,186.100 212.913 C 183.625 210.364,181.600 208.126,181.600 207.940 C 181.600 207.753,181.422 207.600,181.205 207.600 C 180.988 207.600,179.953 206.668,178.905 205.530 C 177.857 204.391,175.290 201.662,173.200 199.464 C 171.110 197.267,168.590 194.607,167.600 193.553 C 163.462 189.148,145.303 170.261,143.993 169.000 C 143.765 168.780,143.358 168.368,143.089 168.085 C 142.820 167.801,139.958 164.831,136.728 161.485 C 133.499 158.138,130.012 154.500,128.981 153.400 C 127.949 152.300,125.755 149.960,124.106 148.200 C 122.456 146.440,117.179 140.950,112.378 136.000 C 101.771 125.062,98.251 121.397,91.000 113.739 C 84.529 106.905,78.097 100.224,73.088 95.133 C 71.156 93.169,69.682 91.391,69.811 91.181 C 70.127 90.671,329.866 90.660,330.182 91.171 M41.243 121.920 C 40.549 123.217,40.619 276.400,41.314 277.350 C 41.777 277.983,42.300 277.549,46.614 272.950 C 49.246 270.143,52.750 266.486,54.400 264.823 C 56.050 263.160,60.010 259.017,63.200 255.616 C 66.390 252.216,70.170 248.245,71.600 246.794 C 73.030 245.342,78.510 239.664,83.777 234.177 C 89.045 228.690,93.905 223.636,94.577 222.947 C 95.250 222.257,98.500 218.845,101.800 215.364 C 105.100 211.883,109.549 207.253,111.687 205.075 C 117.305 199.350,117.451 200.201,109.400 191.764 C 102.993 185.050,101.732 183.740,91.800 173.486 C 88.280 169.852,84.066 165.466,82.435 163.739 C 76.575 157.535,63.285 143.706,54.422 134.588 C 50.780 130.842,46.424 126.273,44.743 124.435 C 41.890 121.316,41.656 121.148,41.243 121.920 M356.356 123.100 C 351.035 128.836,346.862 133.215,337.777 142.600 C 326.720 154.021,318.586 162.491,313.987 167.369 C 312.344 169.112,309.470 172.106,307.600 174.022 C 301.639 180.130,287.771 194.535,286.056 196.400 C 283.165 199.542,283.293 200.068,288.124 204.951 C 290.997 207.855,294.410 211.430,300.780 218.205 C 302.639 220.182,308.939 226.734,314.780 232.765 C 320.621 238.795,326.300 244.660,327.400 245.797 C 329.406 247.871,339.547 258.561,342.842 262.075 C 352.733 272.625,358.181 277.948,358.671 277.541 C 359.468 276.880,359.456 122.311,358.659 121.649 C 358.236 121.298,357.736 121.613,356.356 123.100 M56.174 137.317 C 70.409 152.002,72.400 154.071,72.400 154.189 C 72.400 154.250,73.975 155.930,75.900 157.923 C 77.825 159.916,82.133 164.394,85.473 167.873 C 88.813 171.353,93.810 176.540,96.578 179.400 C 99.345 182.260,103.093 186.178,104.905 188.107 C 106.717 190.035,109.775 193.208,111.700 195.156 C 116.174 199.684,116.175 199.619,111.583 204.200 C 109.598 206.180,106.765 209.107,105.287 210.705 C 103.809 212.302,100.260 216.017,97.400 218.959 C 94.540 221.902,89.770 226.875,86.800 230.011 C 80.879 236.262,69.978 247.597,66.200 251.430 C 64.880 252.770,62.450 255.298,60.800 257.049 C 59.150 258.800,54.380 263.795,50.200 268.149 C 46.020 272.502,42.444 276.341,42.253 276.680 C 41.965 277.191,41.848 277.203,41.559 276.748 C 41.182 276.152,41.063 124.351,41.439 122.951 C 41.640 122.201,41.972 122.433,44.307 124.951 C 45.759 126.518,51.099 132.083,56.174 137.317 M358.788 199.600 C 358.788 241.510,358.637 276.038,358.453 276.328 C 358.126 276.844,355.993 274.794,346.356 264.706 C 344.730 263.004,340.764 258.864,337.543 255.506 C 334.321 252.148,331.105 248.770,330.395 248.000 C 329.685 247.230,325.182 242.550,320.387 237.600 C 315.592 232.650,310.385 227.250,308.815 225.600 C 302.012 218.446,296.148 212.306,286.975 202.730 C 283.759 199.373,283.478 199.970,292.800 190.377 C 295.330 187.774,300.460 182.449,304.200 178.544 C 307.940 174.639,312.260 170.136,313.800 168.538 C 316.892 165.328,321.157 160.873,330.200 151.407 C 333.500 147.953,337.820 143.464,339.800 141.432 C 341.780 139.400,346.722 134.290,350.781 130.076 C 355.770 124.898,358.264 122.575,358.475 122.908 C 358.647 123.179,358.788 157.690,358.788 199.600 M144.193 229.600 C 143.748 229.768,140.418 233.029,136.793 236.847 C 133.167 240.664,127.841 246.221,124.958 249.194 C 115.356 259.097,107.743 266.986,106.565 268.252 C 103.170 271.903,91.841 283.765,86.566 289.192 C 69.698 306.548,69.800 306.436,69.800 307.535 L 69.800 308.600 200.000 308.600 L 330.200 308.600 330.319 307.582 C 330.406 306.831,330.037 306.189,328.919 305.143 C 328.083 304.362,324.700 300.893,321.400 297.434 C 318.100 293.974,313.330 289.018,310.800 286.421 C 301.473 276.845,296.929 272.112,294.068 268.995 C 292.456 267.238,288.766 263.362,285.868 260.383 C 282.971 257.404,278.961 253.264,276.959 251.183 C 274.956 249.102,272.571 246.718,271.659 245.884 C 270.746 245.050,270.000 244.236,270.000 244.074 C 270.000 243.571,255.609 229.200,255.105 229.200 C 254.595 229.200,250.630 233.187,241.000 243.384 C 237.700 246.878,233.679 251.101,232.064 252.768 C 209.058 276.527,210.544 275.214,204.801 276.857 C 201.467 277.810,198.491 277.798,195.062 276.818 C 190.147 275.412,188.386 274.075,180.200 265.530 C 178.440 263.693,172.410 257.447,166.800 251.650 C 161.190 245.852,156.150 240.621,155.600 240.025 C 145.710 229.306,145.494 229.108,144.193 229.600 M147.104 232.100 C 148.245 233.255,151.118 236.219,153.489 238.687 C 155.860 241.155,160.885 246.375,164.656 250.287 C 168.426 254.199,173.286 259.266,175.456 261.548 C 189.108 275.903,190.663 277.092,197.097 278.092 C 206.189 279.506,209.374 277.551,225.200 260.844 C 227.950 257.941,232.540 253.157,235.400 250.213 C 238.260 247.269,242.940 242.378,245.800 239.345 C 252.107 232.655,254.788 230.000,255.232 230.000 C 255.416 230.000,257.600 232.092,260.084 234.648 C 262.568 237.204,266.985 241.730,269.900 244.706 C 272.815 247.681,275.200 250.180,275.200 250.258 C 275.200 250.337,276.775 251.999,278.700 253.951 C 280.625 255.904,283.525 258.918,285.144 260.651 C 288.365 264.097,299.653 275.887,306.600 283.063 C 324.885 301.948,329.204 306.550,329.061 307.000 C 328.903 307.494,71.655 307.751,70.879 307.258 C 70.497 307.015,71.031 306.230,72.879 304.319 C 74.265 302.884,78.460 298.524,82.200 294.630 C 85.940 290.736,90.260 286.256,91.800 284.675 C 93.340 283.094,97.930 278.310,102.000 274.045 C 106.070 269.779,110.885 264.739,112.700 262.845 C 123.314 251.766,127.051 247.880,131.000 243.815 C 133.420 241.324,137.428 237.197,139.906 234.643 C 145.168 229.221,144.496 229.459,147.104 232.100 M399.059 290.300 C 398.925 291.345,398.709 294.000,398.580 296.200 C 398.450 298.400,398.097 300.920,397.795 301.800 C 397.492 302.680,396.977 304.390,396.649 305.600 C 395.287 310.630,390.966 319.914,388.400 323.323 C 385.362 327.360,377.810 335.224,376.071 336.162 C 375.702 336.362,374.770 337.015,374.000 337.615 C 371.204 339.791,360.525 345.200,359.023 345.200 C 358.679 345.200,357.725 345.560,356.904 346.000 C 356.084 346.440,354.831 346.800,354.121 346.800 C 353.411 346.800,351.916 347.160,350.800 347.600 C 348.783 348.395,347.827 348.400,200.048 348.400 C 52.367 348.400,51.309 348.394,49.000 347.600 C 47.721 347.160,46.201 346.800,45.622 346.800 C 45.043 346.800,43.863 346.440,43.000 346.000 C 42.137 345.560,41.106 345.200,40.708 345.200 C 39.346 345.200,28.451 339.569,25.864 337.528 C 24.799 336.687,23.779 336.000,23.597 336.000 C 22.936 336.000,14.907 327.724,12.731 324.800 C 9.670 320.685,6.027 314.039,5.346 311.326 C 5.194 310.720,4.752 309.678,4.364 309.012 C 3.976 308.345,3.540 307.080,3.394 306.200 C 3.249 305.320,2.868 304.017,2.548 303.305 C 2.229 302.593,1.764 299.938,1.516 297.405 C 1.017 292.309,0.000 290.696,0.000 295.000 C 0.000 296.583,0.152 297.200,0.541 297.200 C 0.926 297.200,1.156 298.072,1.337 300.212 C 1.477 301.869,1.848 303.720,2.162 304.326 C 2.475 304.932,2.861 306.141,3.020 307.014 C 3.178 307.886,3.644 309.268,4.054 310.084 C 4.464 310.900,4.800 311.755,4.800 311.982 C 4.800 312.421,7.246 317.647,8.084 319.000 C 10.038 322.153,10.675 323.126,11.389 324.053 C 11.835 324.632,12.650 325.699,13.200 326.425 C 14.584 328.251,17.926 331.903,19.561 333.375 C 22.082 335.646,22.999 336.399,23.242 336.400 C 23.374 336.400,23.955 336.805,24.531 337.300 C 25.107 337.795,26.079 338.582,26.690 339.048 C 28.176 340.182,34.379 343.600,34.952 343.600 C 35.202 343.600,36.252 344.050,37.285 344.600 C 38.318 345.150,39.494 345.600,39.897 345.600 C 40.301 345.600,41.337 345.960,42.200 346.400 C 43.063 346.840,44.316 347.201,44.985 347.202 C 45.653 347.204,46.740 347.499,47.400 347.858 C 49.719 349.119,63.290 349.226,206.766 349.113 L 349.800 349.000 351.915 348.100 C 353.078 347.605,354.525 347.200,355.130 347.200 C 355.736 347.200,356.937 346.840,357.800 346.400 C 358.663 345.960,359.712 345.600,360.130 345.600 C 360.549 345.600,361.546 345.257,362.346 344.838 C 363.145 344.419,365.330 343.341,367.200 342.442 C 370.896 340.665,372.551 339.730,373.644 338.800 C 374.032 338.470,374.766 337.894,375.275 337.521 C 379.682 334.287,384.146 329.959,386.745 326.400 C 387.629 325.190,388.593 323.930,388.889 323.600 C 389.360 323.073,390.065 322.001,391.912 319.000 C 392.886 317.418,395.600 311.535,395.600 311.006 C 395.600 310.766,395.960 309.863,396.400 309.000 C 396.840 308.137,397.200 306.923,397.200 306.301 C 397.200 305.680,397.473 304.754,397.808 304.244 C 398.152 303.719,398.565 301.692,398.761 299.574 C 398.955 297.467,399.301 295.766,399.553 295.682 C 400.087 295.504,400.184 288.400,399.652 288.400 C 399.460 288.400,399.193 289.255,399.059 290.300 " stroke="none" fill="#8888bc" fill-rule="evenodd"></path></g></svg>