<svg id="svg" version="1.1" width="400" height="400" viewBox="0 0 400 400" xmlns="http://www.w3.org/2000/svg" xmlns:xlink="http://www.w3.org/1999/xlink" ><g id="svgg"><path id="path0" d="M120.508 71.231 C 109.546 71.408,101.163 71.713,99.921 71.980 C 98.768 72.227,95.090 72.691,91.747 73.011 C 88.404 73.332,85.248 73.753,84.734 73.947 C 84.220 74.142,82.810 74.419,81.600 74.565 C 78.141 74.980,74.293 75.659,73.200 76.048 C 72.650 76.243,70.775 76.582,69.033 76.800 C 67.291 77.019,65.581 77.452,65.233 77.763 C 64.885 78.074,63.706 78.461,62.614 78.623 C 61.521 78.784,60.081 79.250,59.414 79.657 C 58.746 80.064,57.688 80.398,57.063 80.399 C 56.438 80.399,55.469 80.760,54.909 81.200 C 54.350 81.640,53.613 82.000,53.272 82.000 C 52.931 82.000,51.831 82.382,50.826 82.850 C 48.110 84.114,44.410 85.799,42.600 86.596 C 38.137 88.562,32.043 91.666,31.602 92.198 C 31.327 92.529,30.852 92.800,30.547 92.800 C 30.242 92.800,29.684 93.160,29.307 93.600 C 28.930 94.040,28.418 94.400,28.170 94.400 C 27.921 94.400,27.273 94.805,26.730 95.300 C 26.188 95.795,25.146 96.650,24.416 97.200 C 20.940 99.818,18.350 102.041,16.684 103.835 C 13.091 107.707,12.800 108.045,12.800 108.358 C 12.800 108.533,12.355 109.193,11.812 109.826 C 11.268 110.459,10.269 112.101,9.592 113.476 C 8.915 114.852,8.190 116.083,7.981 116.212 C 7.771 116.341,7.598 116.752,7.596 117.124 C 7.594 117.496,7.150 118.700,6.609 119.800 C 6.068 120.900,5.618 122.250,5.610 122.800 C 5.602 123.350,5.308 124.340,4.957 125.000 C 4.606 125.660,4.164 127.460,3.975 129.000 C 3.785 130.540,3.361 132.790,3.033 134.000 C 2.250 136.881,1.620 150.322,2.243 150.837 C 2.507 151.055,21.794 151.162,50.039 151.102 L 97.393 151.000 98.082 149.600 C 98.462 148.830,98.967 147.521,99.204 146.692 C 99.580 145.375,100.851 143.093,101.940 141.775 C 102.134 141.541,102.525 140.911,102.810 140.375 C 103.560 138.963,106.777 135.063,107.545 134.634 C 107.905 134.433,108.290 134.154,108.400 134.015 C 109.269 132.914,115.237 129.601,116.356 129.599 C 116.710 129.598,117.615 129.222,118.367 128.764 C 119.118 128.306,120.558 127.781,121.567 127.599 C 122.575 127.416,124.210 126.965,125.200 126.596 C 127.171 125.862,130.513 125.953,131.324 126.764 C 131.668 127.108,131.800 130.151,131.800 137.743 L 131.800 148.245 129.033 151.589 C 127.512 153.429,125.982 155.236,125.633 155.607 C 125.285 155.977,124.654 156.712,124.232 157.240 C 123.234 158.488,119.411 162.880,117.508 164.965 C 115.814 166.822,115.476 167.228,111.481 172.225 C 109.887 174.219,107.511 176.919,106.202 178.225 C 104.044 180.377,101.600 184.755,101.600 186.466 C 101.600 186.693,101.342 187.446,101.027 188.140 C 100.712 188.833,100.175 190.253,99.833 191.295 C 99.492 192.338,99.048 193.508,98.846 193.895 C 98.334 194.880,96.515 199.593,96.182 200.800 C 96.030 201.350,95.672 202.070,95.387 202.400 C 95.101 202.730,94.744 203.669,94.592 204.486 C 94.440 205.303,94.077 206.170,93.784 206.413 C 93.491 206.656,93.130 207.428,92.983 208.128 C 92.835 208.827,92.395 209.940,92.006 210.600 C 91.616 211.260,91.178 212.469,91.033 213.287 C 90.888 214.105,90.539 215.005,90.257 215.287 C 89.976 215.569,89.551 216.520,89.313 217.400 C 88.470 220.508,86.335 226.272,84.422 230.600 C 84.033 231.480,83.596 232.695,83.450 233.300 C 83.304 233.905,83.016 234.400,82.811 234.400 C 82.605 234.400,82.316 235.075,82.169 235.900 C 82.023 236.725,81.565 237.961,81.151 238.647 C 80.738 239.333,80.400 240.179,80.400 240.526 C 80.400 240.873,79.950 242.004,79.400 243.038 C 78.850 244.073,78.400 245.230,78.400 245.611 C 78.400 245.991,78.130 246.526,77.800 246.800 C 77.470 247.074,77.200 247.543,77.200 247.843 C 77.200 248.615,74.570 256.382,73.825 257.810 C 73.484 258.465,73.198 259.270,73.190 259.600 C 73.182 259.930,72.732 261.100,72.191 262.200 C 71.650 263.300,71.206 264.421,71.204 264.690 C 71.202 264.960,70.841 265.770,70.401 266.490 C 69.962 267.211,69.602 268.177,69.601 268.639 C 69.601 269.100,69.240 269.893,68.800 270.400 C 68.360 270.907,68.000 271.617,68.000 271.977 C 68.000 272.336,67.640 273.337,67.200 274.200 C 66.760 275.063,66.398 275.956,66.396 276.185 C 66.394 276.413,65.950 277.500,65.409 278.600 L 64.425 280.600 64.418 304.200 C 64.414 317.180,64.519 328.205,64.652 328.700 L 64.893 329.600 197.404 329.600 C 317.867 329.600,329.936 329.542,330.157 328.967 C 330.876 327.094,330.402 279.971,329.649 278.484 C 329.236 277.668,328.765 276.370,328.603 275.600 C 328.440 274.830,328.131 273.980,327.914 273.711 C 327.698 273.443,327.369 272.633,327.184 271.911 C 326.999 271.190,326.027 268.204,325.024 265.276 C 324.021 262.348,323.200 259.669,323.200 259.323 C 323.200 258.977,322.859 258.133,322.442 257.447 C 322.026 256.761,321.561 255.445,321.411 254.523 C 321.261 253.601,320.886 252.638,320.579 252.383 C 320.272 252.128,319.906 251.263,319.766 250.460 C 319.625 249.657,319.277 248.627,318.992 248.171 C 318.708 247.715,318.245 246.545,317.963 245.571 C 317.682 244.597,317.215 243.445,316.926 243.011 C 316.637 242.577,316.400 241.925,316.400 241.562 C 316.400 241.199,316.011 240.024,315.536 238.951 C 315.061 237.878,314.530 236.460,314.355 235.800 C 314.181 235.140,313.488 233.070,312.814 231.200 C 312.141 229.330,311.306 226.720,310.959 225.400 C 310.612 224.080,310.170 222.808,309.976 222.573 C 309.782 222.338,309.417 221.168,309.166 219.973 C 308.915 218.778,308.471 217.527,308.178 217.194 C 307.886 216.861,307.479 215.845,307.275 214.936 C 307.071 214.027,306.610 212.865,306.252 212.353 C 305.893 211.841,305.599 211.057,305.598 210.611 C 305.596 210.165,305.308 209.260,304.958 208.600 C 304.608 207.940,304.080 206.680,303.785 205.800 C 303.490 204.920,302.325 201.590,301.196 198.400 C 300.067 195.210,298.914 191.790,298.633 190.800 C 298.012 188.614,296.537 185.629,295.651 184.767 C 295.293 184.419,294.550 183.536,294.000 182.804 C 293.450 182.072,292.190 180.430,291.200 179.155 C 290.210 177.880,288.950 176.198,288.400 175.416 C 286.735 173.051,286.449 172.660,285.201 171.045 C 284.541 170.190,284.000 169.350,284.000 169.179 C 284.000 169.008,283.643 168.448,283.208 167.934 C 282.772 167.420,281.164 165.380,279.634 163.400 C 278.105 161.420,276.481 159.366,276.027 158.837 C 275.572 158.307,275.200 157.722,275.200 157.537 C 275.200 157.351,274.885 156.858,274.500 156.440 C 274.115 156.023,273.386 155.078,272.880 154.340 C 272.374 153.603,271.159 151.878,270.180 150.506 L 268.400 148.013 268.400 137.396 L 268.400 126.780 269.500 126.354 C 270.857 125.827,273.949 126.146,275.559 126.979 C 276.220 127.320,277.227 127.600,277.798 127.600 C 278.369 127.600,279.682 128.050,280.715 128.600 C 281.748 129.150,282.823 129.600,283.104 129.600 C 285.538 129.600,295.600 137.556,295.600 139.480 C 295.600 139.751,295.960 140.165,296.400 140.400 C 296.840 140.635,297.200 141.079,297.200 141.386 C 297.200 141.692,297.462 142.205,297.782 142.525 C 298.491 143.234,299.571 145.017,301.213 148.192 C 301.894 149.508,302.664 150.720,302.925 150.886 C 303.895 151.503,397.453 151.259,397.968 150.638 C 398.553 149.934,397.860 136.196,397.200 135.400 C 396.963 135.114,396.585 133.738,396.360 132.342 C 396.135 130.947,395.602 129.016,395.176 128.052 C 394.749 127.087,394.394 125.916,394.386 125.449 C 394.379 124.982,394.025 123.880,393.600 123.000 C 393.175 122.120,392.821 121.167,392.814 120.883 C 392.792 120.080,389.737 114.056,388.169 111.728 C 387.751 111.108,387.228 110.309,387.005 109.953 C 385.300 107.228,381.300 103.005,377.600 100.024 C 376.390 99.050,375.040 97.926,374.600 97.528 C 372.386 95.526,368.356 92.791,364.900 90.946 C 364.185 90.564,363.600 90.105,363.600 89.926 C 363.600 89.747,363.394 89.600,363.142 89.600 C 362.693 89.600,357.632 87.324,355.538 86.180 C 354.954 85.861,354.211 85.600,353.887 85.600 C 353.563 85.600,353.082 85.339,352.817 85.020 C 352.552 84.702,351.675 84.229,350.868 83.970 C 350.061 83.711,349.130 83.266,348.800 82.981 C 348.470 82.696,347.660 82.331,347.000 82.170 C 346.340 82.009,345.371 81.545,344.846 81.139 C 344.321 80.733,343.421 80.399,342.846 80.399 C 342.271 80.398,341.254 80.064,340.586 79.657 C 339.919 79.250,338.479 78.786,337.386 78.627 C 336.294 78.468,334.982 78.069,334.472 77.741 C 333.962 77.413,332.028 76.989,330.174 76.797 C 328.320 76.606,326.635 76.345,326.428 76.217 C 326.051 75.984,323.191 75.558,316.800 74.783 C 314.930 74.556,312.770 74.192,312.000 73.974 C 311.230 73.756,307.450 73.313,303.600 72.990 C 299.750 72.667,295.610 72.223,294.400 72.004 C 288.493 70.934,171.078 70.412,120.508 71.231 M216.200 118.022 C 225.766 118.471,234.703 119.273,242.151 120.351 C 247.921 121.187,248.598 121.701,248.256 124.985 C 248.140 126.093,247.852 129.867,247.616 133.371 C 247.221 139.227,247.104 139.850,246.173 141.071 L 245.159 142.400 198.249 142.400 L 151.339 142.400 150.411 141.412 C 149.642 140.593,149.429 139.786,149.168 136.686 C 148.994 134.629,148.586 132.239,148.260 131.374 C 147.606 129.638,147.076 123.898,147.443 122.533 C 147.724 121.488,148.972 120.948,152.303 120.432 C 153.680 120.218,154.963 119.946,155.155 119.828 C 155.708 119.486,170.453 117.937,176.400 117.595 C 182.886 117.223,204.013 117.449,216.200 118.022 M2.180 158.779 C 1.672 159.286,2.449 170.738,3.064 171.807 C 3.320 172.251,3.652 173.272,3.803 174.076 C 4.291 176.677,6.993 179.031,9.837 179.334 C 25.104 180.963,80.926 180.888,88.445 179.229 C 92.356 178.366,95.488 172.021,97.217 161.461 C 97.427 160.175,97.499 158.960,97.376 158.761 C 97.068 158.264,2.679 158.281,2.180 158.779 M302.522 159.060 C 302.153 160.022,303.065 170.897,303.809 174.400 C 304.421 177.287,305.664 179.200,306.925 179.200 C 307.146 179.200,311.172 179.571,315.871 180.025 C 325.440 180.949,382.043 181.012,386.000 180.103 C 386.990 179.876,388.856 179.564,390.148 179.410 C 392.686 179.108,396.400 176.248,396.400 174.595 C 396.400 174.192,396.690 173.543,397.044 173.151 C 397.969 172.130,398.779 159.286,397.952 158.762 C 396.791 158.027,302.805 158.320,302.522 159.060 M208.090 165.988 C 209.350 166.435,211.156 166.800,212.105 166.800 C 213.054 166.800,214.497 167.140,215.311 167.555 C 216.125 167.970,217.468 168.436,218.296 168.591 C 219.123 168.746,220.250 169.115,220.800 169.409 C 221.350 169.704,223.150 170.608,224.800 171.417 C 228.073 173.022,231.659 175.463,234.270 177.864 C 235.189 178.709,236.793 180.120,237.836 181.000 C 240.786 183.491,246.000 189.491,246.000 190.394 C 246.000 190.550,246.360 191.093,246.800 191.600 C 247.240 192.107,247.600 192.722,247.600 192.965 C 247.600 193.208,247.944 193.622,248.364 193.885 C 248.784 194.147,249.249 194.910,249.396 195.581 C 249.543 196.251,249.805 196.800,249.978 196.800 C 250.337 196.800,251.694 199.770,253.085 203.600 C 256.518 213.048,256.742 226.749,253.605 235.400 C 251.624 240.864,250.661 243.063,249.964 243.716 C 249.544 244.109,249.200 244.713,249.200 245.058 C 249.200 245.673,247.971 247.408,246.398 249.014 C 245.959 249.462,245.600 250.066,245.600 250.357 C 245.600 251.919,234.016 263.600,232.466 263.600 C 232.231 263.600,231.896 263.833,231.720 264.117 C 231.283 264.822,226.037 268.212,224.800 268.587 C 224.250 268.755,223.260 269.211,222.600 269.602 C 221.940 269.994,220.770 270.443,220.000 270.601 C 219.230 270.760,218.282 271.170,217.894 271.512 C 217.505 271.855,216.173 272.273,214.933 272.441 C 213.694 272.610,212.556 272.947,212.406 273.191 C 212.255 273.435,210.887 273.814,209.366 274.033 C 207.845 274.252,205.700 274.624,204.600 274.859 C 201.526 275.516,192.693 275.785,191.697 275.252 C 191.236 275.005,189.000 274.606,186.729 274.365 C 184.458 274.125,182.196 273.671,181.703 273.357 C 181.210 273.043,179.950 272.681,178.903 272.552 C 177.856 272.424,176.543 272.000,175.984 271.610 C 175.426 271.220,174.346 270.769,173.584 270.609 C 171.194 270.105,166.024 267.374,163.000 265.018 C 162.120 264.332,160.924 263.471,160.342 263.104 C 158.740 262.094,149.286 252.501,148.998 251.594 C 148.859 251.157,148.605 250.800,148.433 250.800 C 147.448 250.800,142.368 240.540,141.818 237.442 C 141.666 236.584,141.296 235.504,140.995 235.042 C 140.694 234.579,140.328 233.210,140.182 232.000 C 140.036 230.790,139.626 228.810,139.271 227.600 C 138.395 224.611,138.404 216.613,139.287 213.600 C 139.642 212.390,140.046 210.435,140.186 209.256 C 140.325 208.077,140.683 206.727,140.980 206.256 C 141.277 205.785,141.708 204.496,141.936 203.392 C 142.165 202.287,142.632 200.847,142.974 200.192 C 143.315 199.536,143.596 198.778,143.598 198.506 C 143.601 197.760,145.892 193.635,147.434 191.600 C 148.183 190.610,148.990 189.350,149.225 188.800 C 150.280 186.337,163.083 174.797,166.945 172.828 C 167.689 172.449,168.795 171.747,169.403 171.269 C 170.011 170.791,170.799 170.399,171.154 170.399 C 171.509 170.398,172.386 170.040,173.103 169.603 C 173.819 169.166,175.169 168.695,176.103 168.557 C 177.036 168.419,178.234 168.034,178.764 167.701 C 179.295 167.369,181.068 166.947,182.705 166.763 C 184.343 166.580,185.952 166.206,186.282 165.932 C 187.918 164.574,204.221 164.616,208.090 165.988 " stroke="none" fill="#060684" fill-rule="evenodd"></path><path id="path1" d="M0.000 71.400 C 0.000 131.000,0.089 142.800,0.539 142.800 C 0.955 142.800,1.131 141.486,1.311 137.033 C 1.471 133.091,1.735 130.900,2.144 130.108 C 2.474 129.471,2.867 127.791,3.019 126.375 C 3.171 124.959,3.521 123.260,3.797 122.600 C 4.073 121.940,4.505 120.651,4.755 119.735 C 5.309 117.713,8.572 111.317,9.633 110.174 C 10.055 109.720,10.400 109.233,10.400 109.092 C 10.400 108.952,10.805 108.409,11.300 107.886 C 11.795 107.363,12.650 106.341,13.200 105.614 C 16.021 101.887,25.325 93.600,26.689 93.600 C 26.970 93.600,27.200 93.411,27.200 93.180 C 27.200 92.948,27.799 92.509,28.532 92.203 C 29.264 91.897,30.087 91.377,30.359 91.049 C 30.632 90.720,31.368 90.339,31.994 90.201 C 32.621 90.064,33.226 89.709,33.340 89.413 C 33.453 89.117,34.086 88.757,34.745 88.612 C 35.405 88.467,36.152 88.099,36.404 87.795 C 36.657 87.490,37.480 87.038,38.232 86.789 C 38.984 86.541,39.600 86.186,39.600 86.000 C 39.600 85.814,40.275 85.448,41.100 85.186 C 41.925 84.925,42.960 84.494,43.400 84.230 C 43.840 83.966,45.730 83.159,47.600 82.437 C 49.470 81.715,51.720 80.795,52.600 80.391 C 53.480 79.987,54.827 79.530,55.594 79.376 C 56.361 79.221,57.351 78.858,57.794 78.568 C 58.237 78.278,59.410 77.913,60.400 77.758 C 61.390 77.602,62.560 77.247,63.000 76.968 C 63.440 76.689,64.836 76.274,66.101 76.044 C 67.367 75.814,68.788 75.421,69.258 75.169 C 69.729 74.917,71.303 74.561,72.757 74.377 C 74.211 74.193,75.940 73.784,76.600 73.466 C 77.260 73.149,79.206 72.771,80.923 72.626 C 82.641 72.481,84.510 72.186,85.077 71.971 C 86.281 71.513,99.251 70.109,107.600 69.532 C 110.978 69.299,145.050 69.049,189.200 68.932 C 266.095 68.730,280.533 68.904,294.200 70.202 C 297.500 70.515,302.360 70.956,305.000 71.181 C 307.640 71.407,311.060 71.860,312.600 72.189 C 314.140 72.517,316.226 72.789,317.236 72.793 C 318.246 72.797,319.956 73.075,321.036 73.411 C 322.116 73.746,324.415 74.191,326.144 74.398 C 327.873 74.605,329.528 74.974,329.821 75.217 C 330.113 75.460,331.669 75.840,333.277 76.062 C 334.884 76.284,336.470 76.698,336.800 76.984 C 337.130 77.269,338.284 77.630,339.366 77.785 C 340.447 77.941,341.974 78.413,342.760 78.834 C 343.545 79.255,344.551 79.601,344.994 79.603 C 345.437 79.604,346.340 79.963,347.000 80.400 C 347.660 80.837,348.439 81.196,348.732 81.197 C 349.024 81.199,351.125 82.100,353.400 83.200 C 355.675 84.300,357.703 85.200,357.907 85.200 C 358.111 85.200,358.693 85.560,359.200 86.000 C 359.707 86.440,360.433 86.800,360.812 86.800 C 361.192 86.800,361.735 87.080,362.019 87.423 C 362.304 87.766,363.091 88.310,363.768 88.632 C 367.919 90.604,370.536 92.298,375.931 96.506 C 381.110 100.546,389.600 109.617,389.600 111.110 C 389.600 111.325,389.885 111.738,390.233 112.027 C 392.050 113.535,397.200 126.354,397.200 129.368 C 397.200 129.958,397.472 130.966,397.805 131.610 C 398.138 132.253,398.506 133.909,398.624 135.290 C 399.836 149.526,400.000 141.810,400.000 70.600 L 400.000 0.000 200.000 0.000 L 0.000 0.000 0.000 71.400 M173.600 119.558 C 169.970 119.691,166.778 119.944,166.507 120.119 C 166.235 120.295,163.355 120.774,160.107 121.184 C 156.858 121.594,153.120 122.171,151.800 122.467 L 149.400 123.005 149.495 125.802 C 149.613 129.240,151.424 139.584,152.011 140.171 C 152.768 140.928,244.433 140.759,244.814 140.000 C 245.982 137.676,247.165 124.194,246.278 123.307 C 245.708 122.737,242.847 122.257,235.000 121.416 C 231.920 121.086,227.240 120.554,224.600 120.235 C 219.244 119.588,185.120 119.135,173.600 119.558 M125.400 128.278 C 123.420 128.563,121.145 129.158,120.346 129.598 C 119.546 130.039,118.523 130.400,118.074 130.400 C 117.625 130.400,117.011 130.646,116.710 130.947 C 116.409 131.248,115.721 131.627,115.181 131.789 C 113.642 132.252,109.181 135.401,107.200 137.424 C 106.210 138.435,104.995 139.673,104.500 140.177 C 104.005 140.680,103.600 141.392,103.600 141.758 C 103.600 142.125,103.346 142.522,103.037 142.641 C 102.727 142.760,102.261 143.430,102.001 144.129 C 101.741 144.828,101.298 145.850,101.016 146.400 C 100.734 146.950,100.282 148.346,100.011 149.503 C 99.049 153.614,104.498 153.231,48.736 153.108 L -0.000 153.000 -0.000 154.800 L -0.000 156.600 48.986 156.492 L 97.971 156.385 98.635 157.398 C 99.925 159.366,97.770 170.437,95.249 174.798 C 91.614 181.085,90.372 181.463,72.400 181.762 C 46.869 182.186,10.667 181.504,7.980 180.549 C 5.865 179.797,3.200 177.615,3.200 176.635 C 3.200 176.389,2.814 175.471,2.342 174.594 C 1.705 173.412,1.433 172.045,1.287 169.300 C 1.141 166.538,0.953 165.600,0.545 165.600 C 0.086 165.600,0.000 184.093,0.000 282.800 L 0.000 400.000 200.000 400.000 L 400.000 400.000 400.000 284.200 C 400.000 217.459,399.850 168.400,399.647 168.400 C 399.171 168.400,398.812 169.851,398.805 171.803 C 398.796 174.714,395.551 179.499,393.111 180.201 C 392.610 180.346,391.570 180.764,390.800 181.132 C 389.520 181.743,386.013 181.798,350.000 181.778 L 310.600 181.755 307.485 180.703 C 302.696 179.086,302.043 178.012,301.582 171.000 C 301.409 168.360,301.135 164.454,300.975 162.320 C 300.726 159.027,300.784 158.285,301.354 157.414 L 302.027 156.388 351.013 156.494 L 400.000 156.600 400.000 154.800 L 400.000 153.000 351.464 153.108 L 302.928 153.215 301.871 152.384 C 300.919 151.636,298.000 146.226,298.000 145.211 C 298.000 144.985,297.832 144.800,297.627 144.800 C 297.422 144.800,297.144 144.453,297.009 144.029 C 296.763 143.252,293.592 139.260,291.390 136.954 C 289.935 135.430,285.215 132.000,284.574 132.000 C 284.318 132.000,283.679 131.668,283.154 131.262 C 282.629 130.856,281.582 130.404,280.826 130.257 C 280.071 130.111,279.153 129.719,278.787 129.388 C 277.866 128.555,271.528 127.796,270.425 128.387 C 269.630 128.812,269.600 129.150,269.600 137.602 C 269.600 148.040,269.009 146.423,276.491 156.455 C 278.191 158.735,280.261 161.537,281.091 162.683 C 281.921 163.829,282.735 164.774,282.900 164.783 C 283.065 164.792,283.200 164.997,283.200 165.237 C 283.200 165.477,283.569 166.152,284.020 166.737 C 288.205 172.165,289.226 173.535,292.076 177.554 C 293.108 179.009,294.259 180.509,294.633 180.888 C 295.008 181.266,295.513 181.915,295.757 182.330 C 296.001 182.746,296.740 183.858,297.400 184.803 C 298.060 185.747,298.709 186.718,298.841 186.960 C 299.554 188.260,300.463 190.408,300.974 192.000 C 301.291 192.990,302.477 196.410,303.608 199.600 C 304.740 202.790,305.918 206.210,306.226 207.200 C 306.805 209.063,308.376 213.449,309.090 215.200 C 309.314 215.750,309.630 216.830,309.792 217.600 C 309.954 218.370,310.427 219.561,310.843 220.247 C 311.259 220.933,311.600 221.902,311.600 222.400 C 311.600 222.898,311.938 223.867,312.351 224.553 C 312.765 225.239,313.216 226.440,313.355 227.222 C 313.494 228.005,313.966 229.348,314.404 230.207 C 314.842 231.066,315.200 232.019,315.200 232.324 C 315.200 232.629,315.459 233.446,315.775 234.140 C 316.092 234.833,316.625 236.300,316.961 237.400 C 317.297 238.500,318.126 240.930,318.805 242.800 C 319.483 244.670,320.223 246.830,320.450 247.600 C 320.676 248.370,321.208 249.732,321.631 250.626 C 322.054 251.521,322.400 252.635,322.400 253.103 C 322.400 253.571,322.743 254.550,323.161 255.277 C 323.580 256.005,324.053 257.230,324.212 258.000 C 324.372 258.770,324.749 259.755,325.051 260.189 C 325.353 260.623,325.602 261.343,325.604 261.789 C 325.606 262.235,326.050 263.500,326.591 264.600 C 327.132 265.700,327.581 266.965,327.587 267.411 C 327.594 267.857,327.852 268.582,328.161 269.023 C 328.469 269.463,328.930 270.628,329.184 271.612 C 329.439 272.595,329.918 273.992,330.249 274.715 C 331.943 278.413,332.000 279.389,332.000 304.931 C 332.000 326.450,331.924 329.530,331.377 330.311 L 330.755 331.200 197.626 331.200 C 85.015 331.200,64.427 331.115,64.040 330.649 C 63.221 329.661,63.621 277.886,64.455 276.942 C 64.816 276.534,65.245 275.570,65.409 274.800 C 65.573 274.030,66.043 272.773,66.453 272.006 C 66.864 271.239,67.200 270.374,67.200 270.084 C 67.200 269.794,67.537 268.801,67.948 267.878 C 69.218 265.029,71.200 259.656,71.200 259.062 C 71.200 258.752,71.451 258.290,71.758 258.035 C 72.065 257.780,72.425 256.990,72.559 256.278 C 72.692 255.567,73.161 254.314,73.601 253.494 C 74.040 252.674,74.400 251.708,74.400 251.349 C 74.400 250.989,74.738 250.133,75.151 249.447 C 75.565 248.761,76.024 247.516,76.173 246.679 C 76.322 245.842,76.704 245.058,77.022 244.936 C 77.340 244.814,77.602 244.329,77.604 243.857 C 77.606 243.386,78.050 242.100,78.591 241.000 C 79.132 239.900,79.581 238.742,79.587 238.426 C 79.594 238.111,79.928 237.121,80.329 236.226 C 80.730 235.332,81.292 233.970,81.580 233.200 C 83.882 227.027,84.416 225.581,84.980 224.000 C 85.666 222.076,85.784 221.790,87.299 218.400 C 87.840 217.190,88.496 215.435,88.757 214.500 C 89.018 213.565,89.385 212.800,89.572 212.800 C 89.758 212.800,90.034 212.125,90.185 211.300 C 90.336 210.475,90.688 209.440,90.968 209.000 C 91.248 208.560,91.789 207.257,92.169 206.105 C 92.550 204.952,93.027 203.907,93.231 203.781 C 93.434 203.656,93.600 203.217,93.600 202.807 C 93.600 202.078,95.453 196.995,96.592 194.600 C 96.905 193.940,97.354 192.680,97.588 191.800 C 97.822 190.920,98.280 189.851,98.606 189.424 C 98.933 188.996,99.200 188.360,99.200 188.008 C 99.200 187.657,99.540 186.702,99.956 185.886 C 100.372 185.070,100.834 183.906,100.982 183.301 C 101.222 182.315,103.003 179.313,103.650 178.800 C 103.789 178.690,104.960 177.334,106.252 175.787 C 109.611 171.763,109.619 171.753,111.600 169.576 C 112.590 168.488,113.706 167.193,114.081 166.699 C 115.032 165.444,124.157 154.679,127.800 150.513 C 130.330 147.621,130.400 147.273,130.400 137.616 C 130.400 126.995,130.680 127.518,125.400 128.278 M189.000 167.053 C 181.568 168.204,177.740 169.265,173.624 171.317 C 171.987 172.133,170.434 172.800,170.173 172.800 C 169.912 172.800,169.462 173.085,169.173 173.433 C 168.884 173.781,168.077 174.366,167.380 174.733 C 165.903 175.510,162.826 177.529,162.153 178.163 C 161.898 178.403,161.180 178.960,160.558 179.400 C 157.947 181.247,149.600 190.282,149.600 191.260 C 149.600 191.425,149.055 192.368,148.388 193.356 C 146.824 195.673,144.417 200.423,144.407 201.211 C 144.403 201.547,144.132 202.205,143.804 202.673 C 143.476 203.141,143.008 204.486,142.764 205.662 C 142.520 206.838,142.099 208.160,141.829 208.600 C 140.320 211.058,140.264 230.859,141.761 232.756 C 142.003 233.061,142.496 234.411,142.858 235.756 C 143.647 238.686,144.723 241.626,145.233 242.240 C 145.437 242.486,146.258 243.927,147.058 245.443 C 147.858 246.959,148.757 248.344,149.056 248.520 C 149.355 248.696,149.600 249.009,149.600 249.216 C 149.600 249.552,151.328 251.979,152.843 253.770 C 154.227 255.408,158.004 259.110,159.402 260.200 C 160.249 260.860,161.143 261.602,161.390 261.848 C 161.637 262.095,162.415 262.594,163.120 262.958 C 163.824 263.323,164.400 263.796,164.400 264.010 C 164.400 264.225,164.656 264.400,164.969 264.400 C 165.282 264.400,166.047 264.812,166.669 265.316 C 167.291 265.819,169.060 266.851,170.600 267.608 C 172.140 268.365,173.490 269.100,173.600 269.242 C 173.710 269.383,174.430 269.634,175.200 269.799 C 175.970 269.963,177.268 270.436,178.084 270.849 C 178.900 271.262,180.070 271.602,180.684 271.605 C 181.298 271.608,182.970 271.995,184.400 272.464 C 188.391 273.775,205.816 273.782,209.386 272.474 C 210.699 271.993,212.256 271.600,212.846 271.600 C 213.437 271.600,214.883 271.152,216.060 270.604 C 217.237 270.056,218.493 269.606,218.851 269.604 C 219.209 269.602,219.702 269.359,219.946 269.065 C 220.191 268.770,221.113 268.313,221.995 268.049 C 222.878 267.784,223.600 267.422,223.600 267.245 C 223.600 267.067,224.275 266.620,225.100 266.252 C 227.434 265.210,228.901 264.360,230.131 263.339 C 230.753 262.823,231.399 262.400,231.567 262.400 C 232.107 262.400,235.300 259.514,239.305 255.406 C 244.549 250.026,244.800 249.754,244.800 249.466 C 244.800 249.328,245.475 248.198,246.300 246.954 C 249.166 242.633,250.899 238.327,252.803 230.800 C 254.387 224.539,254.379 215.564,252.783 209.600 C 251.532 204.927,249.709 199.629,248.724 197.809 C 248.126 196.704,247.320 195.176,246.932 194.413 C 246.544 193.651,245.985 192.751,245.690 192.413 C 245.395 192.076,244.246 190.630,243.139 189.200 C 239.633 184.675,230.950 176.400,229.708 176.400 C 229.482 176.400,229.062 176.115,228.773 175.767 C 228.484 175.419,227.672 174.834,226.968 174.467 C 223.617 172.720,219.712 170.855,218.900 170.614 C 218.405 170.466,218.000 170.199,218.000 170.018 C 218.000 169.838,217.156 169.564,216.124 169.409 C 215.091 169.255,213.375 168.784,212.309 168.364 C 211.243 167.944,209.612 167.594,208.685 167.586 C 207.758 167.578,205.830 167.315,204.400 167.000 C 201.151 166.285,193.797 166.311,189.000 167.053 " stroke="none" fill="#fbfbfb" fill-rule="evenodd"></path><path id="path2" d="M149.728 69.900 C 155.629 69.962,165.169 69.962,170.928 69.900 C 176.688 69.837,171.860 69.786,160.200 69.786 C 148.540 69.786,143.828 69.837,149.728 69.900 M223.529 69.900 C 230.199 69.961,240.999 69.961,247.529 69.900 C 254.058 69.838,248.600 69.788,235.400 69.788 C 222.200 69.788,216.858 69.838,223.529 69.900 M123.900 70.299 C 126.595 70.368,131.005 70.368,133.700 70.299 C 136.395 70.230,134.190 70.173,128.800 70.173 C 123.410 70.173,121.205 70.230,123.900 70.299 M263.300 70.298 C 265.225 70.371,268.375 70.371,270.300 70.298 C 272.225 70.225,270.650 70.165,266.800 70.165 C 262.950 70.165,261.375 70.225,263.300 70.298 M110.313 70.695 C 111.476 70.776,113.276 70.776,114.313 70.693 C 115.351 70.611,114.400 70.545,112.200 70.546 C 110.000 70.547,109.151 70.614,110.313 70.695 M280.713 70.695 C 281.876 70.776,283.676 70.776,284.713 70.693 C 285.751 70.611,284.800 70.545,282.600 70.546 C 280.400 70.547,279.551 70.614,280.713 70.695 M100.100 71.076 C 100.485 71.176,101.115 71.176,101.500 71.076 C 101.885 70.975,101.570 70.893,100.800 70.893 C 100.030 70.893,99.715 70.975,100.100 71.076 M292.700 71.082 C 293.195 71.178,294.005 71.178,294.500 71.082 C 294.995 70.987,294.590 70.909,293.600 70.909 C 292.610 70.909,292.205 70.987,292.700 71.082 M96.900 71.476 C 97.285 71.576,97.915 71.576,98.300 71.476 C 98.685 71.375,98.370 71.293,97.600 71.293 C 96.830 71.293,96.515 71.375,96.900 71.476 M91.300 72.276 C 91.685 72.376,92.315 72.376,92.700 72.276 C 93.085 72.175,92.770 72.093,92.000 72.093 C 91.230 72.093,90.915 72.175,91.300 72.276 M302.100 72.276 C 302.485 72.376,303.115 72.376,303.500 72.276 C 303.885 72.175,303.570 72.093,302.800 72.093 C 302.030 72.093,301.715 72.175,302.100 72.276 M307.700 72.676 C 308.085 72.776,308.715 72.776,309.100 72.676 C 309.485 72.575,309.170 72.493,308.400 72.493 C 307.630 72.493,307.315 72.575,307.700 72.676 M78.000 74.018 C 77.562 74.315,77.724 74.352,78.600 74.156 C 80.071 73.827,80.390 73.598,79.367 73.606 C 78.945 73.609,78.330 73.795,78.000 74.018 M317.400 74.000 C 319.092 74.431,320.544 74.431,319.200 74.000 C 318.650 73.824,317.750 73.683,317.200 73.687 C 316.302 73.694,316.322 73.726,317.400 74.000 M324.500 75.076 C 324.885 75.176,325.515 75.176,325.900 75.076 C 326.285 74.975,325.970 74.893,325.200 74.893 C 324.430 74.893,324.115 74.975,324.500 75.076 M174.291 118.689 C 175.001 118.777,176.261 118.779,177.091 118.692 C 177.921 118.605,177.340 118.533,175.800 118.531 C 174.260 118.529,173.581 118.600,174.291 118.689 M204.316 118.697 C 205.699 118.775,207.859 118.774,209.116 118.695 C 210.372 118.616,209.240 118.552,206.600 118.553 C 203.960 118.553,202.932 118.618,204.316 118.697 M167.505 119.083 C 168.002 119.179,168.722 119.175,169.105 119.075 C 169.487 118.975,169.080 118.896,168.200 118.901 C 167.320 118.905,167.007 118.987,167.505 119.083 M219.900 119.089 C 220.615 119.178,221.785 119.178,222.500 119.089 C 223.215 119.001,222.630 118.928,221.200 118.928 C 219.770 118.928,219.185 119.001,219.900 119.089 M225.905 119.483 C 226.402 119.579,227.122 119.575,227.505 119.475 C 227.887 119.375,227.480 119.296,226.600 119.301 C 225.720 119.305,225.407 119.387,225.905 119.483 M161.300 119.876 C 161.685 119.976,162.315 119.976,162.700 119.876 C 163.085 119.775,162.770 119.693,162.000 119.693 C 161.230 119.693,160.915 119.775,161.300 119.876 M232.100 120.276 C 232.485 120.376,233.115 120.376,233.500 120.276 C 233.885 120.175,233.570 120.093,232.800 120.093 C 232.030 120.093,231.715 120.175,232.100 120.276 M155.700 120.676 C 156.085 120.776,156.715 120.776,157.100 120.676 C 157.485 120.575,157.170 120.493,156.400 120.493 C 155.630 120.493,155.315 120.575,155.700 120.676 M236.100 120.676 C 236.485 120.776,237.115 120.776,237.500 120.676 C 237.885 120.575,237.570 120.493,236.800 120.493 C 236.030 120.493,235.715 120.575,236.100 120.676 M242.900 121.476 C 243.285 121.576,243.915 121.576,244.300 121.476 C 244.685 121.375,244.370 121.293,243.600 121.293 C 242.830 121.293,242.515 121.375,242.900 121.476 M148.598 122.402 C 147.575 123.532,148.010 123.637,149.086 122.520 C 149.573 122.014,149.826 121.600,149.648 121.600 C 149.470 121.600,148.997 121.961,148.598 122.402 M246.514 122.520 C 247.001 123.026,247.474 123.387,247.564 123.323 C 247.798 123.155,246.342 121.600,245.952 121.600 C 245.774 121.600,246.027 122.014,246.514 122.520 M148.093 125.600 C 148.093 126.370,148.175 126.685,148.276 126.300 C 148.376 125.915,148.376 125.285,148.276 124.900 C 148.175 124.515,148.093 124.830,148.093 125.600 M148.456 128.800 C 148.456 129.130,148.611 129.760,148.800 130.200 C 149.017 130.704,149.144 130.778,149.144 130.400 C 149.144 130.070,148.989 129.440,148.800 129.000 C 148.583 128.496,148.456 128.422,148.456 128.800 M131.370 137.200 C 131.370 141.930,131.428 143.865,131.498 141.500 C 131.569 139.135,131.569 135.265,131.498 132.900 C 131.428 130.535,131.370 132.470,131.370 137.200 M246.901 133.400 C 246.905 134.280,246.987 134.593,247.083 134.095 C 247.179 133.598,247.175 132.878,247.075 132.495 C 246.975 132.113,246.896 132.520,246.901 133.400 M106.378 136.700 L 105.000 138.200 106.500 136.822 C 107.325 136.063,108.000 135.388,108.000 135.322 C 108.000 135.016,107.662 135.304,106.378 136.700 M1.714 137.800 C 1.717 138.900,1.795 139.303,1.887 138.695 C 1.979 138.086,1.977 137.186,1.882 136.695 C 1.787 136.203,1.711 136.700,1.714 137.800 M245.530 140.018 C 245.161 140.888,244.931 141.600,245.019 141.600 C 245.313 141.600,246.450 139.151,246.324 138.791 C 246.256 138.596,245.898 139.149,245.530 140.018 M175.900 141.900 C 188.495 141.959,209.105 141.959,221.700 141.900 C 234.295 141.841,223.990 141.793,198.800 141.793 C 173.610 141.793,163.305 141.841,175.900 141.900 M1.293 145.200 C 1.293 145.970,1.375 146.285,1.476 145.900 C 1.576 145.515,1.576 144.885,1.476 144.500 C 1.375 144.115,1.293 144.430,1.293 145.200 M399.104 147.314 C 399.297 150.189,399.239 150.510,398.356 151.492 L 397.400 152.555 398.678 151.577 C 399.950 150.604,400.720 146.400,399.627 146.400 C 399.421 146.400,399.172 145.905,399.074 145.300 C 398.975 144.695,398.989 145.601,399.104 147.314 M0.000 149.600 C 0.000 150.400,0.200 150.800,0.600 150.800 C 1.000 150.800,1.200 150.400,1.200 149.600 C 1.200 148.800,1.000 148.400,0.600 148.400 C 0.200 148.400,0.000 148.800,0.000 149.600 M302.162 151.500 C 302.581 151.995,303.301 152.379,303.762 152.354 C 304.568 152.309,304.569 152.300,303.800 152.112 C 303.360 152.005,302.640 151.621,302.200 151.259 C 301.407 150.605,301.406 150.607,302.162 151.500 M1.600 157.800 C 1.326 158.130,0.854 158.400,0.551 158.400 C 0.188 158.400,0.000 158.878,0.000 159.800 C 0.000 160.778,0.181 161.200,0.600 161.200 C 1.007 161.200,1.200 160.792,1.200 159.931 C 1.200 159.234,1.498 158.334,1.862 157.931 C 2.226 157.529,2.428 157.200,2.311 157.200 C 2.194 157.200,1.874 157.470,1.600 157.800 M27.500 157.500 C 40.315 157.559,61.285 157.559,74.100 157.500 C 86.915 157.441,76.430 157.393,50.800 157.393 C 25.170 157.393,14.685 157.441,27.500 157.500 M302.349 157.900 C 301.863 158.520,301.873 158.543,302.439 158.102 C 302.939 157.712,313.170 157.581,349.439 157.500 L 395.800 157.397 349.349 157.298 C 305.518 157.206,302.867 157.239,302.349 157.900 M398.360 158.093 C 399.251 159.101,399.306 159.418,399.123 162.490 C 399.014 164.310,398.999 165.305,399.089 164.700 C 399.179 164.095,399.421 163.600,399.627 163.600 C 399.832 163.600,400.000 162.430,400.000 161.000 C 400.000 159.280,399.841 158.400,399.531 158.400 C 399.274 158.400,398.689 158.086,398.231 157.703 C 397.613 157.184,397.646 157.284,398.360 158.093 M121.375 159.300 L 120.200 160.600 121.500 159.425 C 122.712 158.330,122.984 158.000,122.675 158.000 C 122.606 158.000,122.021 158.585,121.375 159.300 M301.728 161.200 C 301.728 162.630,301.801 163.215,301.889 162.500 C 301.978 161.785,301.978 160.615,301.889 159.900 C 301.801 159.185,301.728 159.770,301.728 161.200 M118.175 162.900 L 117.000 164.200 118.300 163.025 C 119.015 162.379,119.600 161.794,119.600 161.725 C 119.600 161.416,119.270 161.688,118.175 162.900 M96.629 167.429 C 96.481 168.015,96.438 168.572,96.532 168.666 C 96.627 168.760,96.824 168.358,96.971 167.771 C 97.119 167.185,97.162 166.628,97.068 166.534 C 96.973 166.440,96.776 166.842,96.629 167.429 M302.114 168.600 C 302.117 169.700,302.195 170.103,302.287 169.495 C 302.379 168.886,302.377 167.986,302.282 167.495 C 302.187 167.003,302.111 167.500,302.114 168.600 M1.701 169.400 C 1.705 170.280,1.787 170.593,1.883 170.095 C 1.979 169.598,1.975 168.878,1.875 168.495 C 1.775 168.113,1.696 168.520,1.701 169.400 M109.775 172.900 L 108.600 174.200 109.900 173.025 C 111.112 171.930,111.384 171.600,111.075 171.600 C 111.006 171.600,110.421 172.185,109.775 172.900 M287.199 172.700 C 287.722 173.415,288.213 174.000,288.289 174.000 C 288.593 174.000,287.601 172.500,286.945 171.967 C 286.513 171.616,286.610 171.896,287.199 172.700 M289.564 175.933 C 289.780 176.336,290.271 176.921,290.655 177.233 C 291.087 177.584,290.990 177.304,290.401 176.500 C 289.351 175.065,288.957 174.798,289.564 175.933 M394.975 177.700 L 393.800 179.000 395.100 177.825 C 395.815 177.179,396.400 176.594,396.400 176.525 C 396.400 176.216,396.070 176.488,394.975 177.700 M13.907 180.690 C 14.626 180.779,15.706 180.777,16.307 180.686 C 16.908 180.595,16.320 180.522,15.000 180.524 C 13.680 180.526,13.188 180.601,13.907 180.690 M27.100 181.099 C 30.675 181.166,36.525 181.166,40.100 181.099 C 43.675 181.033,40.750 180.979,33.600 180.979 C 26.450 180.979,23.525 181.033,27.100 181.099 M75.700 181.096 C 76.965 181.175,79.035 181.175,80.300 181.096 C 81.565 181.016,80.530 180.951,78.000 180.951 C 75.470 180.951,74.435 181.016,75.700 181.096 M315.891 181.089 C 316.601 181.177,317.861 181.179,318.691 181.092 C 319.521 181.005,318.940 180.933,317.400 180.931 C 315.860 180.929,315.181 181.000,315.891 181.089 M383.305 181.087 C 383.914 181.179,384.814 181.177,385.305 181.082 C 385.797 180.987,385.300 180.911,384.200 180.914 C 383.100 180.917,382.697 180.995,383.305 181.087 M238.800 183.000 C 239.546 183.770,240.247 184.400,240.357 184.400 C 240.467 184.400,239.946 183.770,239.200 183.000 C 238.454 182.230,237.753 181.600,237.643 181.600 C 237.533 181.600,238.054 182.230,238.800 183.000 M254.501 214.200 C 254.505 215.080,254.587 215.393,254.683 214.895 C 254.779 214.398,254.775 213.678,254.675 213.295 C 254.575 212.913,254.496 213.320,254.501 214.200 M139.342 220.600 C 139.341 222.580,139.408 223.440,139.492 222.512 C 139.576 221.584,139.577 219.964,139.495 218.912 C 139.412 217.860,139.343 218.620,139.342 220.600 M254.942 220.600 C 254.941 222.580,255.008 223.440,255.092 222.512 C 255.176 221.584,255.177 219.964,255.095 218.912 C 255.012 217.860,254.943 218.620,254.942 220.600 M254.493 226.400 C 254.493 227.170,254.575 227.485,254.676 227.100 C 254.776 226.715,254.776 226.085,254.676 225.700 C 254.575 225.315,254.493 225.630,254.493 226.400 M140.493 230.800 C 140.493 231.570,140.575 231.885,140.676 231.500 C 140.776 231.115,140.776 230.485,140.676 230.100 C 140.575 229.715,140.493 230.030,140.493 230.800 M315.228 236.200 C 315.228 236.420,315.486 237.050,315.800 237.600 C 316.114 238.150,316.372 238.420,316.372 238.200 C 316.372 237.980,316.114 237.350,315.800 236.800 C 315.486 236.250,315.228 235.980,315.228 236.200 M147.261 248.023 C 147.762 248.915,148.417 249.848,148.715 250.096 C 149.013 250.343,148.678 249.613,147.969 248.473 C 146.441 246.014,145.960 245.709,147.261 248.023 M229.300 264.840 C 228.365 265.502,227.600 266.133,227.600 266.241 C 227.600 266.350,228.410 265.881,229.400 265.200 C 230.390 264.519,231.200 263.880,231.200 263.781 C 231.200 263.505,231.124 263.548,229.300 264.840 M202.305 274.283 C 202.802 274.379,203.522 274.375,203.905 274.275 C 204.287 274.175,203.880 274.096,203.000 274.101 C 202.120 274.105,201.807 274.187,202.305 274.283 M194.300 274.693 C 195.235 274.777,196.765 274.777,197.700 274.693 C 198.635 274.609,197.870 274.540,196.000 274.540 C 194.130 274.540,193.365 274.609,194.300 274.693 " stroke="none" fill="#7c7cbb" fill-rule="evenodd"></path><path id="path3" d="M118.400 69.070 C 117.630 69.139,113.490 69.372,109.200 69.587 C 100.294 70.035,86.613 71.387,85.079 71.970 C 84.511 72.186,82.641 72.481,80.923 72.626 C 79.206 72.771,77.260 73.149,76.600 73.466 C 75.940 73.784,74.211 74.193,72.757 74.377 C 71.303 74.561,69.729 74.917,69.258 75.169 C 68.788 75.421,67.367 75.814,66.101 76.044 C 64.836 76.274,63.440 76.689,63.000 76.968 C 62.560 77.247,61.390 77.602,60.400 77.758 C 59.410 77.913,58.237 78.278,57.794 78.568 C 57.351 78.858,56.361 79.221,55.594 79.376 C 54.827 79.530,53.480 79.987,52.600 80.391 C 51.720 80.795,49.470 81.715,47.600 82.437 C 45.730 83.159,43.840 83.966,43.400 84.230 C 42.960 84.494,41.925 84.925,41.100 85.186 C 40.275 85.448,39.600 85.814,39.600 86.000 C 39.600 86.186,38.984 86.541,38.232 86.789 C 37.480 87.038,36.657 87.490,36.404 87.795 C 36.152 88.099,35.405 88.467,34.745 88.612 C 34.086 88.757,33.453 89.117,33.340 89.413 C 33.226 89.709,32.621 90.064,31.994 90.201 C 31.368 90.339,30.632 90.720,30.359 91.049 C 30.087 91.377,29.264 91.897,28.532 92.203 C 27.799 92.509,27.200 92.948,27.200 93.180 C 27.200 93.411,26.970 93.600,26.689 93.600 C 25.325 93.600,16.021 101.887,13.200 105.614 C 12.650 106.341,11.795 107.363,11.300 107.886 C 10.805 108.409,10.400 108.952,10.400 109.092 C 10.400 109.233,10.055 109.720,9.633 110.174 C 8.572 111.317,5.309 117.713,4.755 119.735 C 4.505 120.651,4.073 121.940,3.797 122.600 C 3.521 123.260,3.171 124.959,3.019 126.375 C 2.867 127.791,2.474 129.471,2.144 130.108 C 1.735 130.900,1.471 133.091,1.311 137.033 C 1.131 141.486,0.955 142.800,0.539 142.800 C 0.138 142.800,0.000 143.519,0.000 145.600 C 0.000 147.822,0.124 148.400,0.600 148.400 C 0.985 148.400,1.204 148.006,1.213 147.300 C 1.263 142.829,2.071 133.442,2.546 131.800 C 2.864 130.700,3.242 128.900,3.387 127.800 C 3.532 126.700,3.999 124.848,4.425 123.685 C 4.851 122.522,5.199 121.262,5.199 120.885 C 5.189 116.014,15.581 102.653,24.549 96.005 C 26.337 94.680,27.980 93.460,28.200 93.295 C 31.005 91.185,39.432 86.800,46.000 84.033 C 47.650 83.337,49.313 82.595,49.695 82.384 C 51.024 81.649,58.831 78.889,61.522 78.203 C 62.688 77.905,63.865 77.478,64.135 77.254 C 64.406 77.029,65.701 76.670,67.014 76.456 C 68.326 76.242,69.900 75.875,70.510 75.640 C 71.121 75.404,72.831 75.022,74.310 74.789 C 75.790 74.556,77.540 74.206,78.200 74.010 C 79.574 73.603,85.284 72.782,94.800 71.623 C 118.491 68.738,277.442 68.824,301.200 71.735 C 303.950 72.072,308.090 72.562,310.400 72.823 C 312.710 73.084,315.500 73.435,316.600 73.604 C 317.700 73.772,320.130 74.126,322.000 74.391 C 323.870 74.655,326.660 75.200,328.200 75.602 C 329.740 76.004,331.882 76.438,332.960 76.567 C 334.037 76.696,335.120 76.967,335.365 77.171 C 335.609 77.374,336.888 77.810,338.205 78.141 C 341.252 78.905,344.305 79.999,347.600 81.508 C 349.030 82.162,351.280 83.191,352.600 83.793 C 362.863 88.476,371.604 93.513,375.171 96.800 C 375.530 97.130,376.797 98.210,377.988 99.200 C 380.710 101.464,385.683 106.586,386.161 107.620 C 386.360 108.049,386.644 108.400,386.794 108.400 C 387.398 108.400,393.017 118.055,393.428 119.800 C 393.583 120.460,393.854 121.184,394.029 121.409 C 394.204 121.634,394.726 123.164,395.190 124.809 C 397.365 132.527,398.328 136.872,398.556 140.000 C 398.876 144.396,399.219 146.400,399.652 146.400 C 400.161 146.400,400.083 141.294,399.572 141.124 C 399.337 141.046,398.985 139.147,398.790 136.906 C 398.596 134.664,398.158 132.293,397.818 131.635 C 397.478 130.978,397.200 129.958,397.200 129.368 C 397.200 126.354,392.050 113.535,390.233 112.027 C 389.885 111.738,389.600 111.325,389.600 111.110 C 389.600 109.617,381.110 100.546,375.931 96.506 C 370.536 92.298,367.919 90.604,363.768 88.632 C 363.091 88.310,362.304 87.766,362.019 87.423 C 361.735 87.080,361.192 86.800,360.812 86.800 C 360.433 86.800,359.707 86.440,359.200 86.000 C 358.693 85.560,358.111 85.200,357.907 85.200 C 357.703 85.200,355.675 84.300,353.400 83.200 C 351.125 82.100,349.024 81.199,348.732 81.197 C 348.439 81.196,347.660 80.837,347.000 80.400 C 346.340 79.963,345.437 79.604,344.994 79.603 C 344.551 79.601,343.545 79.255,342.760 78.834 C 341.974 78.413,340.447 77.941,339.366 77.785 C 338.284 77.630,337.130 77.269,336.800 76.984 C 336.470 76.698,334.884 76.284,333.277 76.062 C 331.669 75.840,330.113 75.460,329.821 75.217 C 329.528 74.974,327.873 74.605,326.144 74.398 C 324.415 74.191,322.116 73.746,321.036 73.411 C 319.956 73.075,318.246 72.797,317.236 72.793 C 316.226 72.789,314.140 72.518,312.600 72.189 C 311.060 71.861,307.730 71.415,305.200 71.197 C 302.670 70.980,297.720 70.536,294.200 70.211 C 280.676 68.962,267.783 68.790,193.800 68.867 C 153.100 68.910,119.170 69.001,118.400 69.070 M173.200 118.817 C 168.411 119.075,156.926 120.518,151.412 121.556 C 147.965 122.204,147.682 123.161,148.978 129.800 C 149.279 131.340,149.721 134.130,149.961 136.000 C 150.233 138.120,150.677 139.776,151.142 140.400 L 151.886 141.400 198.365 141.502 L 244.844 141.603 245.625 139.836 C 246.362 138.171,246.787 134.969,247.373 126.679 C 247.654 122.696,247.023 121.871,243.384 121.466 C 240.317 121.125,231.122 120.065,227.000 119.577 C 219.232 118.659,185.096 118.177,173.200 118.817 M224.600 120.235 C 227.240 120.554,231.920 121.086,235.000 121.416 C 242.847 122.257,245.708 122.737,246.278 123.307 C 247.165 124.194,245.982 137.676,244.814 140.000 C 244.433 140.759,152.768 140.928,152.011 140.171 C 151.424 139.584,149.613 129.240,149.495 125.802 L 149.400 123.005 151.800 122.467 C 153.120 122.171,156.858 121.594,160.107 121.184 C 163.355 120.774,166.235 120.295,166.507 120.119 C 168.051 119.119,216.158 119.216,224.600 120.235 M125.580 127.379 C 124.799 127.667,123.360 128.038,122.382 128.203 C 121.404 128.368,119.976 128.840,119.208 129.252 C 118.440 129.663,117.667 130.000,117.489 130.000 C 114.294 130.000,107.145 135.700,102.580 141.888 C 101.570 143.257,99.684 147.479,99.361 149.094 C 99.230 149.750,98.714 150.762,98.215 151.343 L 97.307 152.400 49.657 152.400 C 2.440 152.400,2.002 152.393,1.507 151.600 C 0.826 150.510,-0.000 150.592,0.000 151.750 C 0.000 153.220,-0.688 153.200,49.996 153.200 C 104.302 153.200,99.055 153.588,100.011 149.503 C 100.282 148.346,100.734 146.950,101.016 146.400 C 101.298 145.850,101.741 144.828,102.001 144.129 C 102.261 143.430,102.727 142.760,103.037 142.641 C 103.346 142.522,103.600 142.125,103.600 141.758 C 103.600 141.392,104.005 140.680,104.500 140.177 C 104.995 139.673,106.210 138.435,107.200 137.424 C 109.181 135.401,113.642 132.252,115.181 131.789 C 115.721 131.627,116.409 131.248,116.710 130.947 C 117.011 130.646,117.625 130.400,118.074 130.400 C 118.523 130.400,119.546 130.041,120.346 129.603 C 121.145 129.164,123.469 128.569,125.509 128.281 C 130.677 127.550,130.400 127.017,130.400 137.686 C 130.400 147.267,130.328 147.623,127.800 150.513 C 124.157 154.679,115.032 165.444,114.081 166.699 C 113.706 167.193,112.590 168.488,111.600 169.576 C 109.619 171.753,109.611 171.763,106.252 175.787 C 104.960 177.334,103.789 178.690,103.650 178.800 C 103.003 179.313,101.222 182.315,100.982 183.301 C 100.834 183.906,100.372 185.070,99.956 185.886 C 99.540 186.702,99.200 187.657,99.200 188.008 C 99.200 188.360,98.933 188.996,98.606 189.424 C 98.280 189.851,97.822 190.920,97.588 191.800 C 97.354 192.680,96.905 193.940,96.592 194.600 C 95.453 196.995,93.600 202.078,93.600 202.807 C 93.600 203.217,93.434 203.656,93.231 203.781 C 93.027 203.907,92.550 204.952,92.169 206.105 C 91.789 207.257,91.248 208.560,90.968 209.000 C 90.688 209.440,90.336 210.475,90.185 211.300 C 90.034 212.125,89.758 212.800,89.572 212.800 C 89.385 212.800,89.018 213.565,88.757 214.500 C 88.496 215.435,87.840 217.190,87.299 218.400 C 85.784 221.790,85.666 222.076,84.980 224.000 C 84.416 225.581,83.882 227.027,81.580 233.200 C 81.292 233.970,80.730 235.332,80.329 236.226 C 79.928 237.121,79.594 238.111,79.587 238.426 C 79.581 238.742,79.132 239.900,78.591 241.000 C 78.050 242.100,77.606 243.386,77.604 243.857 C 77.602 244.329,77.340 244.814,77.022 244.936 C 76.704 245.058,76.322 245.842,76.173 246.679 C 76.024 247.516,75.565 248.761,75.151 249.447 C 74.738 250.133,74.400 250.989,74.400 251.349 C 74.400 251.708,74.040 252.674,73.601 253.494 C 73.161 254.314,72.692 255.567,72.559 256.278 C 72.425 256.990,72.065 257.780,71.758 258.035 C 71.451 258.290,71.200 258.752,71.200 259.062 C 71.200 259.656,69.218 265.029,67.948 267.878 C 67.537 268.801,67.200 269.794,67.200 270.084 C 67.200 270.374,66.864 271.239,66.453 272.006 C 66.043 272.773,65.573 274.030,65.409 274.800 C 65.245 275.570,64.816 276.534,64.455 276.942 C 63.621 277.886,63.221 329.661,64.040 330.649 C 64.427 331.115,85.015 331.200,197.626 331.200 L 330.755 331.200 331.377 330.311 C 331.924 329.530,332.000 326.450,332.000 304.931 C 332.000 279.389,331.943 278.413,330.249 274.715 C 329.918 273.992,329.439 272.595,329.184 271.612 C 328.930 270.628,328.469 269.463,328.161 269.023 C 327.852 268.582,327.594 267.857,327.587 267.411 C 327.581 266.965,327.132 265.700,326.591 264.600 C 326.050 263.500,325.606 262.235,325.604 261.789 C 325.602 261.343,325.353 260.623,325.051 260.189 C 324.749 259.755,324.372 258.770,324.212 258.000 C 324.053 257.230,323.580 256.005,323.161 255.277 C 322.743 254.550,322.400 253.571,322.400 253.103 C 322.400 252.635,322.054 251.521,321.631 250.626 C 321.208 249.732,320.676 248.370,320.450 247.600 C 320.223 246.830,319.483 244.670,318.805 242.800 C 318.126 240.930,317.297 238.500,316.961 237.400 C 316.625 236.300,316.092 234.833,315.775 234.140 C 315.459 233.446,315.200 232.629,315.200 232.324 C 315.200 232.019,314.842 231.066,314.404 230.207 C 313.966 229.348,313.494 228.005,313.355 227.222 C 313.216 226.440,312.765 225.239,312.351 224.553 C 311.938 223.867,311.600 222.898,311.600 222.400 C 311.600 221.902,311.259 220.933,310.843 220.247 C 310.427 219.561,309.954 218.370,309.792 217.600 C 309.630 216.830,309.314 215.750,309.090 215.200 C 308.376 213.449,306.805 209.063,306.226 207.200 C 305.918 206.210,304.740 202.790,303.608 199.600 C 302.477 196.410,301.291 192.990,300.974 192.000 C 300.463 190.408,299.554 188.260,298.841 186.960 C 298.709 186.718,298.060 185.747,297.400 184.803 C 296.740 183.858,296.001 182.746,295.757 182.330 C 295.513 181.915,295.008 181.266,294.633 180.888 C 294.259 180.509,293.108 179.009,292.076 177.554 C 289.226 173.535,288.205 172.165,284.020 166.737 C 283.569 166.152,283.200 165.477,283.200 165.237 C 283.200 164.997,283.065 164.792,282.900 164.783 C 282.735 164.774,281.921 163.829,281.091 162.683 C 280.261 161.537,278.191 158.735,276.491 156.455 C 269.009 146.423,269.600 148.040,269.600 137.602 C 269.600 129.150,269.630 128.812,270.425 128.387 C 271.528 127.796,277.866 128.555,278.787 129.388 C 279.153 129.719,280.071 130.111,280.826 130.257 C 281.582 130.404,282.629 130.856,283.154 131.262 C 283.679 131.668,284.318 132.000,284.574 132.000 C 285.215 132.000,289.935 135.430,291.390 136.954 C 293.592 139.260,296.763 143.252,297.009 144.029 C 297.144 144.453,297.422 144.800,297.627 144.800 C 297.832 144.800,298.000 144.985,298.000 145.211 C 298.000 146.221,300.917 151.634,301.861 152.377 C 302.904 153.197,303.065 153.200,350.204 153.200 C 400.680 153.200,400.000 153.220,400.000 151.750 C 400.000 150.590,399.557 150.542,398.600 151.600 C 397.884 152.391,397.368 152.400,350.358 152.400 L 302.841 152.400 301.885 151.100 C 301.360 150.385,300.430 148.810,299.819 147.600 C 296.651 141.325,292.198 135.823,288.260 133.319 C 284.066 130.652,279.674 128.737,276.000 127.972 C 274.790 127.721,273.629 127.354,273.420 127.157 C 272.835 126.608,270.644 126.734,269.776 127.367 C 269.053 127.896,268.992 128.567,268.879 137.196 L 268.758 146.458 269.800 148.236 C 270.374 149.215,271.996 151.587,273.405 153.508 C 278.696 160.720,283.023 166.480,283.700 167.211 C 284.085 167.626,284.400 168.078,284.400 168.213 C 284.400 168.349,285.255 169.605,286.300 171.003 C 287.345 172.402,288.504 173.964,288.876 174.473 C 289.247 174.983,290.687 176.903,292.076 178.741 C 298.737 187.557,298.202 186.499,302.794 199.922 C 305.735 208.518,306.597 210.952,306.859 211.400 C 306.988 211.620,307.411 212.790,307.800 214.000 C 308.188 215.210,308.641 216.380,308.807 216.600 C 308.972 216.820,309.240 217.630,309.402 218.400 C 309.564 219.170,309.973 220.340,310.310 221.000 C 310.648 221.660,311.150 223.010,311.425 224.000 C 312.071 226.326,317.638 242.162,320.212 249.000 C 320.792 250.540,321.521 252.610,321.833 253.600 C 322.144 254.590,322.573 255.760,322.785 256.200 C 323.209 257.077,324.515 260.775,325.399 263.600 C 326.118 265.895,328.348 272.124,329.839 276.000 L 330.994 279.000 331.103 303.915 C 331.177 320.756,331.076 329.085,330.792 329.615 C 330.200 330.721,64.667 330.872,64.243 329.767 C 64.109 329.419,64.000 318.068,64.000 304.541 C 64.000 277.485,63.828 279.651,66.409 274.200 C 66.826 273.320,67.289 272.060,67.438 271.400 C 67.588 270.740,67.844 270.020,68.008 269.800 C 68.479 269.167,70.182 264.870,73.636 255.600 C 77.731 244.611,78.456 242.776,79.085 241.811 C 79.368 241.377,79.600 240.797,79.600 240.523 C 79.600 240.248,80.050 239.040,80.600 237.837 C 81.150 236.635,81.600 235.439,81.600 235.180 C 81.600 234.921,81.944 234.054,82.365 233.254 C 83.045 231.962,85.571 225.390,87.074 221.000 C 87.375 220.120,87.787 219.040,87.990 218.600 C 88.523 217.442,90.277 212.771,90.620 211.600 C 90.780 211.050,91.247 209.973,91.656 209.206 C 92.065 208.439,92.400 207.599,92.400 207.338 C 92.400 207.078,92.665 206.355,92.988 205.732 C 93.715 204.333,94.947 201.287,97.409 194.800 C 98.453 192.050,99.823 188.481,100.453 186.870 C 101.084 185.258,101.603 183.728,101.608 183.470 C 101.626 182.317,104.937 178.241,119.377 161.600 C 121.190 159.510,123.544 156.720,124.608 155.400 C 125.672 154.080,126.673 152.910,126.832 152.800 C 126.992 152.690,128.040 151.452,129.161 150.049 L 131.200 147.498 131.200 137.811 C 131.200 126.130,130.831 125.445,125.580 127.379 M0.900 156.682 C 0.337 156.791,0.000 157.145,0.000 157.628 C 0.000 158.547,0.900 158.643,1.600 157.800 C 2.038 157.273,7.868 157.200,49.640 157.200 L 97.182 157.200 97.796 158.137 C 98.566 159.312,98.076 163.586,96.555 168.969 C 94.615 175.831,92.090 179.045,87.682 180.260 C 81.737 181.900,10.524 181.238,7.000 179.511 C 5.784 178.915,3.632 176.349,3.217 175.000 C 3.014 174.340,2.575 173.080,2.242 172.200 C 1.908 171.320,1.627 169.591,1.618 168.359 C 1.585 164.257,1.127 161.200,0.543 161.200 C 0.151 161.200,0.000 161.814,0.000 163.400 C 0.000 164.991,0.151 165.600,0.545 165.600 C 0.953 165.600,1.141 166.538,1.287 169.300 C 1.433 172.045,1.705 173.412,2.342 174.594 C 2.814 175.471,3.200 176.389,3.200 176.635 C 3.200 177.615,5.865 179.797,7.980 180.549 C 10.667 181.504,46.869 182.186,72.400 181.762 C 90.372 181.463,91.614 181.085,95.249 174.798 C 97.764 170.448,99.925 159.366,98.641 157.406 L 97.982 156.400 49.891 156.454 C 23.441 156.484,1.395 156.587,0.900 156.682 M301.350 157.420 C 300.784 158.283,300.727 159.034,300.975 162.320 C 301.135 164.454,301.409 168.360,301.582 171.000 C 302.043 178.012,302.696 179.086,307.485 180.703 L 310.600 181.755 350.000 181.778 C 386.013 181.798,389.520 181.743,390.800 181.132 C 391.570 180.764,392.610 180.346,393.111 180.201 C 395.741 179.444,398.372 175.391,398.816 171.412 C 398.987 169.879,399.323 168.559,399.563 168.479 C 400.083 168.306,400.165 163.600,399.649 163.600 C 399.266 163.600,398.407 168.726,398.389 171.116 C 398.373 173.195,396.176 177.091,394.156 178.621 C 391.003 181.011,391.201 181.000,350.000 181.000 C 305.179 181.000,305.125 180.995,303.416 176.724 C 302.051 173.313,301.143 159.758,302.173 158.185 L 302.818 157.200 350.360 157.200 C 392.132 157.200,397.962 157.273,398.400 157.800 C 399.094 158.636,400.000 158.549,400.000 157.647 C 400.000 156.410,400.043 156.411,350.109 156.405 L 302.018 156.400 301.350 157.420 M191.400 165.857 C 190.960 165.947,188.530 166.393,186.000 166.849 C 183.470 167.304,180.770 167.916,180.000 168.209 C 179.230 168.502,178.060 168.859,177.400 169.002 C 176.740 169.145,175.570 169.537,174.800 169.873 C 133.985 187.709,127.407 238.269,162.600 263.651 C 164.868 265.287,169.946 268.400,170.347 268.400 C 170.493 268.400,171.239 268.734,172.006 269.141 C 172.773 269.549,174.120 270.112,175.000 270.393 C 175.880 270.674,176.780 271.036,177.000 271.197 C 177.220 271.358,177.940 271.607,178.600 271.751 C 179.260 271.895,181.150 272.358,182.800 272.781 C 190.830 274.839,204.362 274.847,211.000 272.797 C 212.320 272.389,214.030 271.930,214.800 271.777 C 215.570 271.623,216.555 271.251,216.989 270.949 C 217.423 270.647,218.030 270.400,218.338 270.400 C 221.150 270.400,232.016 263.477,238.733 257.405 C 240.031 256.231,244.599 250.845,245.400 249.543 C 245.620 249.185,246.475 247.908,247.300 246.705 C 248.125 245.502,248.800 244.370,248.800 244.190 C 248.800 244.010,249.064 243.571,249.387 243.214 C 250.169 242.350,252.635 235.481,253.695 231.216 C 259.218 208.994,245.580 182.246,223.400 171.798 C 221.640 170.969,219.840 170.102,219.400 169.873 C 218.163 169.227,213.775 168.007,209.800 167.206 C 207.820 166.806,205.230 166.281,204.045 166.040 C 202.019 165.626,193.150 165.498,191.400 165.857 M204.400 167.000 C 205.830 167.315,207.758 167.578,208.685 167.586 C 209.612 167.594,211.243 167.944,212.309 168.364 C 213.375 168.784,215.091 169.255,216.124 169.409 C 217.156 169.564,218.000 169.838,218.000 170.018 C 218.000 170.199,218.405 170.466,218.900 170.614 C 219.712 170.855,223.617 172.720,226.968 174.467 C 227.672 174.834,228.484 175.419,228.773 175.767 C 229.062 176.115,229.482 176.400,229.708 176.400 C 230.950 176.400,239.633 184.675,243.139 189.200 C 244.246 190.630,245.395 192.076,245.690 192.413 C 245.985 192.751,246.544 193.651,246.932 194.413 C 247.320 195.176,248.126 196.704,248.724 197.809 C 249.709 199.629,251.532 204.927,252.783 209.600 C 254.379 215.564,254.387 224.539,252.803 230.800 C 250.899 238.327,249.166 242.633,246.300 246.954 C 245.475 248.198,244.800 249.328,244.800 249.466 C 244.800 249.754,244.549 250.026,239.305 255.406 C 235.300 259.514,232.107 262.400,231.567 262.400 C 231.399 262.400,230.753 262.823,230.131 263.339 C 228.901 264.360,227.434 265.210,225.100 266.252 C 224.275 266.620,223.600 267.067,223.600 267.245 C 223.600 267.422,222.878 267.784,221.995 268.049 C 221.113 268.313,220.191 268.770,219.946 269.065 C 219.702 269.359,219.209 269.602,218.851 269.604 C 218.493 269.606,217.237 270.056,216.060 270.604 C 214.883 271.152,213.437 271.600,212.846 271.600 C 212.256 271.600,210.699 271.993,209.386 272.474 C 205.816 273.782,188.391 273.775,184.400 272.464 C 182.970 271.995,181.298 271.608,180.684 271.605 C 180.070 271.602,178.900 271.262,178.084 270.849 C 177.268 270.436,175.970 269.963,175.200 269.799 C 174.430 269.634,173.710 269.383,173.600 269.242 C 173.490 269.100,172.140 268.365,170.600 267.608 C 169.060 266.851,167.291 265.819,166.669 265.316 C 166.047 264.812,165.282 264.400,164.969 264.400 C 164.656 264.400,164.400 264.225,164.400 264.010 C 164.400 263.796,163.824 263.323,163.120 262.958 C 162.415 262.594,161.637 262.095,161.390 261.848 C 161.143 261.602,160.249 260.860,159.402 260.200 C 158.004 259.110,154.227 255.408,152.843 253.770 C 151.328 251.979,149.600 249.552,149.600 249.216 C 149.600 249.009,149.355 248.696,149.056 248.520 C 148.757 248.344,147.858 246.959,147.058 245.443 C 146.258 243.927,145.437 242.486,145.233 242.240 C 144.723 241.626,143.647 238.686,142.858 235.756 C 142.496 234.411,142.003 233.061,141.761 232.756 C 140.264 230.859,140.320 211.058,141.829 208.600 C 142.099 208.160,142.520 206.838,142.764 205.662 C 143.008 204.486,143.476 203.141,143.804 202.673 C 144.132 202.205,144.403 201.547,144.407 201.211 C 144.417 200.423,146.824 195.673,148.388 193.356 C 149.055 192.368,149.600 191.425,149.600 191.260 C 149.600 190.282,157.947 181.247,160.558 179.400 C 161.180 178.960,161.898 178.403,162.153 178.163 C 162.826 177.529,165.903 175.510,167.380 174.733 C 168.077 174.366,168.884 173.781,169.173 173.433 C 169.462 173.085,169.912 172.800,170.173 172.800 C 170.434 172.800,171.987 172.133,173.624 171.317 C 181.425 167.429,196.644 165.294,204.400 167.000 " stroke="none" fill="#9d9dcc" fill-rule="evenodd"></path><path id="path4" d="M167.800 69.853 C 136.835 70.084,103.040 70.859,98.621 71.439 C 96.190 71.759,92.449 72.188,90.310 72.392 C 86.407 72.766,83.810 73.170,78.600 74.213 C 77.060 74.521,75.080 74.884,74.200 75.020 C 73.320 75.156,71.790 75.509,70.800 75.806 C 69.810 76.102,68.190 76.469,67.200 76.620 C 66.210 76.771,64.903 77.149,64.295 77.460 C 63.687 77.772,62.427 78.192,61.495 78.395 C 59.165 78.902,53.898 80.742,53.427 81.213 C 53.214 81.426,52.804 81.600,52.516 81.600 C 52.227 81.600,51.228 81.944,50.296 82.365 C 49.363 82.786,46.890 83.879,44.800 84.795 C 42.710 85.710,40.190 86.862,39.200 87.355 C 35.677 89.107,32.185 90.967,31.200 91.616 C 30.650 91.978,29.390 92.795,28.400 93.432 C 17.416 100.491,7.185 112.945,5.240 121.623 C 5.020 122.604,4.561 124.074,4.220 124.891 C 3.879 125.707,3.600 126.925,3.600 127.598 C 3.600 128.271,3.250 130.211,2.823 131.911 C 1.587 136.824,0.888 150.592,1.821 151.623 C 2.509 152.384,3.504 152.400,49.835 152.400 L 97.146 152.400 98.016 151.177 C 98.495 150.504,99.199 148.925,99.580 147.667 C 101.848 140.174,112.684 129.600,118.094 129.600 C 118.394 129.600,118.839 129.401,119.083 129.157 C 119.879 128.361,128.241 126.476,129.892 126.721 C 131.415 126.947,131.695 128.968,131.540 138.641 C 131.392 147.923,131.372 148.028,129.332 150.200 C 128.919 150.640,126.708 153.250,124.420 156.000 C 122.132 158.750,120.153 161.090,120.024 161.200 C 119.894 161.310,118.711 162.651,117.394 164.181 C 116.077 165.710,114.730 167.253,114.400 167.609 C 114.070 167.965,113.260 168.956,112.600 169.810 C 110.988 171.897,106.520 177.053,104.856 178.747 C 103.573 180.052,101.201 184.438,101.200 185.505 C 101.200 185.783,101.024 186.323,100.809 186.705 C 100.594 187.087,99.765 189.200,98.967 191.400 C 98.169 193.600,97.275 195.940,96.981 196.600 C 96.686 197.260,95.810 199.449,95.034 201.464 C 93.678 204.982,92.930 206.806,91.779 209.400 C 90.852 211.490,89.200 215.849,89.200 216.205 C 89.200 216.393,88.863 217.279,88.451 218.174 C 88.039 219.068,87.291 220.970,86.790 222.400 C 84.995 227.516,83.169 232.219,82.535 233.353 C 82.181 233.988,81.751 235.068,81.580 235.753 C 81.262 237.023,78.468 244.022,77.410 246.200 C 77.089 246.860,76.544 248.210,76.200 249.200 C 75.855 250.190,75.292 251.810,74.948 252.800 C 74.082 255.292,72.442 259.548,71.764 261.060 C 71.454 261.754,71.200 262.515,71.200 262.752 C 71.200 262.988,70.771 264.131,70.247 265.291 C 68.070 270.110,67.599 271.246,67.587 271.711 C 67.581 271.980,67.132 273.100,66.591 274.200 C 66.050 275.300,65.606 276.475,65.604 276.811 C 65.602 277.147,65.285 277.867,64.900 278.411 C 64.074 279.578,63.586 327.258,64.378 329.343 L 64.780 330.400 197.341 330.400 C 320.167 330.400,329.942 330.351,330.451 329.738 C 331.392 328.604,331.249 279.900,330.299 277.994 C 329.914 277.221,329.431 276.051,329.226 275.394 C 329.022 274.737,327.753 271.050,326.406 267.200 C 325.060 263.350,323.784 259.513,323.571 258.674 C 323.358 257.835,322.935 256.755,322.631 256.274 C 322.327 255.793,321.950 254.770,321.793 254.000 C 321.636 253.230,321.271 252.150,320.981 251.600 C 320.691 251.050,320.185 249.790,319.857 248.800 C 319.529 247.810,318.873 246.010,318.399 244.800 C 317.180 241.691,311.360 224.818,309.707 219.600 C 309.393 218.610,308.900 217.350,308.610 216.800 C 308.321 216.250,307.894 215.170,307.661 214.400 C 307.428 213.630,306.710 211.560,306.066 209.800 C 305.421 208.040,303.516 202.640,301.833 197.800 C 298.561 188.394,297.584 186.080,296.246 184.570 C 295.781 184.044,294.771 182.756,294.003 181.707 C 293.234 180.658,292.513 179.710,292.400 179.600 C 292.287 179.490,291.566 178.539,290.797 177.486 C 290.029 176.434,288.880 174.904,288.244 174.086 C 287.608 173.269,286.438 171.610,285.644 170.399 C 284.850 169.189,283.200 166.939,281.977 165.399 C 280.754 163.860,277.334 159.270,274.377 155.200 L 269.000 147.800 268.880 138.111 C 268.738 126.628,268.734 126.644,271.733 126.921 C 274.140 127.143,278.475 128.190,280.200 128.966 C 280.860 129.262,282.300 129.904,283.400 130.391 C 287.984 132.419,292.836 136.192,294.731 139.200 C 295.078 139.750,295.605 140.470,295.903 140.800 C 296.799 141.794,299.091 145.568,300.413 148.227 C 302.625 152.674,296.633 152.185,350.366 152.306 L 397.449 152.413 398.381 151.420 L 399.314 150.427 398.851 144.714 C 398.325 138.213,397.035 131.061,395.656 127.000 C 390.989 113.252,386.977 107.109,377.200 98.738 C 373.065 95.197,361.476 87.600,360.210 87.600 C 360.139 87.600,357.260 86.250,353.813 84.600 C 350.366 82.950,347.324 81.600,347.053 81.600 C 346.782 81.600,346.384 81.424,346.169 81.209 C 345.823 80.863,344.397 80.308,340.200 78.884 C 336.427 77.604,333.116 76.715,331.000 76.415 C 329.680 76.227,328.150 75.901,327.600 75.690 C 327.050 75.480,325.520 75.184,324.200 75.034 C 322.880 74.883,320.180 74.491,318.200 74.163 C 316.220 73.835,313.520 73.391,312.200 73.177 C 310.880 72.963,307.820 72.623,305.400 72.422 C 302.980 72.220,298.660 71.784,295.800 71.453 C 286.726 70.400,214.852 69.502,167.800 69.853 M272.200 71.210 C 283.200 71.428,293.190 71.785,294.400 72.004 C 295.610 72.223,299.750 72.667,303.600 72.990 C 307.450 73.313,311.230 73.756,312.000 73.974 C 312.770 74.192,314.930 74.556,316.800 74.783 C 323.191 75.558,326.051 75.984,326.428 76.217 C 326.635 76.345,328.320 76.606,330.174 76.797 C 332.028 76.989,333.962 77.413,334.472 77.741 C 334.982 78.069,336.294 78.468,337.386 78.627 C 338.479 78.786,339.919 79.250,340.586 79.657 C 341.254 80.064,342.271 80.398,342.846 80.399 C 343.421 80.399,344.321 80.733,344.846 81.139 C 345.371 81.545,346.340 82.009,347.000 82.170 C 347.660 82.331,348.470 82.696,348.800 82.981 C 349.130 83.266,350.061 83.711,350.868 83.970 C 351.675 84.229,352.552 84.702,352.817 85.020 C 353.082 85.339,353.563 85.600,353.887 85.600 C 354.211 85.600,354.954 85.861,355.538 86.180 C 357.632 87.324,362.693 89.600,363.142 89.600 C 363.394 89.600,363.600 89.747,363.600 89.926 C 363.600 90.105,364.185 90.564,364.900 90.946 C 368.356 92.791,372.386 95.526,374.600 97.528 C 375.040 97.926,376.390 99.050,377.600 100.024 C 381.300 103.005,385.300 107.228,387.005 109.953 C 387.228 110.309,387.751 111.108,388.169 111.728 C 389.737 114.056,392.792 120.080,392.814 120.883 C 392.821 121.167,393.175 122.120,393.600 123.000 C 394.025 123.880,394.379 124.982,394.386 125.449 C 394.394 125.916,394.749 127.087,395.176 128.052 C 395.602 129.016,396.135 130.947,396.360 132.342 C 396.585 133.738,396.963 135.114,397.200 135.400 C 397.860 136.196,398.553 149.934,397.968 150.638 C 397.453 151.259,303.895 151.503,302.925 150.886 C 302.664 150.720,301.894 149.508,301.213 148.192 C 299.571 145.017,298.491 143.234,297.782 142.525 C 297.462 142.205,297.200 141.692,297.200 141.386 C 297.200 141.079,296.840 140.635,296.400 140.400 C 295.960 140.165,295.600 139.751,295.600 139.480 C 295.600 137.556,285.538 129.600,283.104 129.600 C 282.823 129.600,281.748 129.150,280.715 128.600 C 279.682 128.050,278.369 127.600,277.798 127.600 C 277.227 127.600,276.220 127.320,275.559 126.979 C 273.949 126.146,270.857 125.827,269.500 126.354 L 268.400 126.780 268.400 137.396 L 268.400 148.013 270.180 150.506 C 271.159 151.878,272.374 153.603,272.880 154.340 C 273.386 155.078,274.115 156.023,274.500 156.440 C 274.885 156.858,275.200 157.351,275.200 157.537 C 275.200 157.722,275.572 158.307,276.027 158.837 C 276.481 159.366,278.105 161.420,279.634 163.400 C 281.164 165.380,282.772 167.420,283.208 167.934 C 283.643 168.448,284.000 169.008,284.000 169.179 C 284.000 169.350,284.541 170.190,285.201 171.045 C 286.449 172.660,286.735 173.051,288.400 175.416 C 288.950 176.198,290.210 177.880,291.200 179.155 C 292.190 180.430,293.450 182.072,294.000 182.804 C 294.550 183.536,295.293 184.419,295.651 184.767 C 296.537 185.629,298.012 188.614,298.633 190.800 C 298.914 191.790,300.067 195.210,301.196 198.400 C 302.325 201.590,303.490 204.920,303.785 205.800 C 304.080 206.680,304.608 207.940,304.958 208.600 C 305.308 209.260,305.596 210.165,305.598 210.611 C 305.599 211.057,305.893 211.841,306.252 212.353 C 306.610 212.865,307.071 214.027,307.275 214.936 C 307.479 215.845,307.886 216.861,308.178 217.194 C 308.471 217.527,308.915 218.778,309.166 219.973 C 309.417 221.168,309.782 222.338,309.976 222.573 C 310.170 222.808,310.612 224.080,310.959 225.400 C 311.306 226.720,312.141 229.330,312.814 231.200 C 313.488 233.070,314.181 235.140,314.355 235.800 C 314.530 236.460,315.061 237.878,315.536 238.951 C 316.011 240.024,316.400 241.199,316.400 241.562 C 316.400 241.925,316.637 242.577,316.926 243.011 C 317.215 243.445,317.682 244.597,317.963 245.571 C 318.245 246.545,318.708 247.715,318.992 248.171 C 319.277 248.627,319.625 249.657,319.766 250.460 C 319.906 251.263,320.272 252.128,320.579 252.383 C 320.886 252.638,321.261 253.601,321.411 254.523 C 321.561 255.445,322.026 256.761,322.442 257.447 C 322.859 258.133,323.200 258.977,323.200 259.323 C 323.200 259.669,324.021 262.348,325.024 265.276 C 326.027 268.204,326.999 271.190,327.184 271.911 C 327.369 272.633,327.698 273.443,327.914 273.711 C 328.131 273.980,328.440 274.830,328.603 275.600 C 328.765 276.370,329.236 277.668,329.649 278.484 C 330.402 279.971,330.876 327.094,330.157 328.967 C 329.936 329.542,317.867 329.600,197.404 329.600 L 64.893 329.600 64.652 328.700 C 64.519 328.205,64.414 317.180,64.418 304.200 L 64.425 280.600 65.409 278.600 C 65.950 277.500,66.394 276.413,66.396 276.185 C 66.398 275.956,66.760 275.063,67.200 274.200 C 67.640 273.337,68.000 272.336,68.000 271.977 C 68.000 271.617,68.360 270.907,68.800 270.400 C 69.240 269.893,69.601 269.100,69.601 268.639 C 69.602 268.177,69.962 267.211,70.401 266.490 C 70.841 265.770,71.202 264.960,71.204 264.690 C 71.206 264.421,71.650 263.300,72.191 262.200 C 72.732 261.100,73.182 259.930,73.190 259.600 C 73.198 259.270,73.484 258.465,73.825 257.810 C 74.570 256.382,77.200 248.615,77.200 247.843 C 77.200 247.543,77.470 247.074,77.800 246.800 C 78.130 246.526,78.400 245.991,78.400 245.611 C 78.400 245.230,78.850 244.073,79.400 243.038 C 79.950 242.004,80.400 240.873,80.400 240.526 C 80.400 240.179,80.738 239.333,81.151 238.647 C 81.565 237.961,82.023 236.725,82.169 235.900 C 82.316 235.075,82.605 234.400,82.811 234.400 C 83.016 234.400,83.304 233.905,83.450 233.300 C 83.596 232.695,84.033 231.480,84.422 230.600 C 86.335 226.272,88.470 220.508,89.313 217.400 C 89.551 216.520,89.976 215.569,90.257 215.287 C 90.539 215.005,90.888 214.105,91.033 213.287 C 91.178 212.469,91.616 211.260,92.006 210.600 C 92.395 209.940,92.835 208.827,92.983 208.128 C 93.130 207.428,93.491 206.656,93.784 206.413 C 94.077 206.170,94.440 205.303,94.592 204.486 C 94.744 203.669,95.101 202.730,95.387 202.400 C 95.672 202.070,96.030 201.350,96.182 200.800 C 96.515 199.593,98.334 194.880,98.846 193.895 C 99.048 193.508,99.492 192.338,99.833 191.295 C 100.175 190.253,100.712 188.833,101.027 188.140 C 101.342 187.446,101.600 186.693,101.600 186.466 C 101.600 184.755,104.044 180.377,106.202 178.225 C 107.511 176.919,109.887 174.219,111.481 172.225 C 115.476 167.228,115.814 166.822,117.508 164.965 C 119.411 162.880,123.234 158.488,124.232 157.240 C 124.654 156.712,125.285 155.977,125.633 155.607 C 125.982 155.236,127.512 153.429,129.033 151.589 L 131.800 148.245 131.800 137.743 C 131.800 130.151,131.668 127.108,131.324 126.764 C 130.513 125.953,127.171 125.862,125.200 126.596 C 124.210 126.965,122.575 127.416,121.567 127.599 C 120.558 127.781,119.118 128.306,118.367 128.764 C 117.615 129.222,116.710 129.598,116.356 129.599 C 115.237 129.601,109.269 132.914,108.400 134.015 C 108.290 134.154,107.905 134.433,107.545 134.634 C 106.777 135.063,103.560 138.963,102.810 140.375 C 102.525 140.911,102.134 141.541,101.940 141.775 C 100.851 143.093,99.580 145.375,99.204 146.692 C 98.967 147.521,98.462 148.830,98.082 149.600 L 97.393 151.000 50.039 151.102 C 21.794 151.162,2.507 151.055,2.243 150.837 C 1.620 150.322,2.250 136.881,3.033 134.000 C 3.361 132.790,3.785 130.540,3.975 129.000 C 4.164 127.460,4.606 125.660,4.957 125.000 C 5.308 124.340,5.602 123.350,5.610 122.800 C 5.618 122.250,6.068 120.900,6.609 119.800 C 7.150 118.700,7.594 117.496,7.596 117.124 C 7.598 116.752,7.771 116.341,7.981 116.212 C 8.190 116.083,8.915 114.852,9.592 113.476 C 10.269 112.101,11.268 110.459,11.812 109.826 C 12.355 109.193,12.800 108.533,12.800 108.358 C 12.800 108.045,13.091 107.707,16.684 103.835 C 18.350 102.041,20.940 99.818,24.416 97.200 C 25.146 96.650,26.188 95.795,26.730 95.300 C 27.273 94.805,27.921 94.400,28.170 94.400 C 28.418 94.400,28.930 94.040,29.307 93.600 C 29.684 93.160,30.242 92.800,30.547 92.800 C 30.852 92.800,31.327 92.529,31.602 92.198 C 32.043 91.666,38.137 88.562,42.600 86.596 C 44.410 85.799,48.110 84.114,50.826 82.850 C 51.831 82.382,52.931 82.000,53.272 82.000 C 53.613 82.000,54.350 81.640,54.909 81.200 C 55.469 80.760,56.438 80.399,57.063 80.399 C 57.688 80.398,58.746 80.064,59.414 79.657 C 60.081 79.250,61.521 78.784,62.614 78.623 C 63.706 78.461,64.885 78.074,65.233 77.763 C 65.581 77.452,67.291 77.019,69.033 76.800 C 70.775 76.582,72.650 76.243,73.200 76.048 C 74.293 75.659,78.141 74.980,81.600 74.565 C 82.810 74.419,84.220 74.142,84.734 73.947 C 85.248 73.753,88.404 73.332,91.747 73.011 C 95.090 72.691,98.768 72.227,99.921 71.980 C 104.683 70.958,230.931 70.394,272.200 71.210 M176.400 117.595 C 170.453 117.937,155.708 119.486,155.155 119.828 C 154.963 119.946,153.680 120.218,152.303 120.432 C 148.972 120.948,147.724 121.488,147.443 122.533 C 147.076 123.898,147.606 129.638,148.260 131.374 C 148.586 132.239,148.994 134.629,149.168 136.686 C 149.429 139.786,149.642 140.593,150.411 141.412 L 151.339 142.400 198.249 142.400 L 245.159 142.400 246.173 141.071 C 247.104 139.850,247.221 139.227,247.616 133.371 C 247.852 129.867,248.140 126.093,248.256 124.985 C 248.664 121.065,247.518 120.666,231.200 119.049 C 218.315 117.772,187.541 116.956,176.400 117.595 M217.200 118.791 C 222.370 118.992,227.950 119.348,229.600 119.582 C 231.250 119.816,235.630 120.352,239.334 120.772 C 248.163 121.775,247.740 121.386,247.409 128.190 C 246.947 137.671,246.102 141.364,244.293 141.807 C 241.455 142.500,152.072 141.789,151.274 141.067 C 150.369 140.248,149.768 137.932,149.414 133.896 C 149.284 132.408,149.006 130.742,148.798 130.194 C 147.920 127.885,147.851 123.050,148.685 122.300 C 149.531 121.538,154.768 120.581,165.600 119.207 C 171.946 118.402,201.129 118.167,217.200 118.791 M1.729 158.078 C 0.976 158.910,1.682 170.634,2.596 172.496 C 2.892 173.099,3.252 174.124,3.395 174.775 C 3.931 177.218,6.309 179.228,9.405 179.858 C 16.407 181.283,81.498 181.503,87.273 180.121 C 91.934 179.007,94.561 175.574,96.551 168.000 C 97.650 163.818,98.224 158.875,97.700 158.110 C 97.096 157.227,2.527 157.196,1.729 158.078 M349.439 157.500 C 313.289 157.581,302.946 157.712,302.481 158.099 C 301.707 158.741,302.106 170.351,303.044 174.473 C 304.550 181.093,303.870 181.000,350.600 181.000 C 394.930 181.000,393.762 181.160,397.095 174.625 C 398.123 172.610,398.227 171.956,399.054 162.290 C 399.348 158.856,398.485 157.079,396.630 157.298 C 396.174 157.352,374.938 157.443,349.439 157.500 M97.376 158.761 C 97.499 158.960,97.427 160.175,97.217 161.461 C 95.488 172.021,92.356 178.366,88.445 179.229 C 80.926 180.888,25.104 180.963,9.837 179.334 C 6.993 179.031,4.291 176.677,3.803 174.076 C 3.652 173.272,3.320 172.251,3.064 171.807 C 2.449 170.738,1.672 159.286,2.180 158.779 C 2.679 158.281,97.068 158.264,97.376 158.761 M397.952 158.762 C 398.779 159.286,397.969 172.130,397.044 173.151 C 396.690 173.543,396.400 174.192,396.400 174.595 C 396.400 176.248,392.686 179.108,390.148 179.410 C 388.856 179.564,386.990 179.876,386.000 180.103 C 382.043 181.012,325.440 180.949,315.871 180.025 C 311.172 179.571,307.146 179.200,306.925 179.200 C 305.664 179.200,304.421 177.287,303.809 174.400 C 303.065 170.897,302.153 160.022,302.522 159.060 C 302.805 158.320,396.791 158.027,397.952 158.762 M189.941 165.148 C 188.258 165.306,186.612 165.658,186.282 165.932 C 185.952 166.206,184.343 166.580,182.705 166.763 C 181.068 166.947,179.295 167.369,178.764 167.701 C 178.234 168.034,177.036 168.419,176.103 168.557 C 175.169 168.695,173.819 169.166,173.103 169.603 C 172.386 170.040,171.509 170.398,171.154 170.399 C 170.799 170.399,170.011 170.791,169.403 171.269 C 168.795 171.747,167.689 172.449,166.945 172.828 C 163.083 174.797,150.280 186.337,149.225 188.800 C 148.990 189.350,148.183 190.610,147.434 191.600 C 145.892 193.635,143.601 197.760,143.598 198.506 C 143.596 198.778,143.315 199.536,142.974 200.192 C 142.632 200.847,142.165 202.287,141.936 203.392 C 141.708 204.496,141.277 205.785,140.980 206.256 C 140.683 206.727,140.325 208.077,140.186 209.256 C 140.046 210.435,139.642 212.390,139.287 213.600 C 138.404 216.613,138.395 224.611,139.271 227.600 C 139.626 228.810,140.036 230.790,140.182 232.000 C 140.328 233.210,140.694 234.579,140.995 235.042 C 141.296 235.504,141.666 236.584,141.818 237.442 C 142.368 240.540,147.448 250.800,148.433 250.800 C 148.605 250.800,148.859 251.157,148.998 251.594 C 149.286 252.501,158.740 262.094,160.342 263.104 C 160.924 263.471,162.120 264.332,163.000 265.018 C 166.024 267.374,171.194 270.105,173.584 270.609 C 174.346 270.769,175.426 271.220,175.984 271.610 C 176.543 272.000,177.856 272.424,178.903 272.552 C 179.950 272.681,181.210 273.043,181.703 273.357 C 182.196 273.671,184.458 274.125,186.729 274.365 C 189.000 274.606,191.236 275.005,191.697 275.252 C 192.693 275.785,201.526 275.516,204.600 274.859 C 205.700 274.624,207.845 274.252,209.366 274.033 C 210.887 273.814,212.255 273.435,212.406 273.191 C 212.556 272.947,213.694 272.610,214.933 272.441 C 216.173 272.273,217.505 271.855,217.894 271.512 C 218.282 271.170,219.230 270.760,220.000 270.601 C 220.770 270.443,221.940 269.994,222.600 269.602 C 223.260 269.211,224.250 268.755,224.800 268.587 C 226.037 268.212,231.283 264.822,231.720 264.117 C 231.896 263.833,232.231 263.600,232.466 263.600 C 234.016 263.600,245.600 251.919,245.600 250.357 C 245.600 250.066,245.959 249.462,246.398 249.014 C 247.971 247.408,249.200 245.673,249.200 245.058 C 249.200 244.713,249.544 244.109,249.964 243.716 C 250.661 243.063,251.624 240.864,253.605 235.400 C 256.742 226.749,256.518 213.048,253.085 203.600 C 251.694 199.770,250.337 196.800,249.978 196.800 C 249.805 196.800,249.543 196.251,249.396 195.581 C 249.249 194.910,248.784 194.147,248.364 193.885 C 247.944 193.622,247.600 193.208,247.600 192.965 C 247.600 192.722,247.240 192.107,246.800 191.600 C 246.360 191.093,246.000 190.550,246.000 190.394 C 246.000 189.491,240.786 183.491,237.836 181.000 C 236.793 180.120,235.189 178.709,234.270 177.864 C 231.659 175.463,228.073 173.022,224.800 171.417 C 223.150 170.608,221.350 169.704,220.800 169.409 C 220.250 169.115,219.123 168.746,218.296 168.591 C 217.468 168.436,216.125 167.970,215.311 167.555 C 214.497 167.140,213.054 166.800,212.105 166.800 C 211.156 166.800,209.350 166.435,208.090 165.988 C 205.515 165.075,195.616 164.617,189.941 165.148 M208.200 166.540 C 222.715 169.494,234.525 176.567,243.030 187.399 C 243.894 188.499,244.825 189.637,245.100 189.928 C 245.375 190.219,245.600 190.643,245.600 190.871 C 245.600 191.229,245.984 191.776,247.967 194.241 C 254.826 202.771,256.966 222.443,252.530 236.200 C 251.009 240.917,246.898 248.800,245.960 248.800 C 245.791 248.800,245.529 249.205,245.377 249.700 C 245.079 250.665,242.223 254.236,240.176 256.200 C 234.105 262.027,229.536 265.435,224.362 267.997 C 222.251 269.042,219.821 270.124,218.962 270.401 C 218.103 270.678,217.213 271.052,216.984 271.232 C 216.755 271.412,215.675 271.751,214.584 271.985 C 213.493 272.219,211.970 272.660,211.200 272.964 C 209.690 273.559,204.821 274.224,198.898 274.642 C 194.945 274.921,186.367 274.046,182.600 272.979 C 181.500 272.668,179.850 272.227,178.933 272.000 C 178.017 271.773,176.757 271.321,176.133 270.996 C 175.510 270.671,174.780 270.404,174.511 270.402 C 174.058 270.400,170.622 268.771,167.139 266.908 C 163.183 264.791,158.276 260.766,153.631 255.827 C 152.404 254.522,151.130 253.170,150.800 252.823 C 143.187 244.811,137.579 225.517,139.807 215.000 C 140.133 213.460,140.400 211.700,140.400 211.089 C 140.400 208.769,143.837 199.138,146.142 195.000 C 152.431 183.711,170.231 168.800,177.418 168.800 C 177.781 168.800,178.646 168.532,179.340 168.205 C 180.033 167.879,182.130 167.324,184.000 166.973 C 185.870 166.623,188.030 166.187,188.800 166.005 C 191.417 165.389,204.283 165.743,208.200 166.540 " stroke="none" fill="#7474b8" fill-rule="evenodd"></path></g></svg>