<svg id="svg" version="1.1" width="400" height="400" viewBox="0 0 400 400" xmlns="http://www.w3.org/2000/svg" xmlns:xlink="http://www.w3.org/1999/xlink" ><g id="svgg"><path id="path0" d="M52.400 2.270 C 51.630 2.376,50.730 2.697,50.400 2.984 C 50.070 3.271,49.350 3.637,48.800 3.798 C 47.329 4.228,41.652 8.126,38.601 10.800 C 35.890 13.177,11.965 36.960,11.576 37.665 C 11.285 38.193,11.840 38.935,14.264 41.265 C 15.945 42.879,18.597 45.546,20.160 47.190 C 21.722 48.835,23.919 51.085,25.042 52.190 C 29.130 56.213,29.037 56.586,22.516 62.271 C 20.272 64.227,14.795 67.977,14.162 67.991 C 13.921 67.996,13.398 68.360,13.000 68.800 C 12.602 69.240,12.079 69.601,11.838 69.602 C 11.597 69.604,10.863 69.885,10.207 70.227 C 8.916 70.900,4.754 72.565,3.300 72.991 C 2.156 73.325,1.940 88.941,2.989 95.411 C 3.311 97.398,3.740 101.826,3.941 105.252 C 4.143 108.678,4.519 111.875,4.777 112.356 C 5.034 112.838,5.404 115.159,5.599 117.516 C 5.793 119.872,6.207 122.520,6.518 123.400 C 6.829 124.280,7.211 126.170,7.367 127.600 C 7.523 129.030,7.980 131.370,8.382 132.800 C 8.784 134.230,9.295 136.480,9.517 137.800 C 10.083 141.157,11.965 150.020,12.189 150.382 C 12.291 150.547,12.578 152.014,12.827 153.641 C 13.076 155.269,13.516 156.870,13.804 157.200 C 14.093 157.530,14.461 158.700,14.622 159.800 C 14.782 160.900,15.248 162.427,15.657 163.194 C 16.066 163.961,16.400 165.020,16.400 165.547 C 16.400 166.074,16.745 167.067,17.166 167.753 C 17.588 168.439,18.065 169.720,18.227 170.600 C 18.388 171.480,18.743 172.560,19.015 173.000 C 19.288 173.440,19.634 174.520,19.785 175.400 C 19.936 176.280,20.290 177.360,20.572 177.800 C 20.853 178.240,21.369 179.500,21.717 180.600 C 22.065 181.700,22.900 184.130,23.574 186.000 C 24.247 187.870,24.985 190.190,25.213 191.155 C 25.441 192.120,25.982 193.359,26.414 193.909 C 26.846 194.458,27.201 195.289,27.203 195.754 C 27.204 196.219,27.563 197.140,28.000 197.800 C 28.437 198.460,28.796 199.291,28.797 199.646 C 28.799 200.001,29.160 200.750,29.600 201.309 C 30.040 201.869,30.400 202.554,30.400 202.831 C 30.400 203.295,32.326 207.384,33.212 208.800 C 33.418 209.130,34.235 210.840,35.028 212.600 C 35.820 214.360,36.813 216.532,37.234 217.426 C 37.655 218.321,38.000 219.192,38.000 219.363 C 38.000 219.534,38.360 220.131,38.800 220.691 C 39.240 221.250,39.600 222.022,39.600 222.405 C 39.600 222.788,39.880 223.335,40.223 223.619 C 40.566 223.904,41.112 224.691,41.437 225.368 C 41.762 226.046,42.471 227.320,43.011 228.200 C 43.552 229.080,44.286 230.430,44.642 231.200 C 44.998 231.970,45.411 232.690,45.558 232.800 C 45.965 233.104,48.165 236.709,49.563 239.364 C 50.248 240.664,50.972 241.925,51.172 242.166 C 51.372 242.407,51.663 243.113,51.819 243.735 C 51.975 244.356,52.341 244.956,52.633 245.068 C 52.925 245.180,53.576 245.922,54.082 246.717 C 54.587 247.512,55.270 248.549,55.600 249.021 C 55.930 249.494,56.556 250.403,56.991 251.040 C 57.426 251.678,57.880 252.290,58.000 252.400 C 58.205 252.587,63.081 259.742,64.400 261.791 C 65.549 263.576,70.717 270.225,73.734 273.800 C 75.405 275.780,76.778 277.619,76.786 277.886 C 76.794 278.153,77.160 278.565,77.600 278.800 C 78.040 279.035,78.400 279.418,78.400 279.650 C 78.400 279.882,78.729 280.371,79.132 280.736 C 80.100 281.614,86.929 289.213,89.256 292.000 C 91.574 294.778,93.459 296.800,93.731 296.800 C 93.905 296.800,98.508 301.394,104.659 307.708 C 105.351 308.419,106.341 309.354,106.859 309.786 C 112.127 314.182,114.311 316.112,118.307 319.900 C 119.293 320.835,120.249 321.600,120.430 321.600 C 120.612 321.600,120.904 321.854,121.080 322.165 C 121.256 322.475,122.390 323.407,123.600 324.235 C 124.810 325.063,125.980 325.952,126.200 326.211 C 126.657 326.750,130.930 330.204,132.617 331.400 C 133.238 331.840,134.663 332.920,135.784 333.800 C 136.905 334.680,138.127 335.580,138.500 335.800 C 139.567 336.430,147.127 341.554,147.800 342.103 C 148.020 342.282,149.280 343.118,150.600 343.961 C 151.920 344.803,153.592 346.045,154.314 346.720 C 155.037 347.395,156.252 348.153,157.014 348.405 C 157.776 348.656,158.400 349.010,158.400 349.192 C 158.400 349.373,158.911 349.700,159.537 349.918 C 160.162 350.136,161.890 351.053,163.377 351.957 C 164.865 352.861,166.161 353.600,166.257 353.600 C 166.354 353.600,166.920 353.932,167.516 354.337 C 169.990 356.021,171.912 357.200,173.781 358.182 C 174.871 358.755,176.041 359.468,176.381 359.767 C 176.722 360.066,177.597 360.438,178.327 360.593 C 179.057 360.748,179.751 361.128,179.870 361.438 C 179.988 361.747,180.291 362.000,180.543 362.000 C 180.794 362.000,182.170 362.563,183.600 363.251 C 185.030 363.940,187.190 364.959,188.400 365.517 C 189.610 366.075,190.870 366.682,191.200 366.866 C 191.530 367.051,192.250 367.392,192.800 367.624 C 193.350 367.856,195.427 368.846,197.415 369.823 C 199.404 370.800,201.189 371.600,201.384 371.600 C 201.578 371.600,202.021 371.839,202.369 372.131 C 202.716 372.423,203.765 372.880,204.700 373.147 C 205.635 373.414,206.400 373.790,206.400 373.983 C 206.400 374.176,207.343 374.536,208.495 374.783 C 209.647 375.030,210.955 375.471,211.401 375.764 C 211.847 376.056,212.839 376.431,213.606 376.596 C 214.373 376.762,215.638 377.221,216.419 377.615 C 217.199 378.010,218.545 378.466,219.410 378.628 C 220.276 378.791,221.527 379.255,222.192 379.660 C 222.856 380.065,223.855 380.398,224.411 380.399 C 224.967 380.399,225.794 380.660,226.248 380.978 C 226.702 381.296,227.906 381.766,228.925 382.023 C 229.943 382.279,230.983 382.739,231.237 383.044 C 231.490 383.350,232.268 383.600,232.964 383.600 C 233.661 383.600,234.944 383.967,235.815 384.415 C 236.687 384.864,238.210 385.342,239.200 385.479 C 240.190 385.615,241.360 385.958,241.800 386.241 C 242.240 386.525,243.770 387.021,245.200 387.344 C 246.630 387.667,248.520 388.103,249.400 388.314 C 250.280 388.524,252.350 388.928,254.000 389.212 C 255.650 389.496,257.180 389.859,257.400 390.019 C 257.620 390.178,259.150 390.522,260.800 390.782 C 262.450 391.043,264.610 391.507,265.600 391.814 C 266.590 392.122,268.840 392.549,270.600 392.764 C 272.360 392.979,274.430 393.411,275.200 393.725 C 275.970 394.038,278.132 394.397,280.005 394.521 C 281.878 394.646,283.948 394.960,284.605 395.220 C 285.262 395.480,288.483 395.931,291.763 396.224 C 295.043 396.516,298.193 396.940,298.763 397.165 C 300.336 397.788,320.415 398.485,321.072 397.940 C 321.362 397.699,321.600 396.934,321.600 396.240 C 321.600 395.546,321.860 394.606,322.178 394.152 C 322.496 393.698,322.975 392.443,323.241 391.363 C 323.772 389.213,326.775 382.681,328.272 380.423 C 328.790 379.640,329.436 378.665,329.707 378.255 C 330.512 377.037,332.442 374.622,332.785 374.403 C 332.960 374.291,333.782 373.300,334.613 372.200 C 335.443 371.100,336.545 369.770,337.061 369.245 C 337.578 368.720,338.000 368.179,338.000 368.043 C 338.000 367.907,338.538 367.557,339.195 367.267 C 340.620 366.635,341.737 367.266,344.016 369.988 C 345.365 371.601,348.773 375.399,349.588 376.200 C 349.812 376.420,351.084 377.665,352.413 378.967 C 353.743 380.269,355.769 382.414,356.915 383.734 C 362.233 389.853,361.946 389.716,364.464 387.339 C 376.035 376.418,394.400 356.786,394.400 355.338 C 394.400 355.215,394.850 354.581,395.400 353.927 C 395.950 353.273,396.400 352.452,396.400 352.101 C 396.400 351.750,396.697 351.135,397.060 350.734 C 398.544 349.094,398.859 328.680,397.440 326.107 C 397.104 325.498,396.563 324.446,396.238 323.768 C 395.912 323.091,395.366 322.304,395.023 322.019 C 394.680 321.735,394.397 321.299,394.393 321.051 C 394.389 320.803,393.920 320.157,393.349 319.616 C 392.779 319.074,391.837 318.000,391.256 317.229 C 390.675 316.458,389.930 315.527,389.600 315.161 C 389.270 314.795,388.640 314.019,388.200 313.438 C 387.310 312.261,330.729 255.429,328.200 253.171 C 327.320 252.386,325.304 250.361,323.720 248.671 C 322.136 246.982,320.741 245.600,320.621 245.600 C 320.501 245.600,318.851 244.430,316.955 243.000 C 315.059 241.570,313.330 240.400,313.112 240.400 C 312.894 240.400,312.181 239.950,311.527 239.400 C 310.873 238.850,309.835 238.400,309.220 238.400 C 308.604 238.400,307.313 238.097,306.350 237.726 C 303.948 236.802,291.598 236.774,289.786 237.689 C 289.134 238.019,287.809 238.410,286.842 238.558 C 285.875 238.707,284.587 239.182,283.980 239.614 C 283.373 240.046,282.692 240.400,282.467 240.400 C 282.241 240.400,281.819 240.632,281.529 240.915 C 281.238 241.199,280.370 241.747,279.600 242.133 C 278.096 242.888,276.750 243.726,274.998 245.000 C 274.392 245.440,271.096 248.635,267.673 252.100 C 264.250 255.565,261.317 258.400,261.156 258.400 C 260.809 258.400,258.400 260.755,258.400 261.095 C 258.400 261.346,256.168 263.768,249.757 270.472 C 247.510 272.821,245.554 275.116,245.409 275.572 C 245.264 276.027,245.014 276.400,244.852 276.400 C 244.690 276.400,244.220 277.345,243.807 278.500 C 241.811 284.078,240.541 285.121,237.523 283.660 C 236.547 283.187,235.559 282.800,235.330 282.800 C 235.100 282.800,232.412 281.520,229.356 279.955 C 221.849 276.112,220.678 275.473,220.205 274.962 C 219.982 274.721,219.215 274.294,218.500 274.013 C 217.785 273.733,217.200 273.362,217.200 273.191 C 217.200 273.019,216.705 272.670,216.100 272.416 C 215.495 272.162,214.100 271.426,213.000 270.780 C 211.900 270.134,210.370 269.290,209.600 268.903 C 208.830 268.516,206.889 267.300,205.287 266.200 C 203.685 265.100,202.063 264.020,201.681 263.800 C 200.714 263.242,196.927 260.376,195.605 259.200 C 195.234 258.870,194.656 258.420,194.321 258.200 C 193.986 257.980,193.192 257.456,192.556 257.036 C 191.920 256.616,190.680 255.815,189.800 255.257 C 188.920 254.699,188.020 254.044,187.800 253.803 C 187.580 253.561,187.023 253.102,186.562 252.782 C 186.101 252.462,184.139 250.760,182.202 249.000 C 180.265 247.240,178.185 245.350,177.579 244.800 C 176.973 244.250,175.618 243.080,174.568 242.200 C 172.389 240.374,160.209 228.249,157.800 225.507 C 156.920 224.506,155.447 222.812,154.527 221.743 C 153.606 220.674,152.283 219.170,151.585 218.400 C 149.209 215.776,145.766 211.404,144.497 209.400 C 143.800 208.300,142.953 207.115,142.615 206.766 C 142.277 206.418,142.000 205.955,142.000 205.739 C 142.000 205.522,141.595 204.969,141.100 204.511 C 140.605 204.052,139.750 203.017,139.200 202.211 C 138.650 201.405,137.795 200.236,137.300 199.615 C 136.805 198.993,136.400 198.300,136.400 198.076 C 136.400 197.851,136.258 197.607,136.084 197.533 C 135.737 197.387,133.200 193.696,133.200 193.338 C 133.200 193.215,132.750 192.581,132.200 191.927 C 131.650 191.273,131.200 190.504,131.200 190.218 C 131.200 189.932,130.931 189.475,130.602 189.202 C 130.273 188.928,129.794 188.006,129.539 187.153 C 129.283 186.299,128.913 185.600,128.716 185.600 C 128.520 185.600,128.085 184.944,127.750 184.142 C 127.415 183.340,126.884 182.427,126.570 182.113 C 126.257 181.799,126.000 181.299,126.000 181.000 C 126.000 180.701,125.728 180.185,125.395 179.852 C 124.180 178.637,118.548 167.546,117.050 163.418 C 115.893 160.231,116.284 158.878,118.655 157.860 C 119.505 157.495,120.470 157.026,120.800 156.819 C 121.130 156.611,121.940 156.171,122.600 155.840 C 123.260 155.510,124.250 155.012,124.800 154.735 C 126.313 153.973,128.179 152.362,132.860 147.775 C 135.203 145.479,137.231 143.600,137.366 143.600 C 137.702 143.600,143.600 137.681,143.600 137.344 C 143.600 137.196,145.873 134.808,148.652 132.038 C 151.430 129.267,153.986 126.550,154.332 126.000 C 155.003 124.934,155.476 124.335,156.781 122.900 C 157.232 122.405,157.600 121.845,157.600 121.655 C 157.600 121.465,158.140 120.631,158.800 119.800 C 159.460 118.969,160.000 118.067,160.000 117.794 C 160.000 117.521,160.258 117.083,160.574 116.821 C 160.890 116.559,161.263 115.772,161.404 115.072 C 161.544 114.373,162.006 112.764,162.429 111.498 C 163.581 108.058,163.567 95.697,162.409 93.144 C 161.974 92.185,161.614 91.009,161.609 90.531 C 161.604 90.053,161.150 89.127,160.600 88.473 C 160.050 87.819,159.600 87.174,159.600 87.039 C 159.600 86.904,158.430 85.176,157.000 83.200 C 155.570 81.224,154.400 79.529,154.400 79.434 C 154.400 79.157,151.965 76.801,151.669 76.792 C 151.521 76.788,149.780 75.050,147.800 72.930 C 145.820 70.810,138.530 63.362,131.600 56.379 C 124.670 49.396,117.911 42.539,116.580 41.141 C 115.249 39.744,112.099 36.610,109.580 34.177 C 107.061 31.744,104.100 28.803,103.000 27.642 C 92.991 17.076,80.458 6.011,76.400 4.159 C 75.630 3.808,74.679 3.235,74.287 2.887 C 73.571 2.250,56.123 1.758,52.400 2.270 " stroke="none" fill="#050584" fill-rule="evenodd"></path><path id="path1" d="M0.000 200.000 L 0.000 400.000 155.000 400.000 C 256.060 400.000,310.000 399.863,310.000 399.608 C 310.000 398.996,308.726 398.861,301.000 398.655 C 296.010 398.523,293.370 398.286,292.400 397.884 C 291.630 397.566,288.998 397.190,286.550 397.048 C 284.103 396.907,281.223 396.526,280.150 396.200 C 279.078 395.875,277.570 395.606,276.800 395.603 C 276.030 395.600,273.600 395.233,271.400 394.787 C 269.200 394.342,266.410 393.815,265.200 393.615 C 261.279 392.970,258.793 392.424,258.089 392.054 C 257.710 391.855,256.410 391.565,255.200 391.409 C 253.990 391.253,252.473 390.870,251.829 390.558 C 251.185 390.246,249.655 389.879,248.429 389.742 C 247.203 389.605,245.930 389.263,245.600 388.982 C 245.270 388.700,243.957 388.279,242.682 388.045 C 241.408 387.812,239.973 387.346,239.493 387.010 C 239.014 386.675,238.116 386.400,237.498 386.400 C 236.880 386.400,235.705 386.100,234.887 385.733 C 234.069 385.365,232.500 384.839,231.400 384.563 C 229.444 384.071,226.208 383.025,222.200 381.589 C 221.100 381.195,218.850 380.389,217.200 379.799 C 215.550 379.209,213.660 378.488,213.000 378.197 C 212.340 377.907,210.743 377.203,209.452 376.634 C 208.160 376.065,206.810 375.596,206.452 375.591 C 206.093 375.586,205.350 375.230,204.800 374.800 C 204.250 374.370,203.542 374.014,203.226 374.009 C 202.588 373.999,199.994 372.889,197.100 371.386 C 196.055 370.844,195.002 370.400,194.762 370.400 C 194.521 370.400,193.846 370.064,193.262 369.652 C 192.678 369.241,191.750 368.773,191.200 368.612 C 190.093 368.288,186.140 366.541,185.200 365.961 C 184.870 365.757,183.880 365.231,183.000 364.792 C 179.394 362.995,171.732 358.828,167.199 356.200 C 164.543 354.660,161.824 353.102,161.157 352.737 C 160.490 352.372,159.642 351.822,159.272 351.514 C 158.903 351.207,158.105 350.744,157.500 350.486 C 156.895 350.228,156.400 349.851,156.400 349.648 C 156.400 349.445,155.905 349.078,155.300 348.834 C 154.300 348.430,152.138 347.036,150.917 346.007 C 150.651 345.783,150.340 345.600,150.225 345.600 C 149.959 345.600,146.561 343.362,143.200 340.974 C 141.770 339.957,140.015 338.765,139.300 338.323 C 138.585 337.882,138.000 337.388,138.000 337.225 C 138.000 337.062,137.505 336.703,136.900 336.428 C 136.295 336.152,135.530 335.670,135.200 335.356 C 134.870 335.041,132.905 333.483,130.834 331.892 C 122.977 325.858,118.685 322.369,115.224 319.200 C 114.624 318.650,113.288 317.480,112.257 316.600 C 105.002 310.410,88.901 294.331,83.400 287.782 C 82.520 286.734,81.260 285.308,80.600 284.614 C 79.067 283.001,78.708 282.566,72.976 275.385 C 67.725 268.805,68.072 269.248,66.400 267.000 C 65.745 266.120,65.072 265.220,64.905 265.000 C 64.737 264.780,63.970 263.734,63.200 262.676 C 62.430 261.618,61.153 259.905,60.363 258.868 C 59.573 257.831,58.693 256.548,58.409 256.017 C 58.125 255.485,57.732 254.859,57.538 254.625 C 57.022 254.006,53.873 249.306,53.377 248.416 C 53.145 247.998,52.649 247.239,52.275 246.728 C 51.902 246.218,50.742 244.441,49.698 242.780 C 48.654 241.120,47.571 239.410,47.290 238.980 C 47.010 238.551,46.415 237.480,45.969 236.600 C 45.523 235.720,44.643 234.190,44.013 233.200 C 43.384 232.210,42.215 230.140,41.416 228.600 C 40.617 227.060,39.439 224.900,38.799 223.800 C 38.159 222.700,37.447 221.350,37.218 220.800 C 36.988 220.250,36.624 219.530,36.409 219.200 C 36.194 218.870,35.373 217.250,34.584 215.600 C 33.796 213.950,32.949 212.240,32.702 211.800 C 31.625 209.884,29.600 205.542,29.600 205.151 C 29.600 204.916,29.342 204.246,29.027 203.662 C 27.996 201.753,26.487 198.107,26.215 196.868 C 26.068 196.201,25.695 195.445,25.385 195.187 C 25.075 194.930,24.706 194.106,24.565 193.355 C 24.424 192.605,24.163 191.901,23.985 191.791 C 23.807 191.681,23.356 190.672,22.983 189.550 C 22.611 188.428,22.058 187.035,21.755 186.455 C 21.453 185.875,21.204 185.065,21.202 184.654 C 21.201 184.244,20.862 183.254,20.448 182.454 C 19.547 180.711,17.200 173.648,17.200 172.678 C 17.200 172.300,16.854 171.228,16.430 170.296 C 16.007 169.363,15.542 168.013,15.398 167.296 C 15.253 166.579,14.880 165.481,14.568 164.856 C 14.256 164.231,13.887 162.838,13.747 161.760 C 13.607 160.682,13.257 159.528,12.970 159.195 C 12.683 158.862,12.264 157.449,12.040 156.055 C 11.815 154.661,11.433 153.280,11.189 152.987 C 10.946 152.694,10.576 151.241,10.366 149.759 C 10.156 148.276,9.800 146.841,9.576 146.571 C 9.352 146.301,8.986 144.937,8.762 143.540 C 8.539 142.143,8.104 140.190,7.797 139.200 C 7.006 136.653,4.880 124.776,4.575 121.200 C 4.434 119.550,4.085 117.480,3.799 116.600 C 3.514 115.720,3.155 112.750,3.003 110.000 C 2.851 107.250,2.461 104.100,2.137 103.000 C 1.689 101.478,1.500 97.705,1.347 87.200 C 1.119 71.513,1.082 71.740,4.009 70.864 C 7.974 69.677,16.587 65.314,17.320 64.121 C 17.496 63.834,17.864 63.600,18.138 63.600 C 19.124 63.600,26.556 56.650,26.313 55.955 C 26.251 55.778,22.960 52.337,19.000 48.311 C 9.197 38.343,9.465 38.657,9.818 37.538 C 10.264 36.126,36.135 10.569,41.400 6.338 C 42.972 5.075,45.898 3.200,46.297 3.200 C 46.470 3.200,47.321 2.820,48.188 2.355 C 49.055 1.890,50.568 1.395,51.549 1.255 C 52.531 1.114,53.408 0.775,53.500 0.500 C 53.632 0.103,48.117 0.000,26.833 0.000 L 0.000 0.000 0.000 200.000 M70.000 0.357 C 70.000 0.879,71.056 1.200,72.776 1.200 C 74.249 1.200,78.282 3.025,79.498 4.241 C 79.806 4.549,80.201 4.800,80.378 4.800 C 80.717 4.800,84.858 8.048,86.242 9.400 C 86.692 9.840,88.847 11.819,91.030 13.797 C 100.713 22.570,153.600 76.117,153.600 77.147 C 153.600 77.396,153.874 77.600,154.209 77.600 C 154.543 77.600,155.022 78.050,155.273 78.600 C 155.523 79.150,155.851 79.600,156.000 79.600 C 156.272 79.600,159.441 83.522,161.027 85.822 C 161.491 86.494,162.389 88.114,163.024 89.422 L 164.179 91.800 164.316 101.382 C 164.514 115.171,163.626 117.569,154.411 128.137 C 153.855 128.775,151.420 131.323,149.000 133.800 C 146.580 136.277,144.011 138.956,143.290 139.752 C 142.570 140.548,141.826 141.200,141.637 141.200 C 141.448 141.200,141.199 141.560,141.084 142.000 C 140.969 142.440,140.600 142.800,140.264 142.800 C 139.929 142.800,139.543 143.151,139.406 143.580 C 139.270 144.008,138.808 144.470,138.380 144.606 C 137.951 144.743,137.600 145.009,137.600 145.198 C 137.600 145.388,137.354 145.781,137.054 146.071 C 130.552 152.364,125.178 156.800,124.058 156.800 C 123.891 156.800,123.145 157.250,122.400 157.800 C 121.655 158.350,120.763 158.800,120.418 158.800 C 118.318 158.800,117.202 161.580,118.643 163.226 C 118.944 163.571,119.303 164.416,119.441 165.106 C 119.579 165.795,120.031 166.666,120.446 167.042 C 120.861 167.417,121.200 167.897,121.200 168.108 C 121.200 168.647,125.636 177.575,126.022 177.814 C 126.196 177.921,126.454 178.535,126.595 179.177 C 126.736 179.819,127.120 180.568,127.449 180.841 C 127.777 181.113,128.312 181.891,128.637 182.568 C 128.962 183.246,129.665 184.520,130.199 185.400 C 130.733 186.280,131.542 187.630,131.996 188.400 C 132.451 189.170,133.132 190.266,133.511 190.836 C 135.958 194.517,138.299 198.064,139.200 199.453 C 142.615 204.721,152.155 217.048,156.030 221.200 C 156.954 222.190,159.440 224.870,161.555 227.155 C 170.354 236.663,191.409 255.600,193.182 255.600 C 193.387 255.600,193.790 255.920,194.077 256.312 C 194.365 256.704,195.500 257.599,196.600 258.302 C 197.700 259.004,198.863 259.809,199.185 260.089 C 199.507 260.370,200.068 260.780,200.432 261.000 C 200.796 261.220,201.613 261.745,202.247 262.166 C 203.653 263.100,207.886 265.824,210.600 267.541 C 211.700 268.236,212.870 268.991,213.200 269.217 C 213.923 269.714,214.917 270.288,217.246 271.554 C 218.211 272.078,219.090 272.618,219.200 272.754 C 219.310 272.889,222.416 274.503,226.101 276.340 C 229.787 278.178,232.894 279.829,233.006 280.010 C 233.118 280.190,233.732 280.453,234.372 280.594 C 235.011 280.734,235.937 281.198,236.428 281.625 C 238.316 283.262,240.808 282.353,241.430 279.800 C 241.591 279.140,242.055 278.171,242.461 277.646 C 242.867 277.121,243.200 276.526,243.200 276.323 C 243.200 276.004,244.961 273.566,246.200 272.169 C 250.899 266.869,253.871 263.773,262.600 255.081 C 268.320 249.385,273.270 244.508,273.600 244.242 C 277.569 241.043,280.625 239.216,285.649 237.039 C 290.031 235.140,307.373 235.111,310.252 236.997 C 310.758 237.329,311.416 237.600,311.715 237.600 C 312.278 237.600,317.842 241.293,318.580 242.158 C 318.811 242.428,320.163 243.628,321.585 244.824 C 325.608 248.210,329.966 252.473,355.494 278.000 C 377.173 299.678,384.747 307.423,389.667 312.946 C 390.620 314.016,392.254 315.816,393.297 316.946 C 394.340 318.076,395.195 319.197,395.197 319.438 C 395.199 319.679,395.650 320.399,396.200 321.038 C 396.749 321.677,397.199 322.403,397.200 322.651 C 397.200 322.899,397.460 323.318,397.778 323.582 C 398.096 323.846,398.575 325.038,398.842 326.231 C 399.109 327.424,399.479 328.400,399.664 328.400 C 399.849 328.400,400.000 254.510,400.000 164.200 L 400.000 0.000 235.000 0.000 C 138.445 0.000,70.000 0.148,70.000 0.357 M399.052 348.500 C 398.919 348.995,398.806 349.760,398.800 350.200 C 398.793 350.640,398.534 351.450,398.224 352.000 C 397.914 352.550,397.291 353.720,396.840 354.600 C 395.368 357.472,394.467 358.687,390.655 362.940 C 385.719 368.448,364.164 389.908,362.936 390.536 L 361.672 391.183 356.536 385.719 C 353.711 382.714,350.995 379.895,350.500 379.455 C 350.005 379.016,349.600 378.418,349.600 378.128 C 349.600 377.838,349.330 377.600,349.000 377.600 C 348.670 377.600,348.400 377.428,348.400 377.217 C 348.400 377.006,346.597 375.016,344.394 372.794 L 340.388 368.754 339.259 369.558 C 338.637 370.001,337.259 371.406,336.195 372.681 C 335.131 373.957,334.067 375.180,333.830 375.400 C 333.594 375.620,332.932 376.520,332.360 377.400 C 329.540 381.739,328.750 383.054,327.940 384.755 C 327.457 385.770,326.733 387.029,326.331 387.554 C 325.929 388.079,325.600 388.894,325.600 389.365 C 325.600 389.836,325.340 390.594,325.022 391.048 C 324.704 391.502,324.224 392.757,323.956 393.837 C 323.688 394.916,323.246 396.160,322.974 396.600 C 322.701 397.040,322.357 397.985,322.207 398.700 L 321.936 400.000 360.968 400.000 L 400.000 400.000 400.000 373.800 C 400.000 349.988,399.835 345.579,399.052 348.500 " stroke="none" fill="#fbfbfb" fill-rule="evenodd"></path><path id="path2" d="M53.455 0.600 C 53.316 0.963,52.708 1.201,51.913 1.204 C 51.191 1.206,49.700 1.650,48.600 2.191 C 47.500 2.732,46.461 3.181,46.291 3.187 C 45.888 3.204,42.928 5.111,41.400 6.338 C 36.135 10.569,10.264 36.126,9.818 37.538 C 9.465 38.657,9.197 38.343,19.000 48.311 C 22.960 52.337,26.251 55.778,26.313 55.955 C 26.556 56.650,19.124 63.600,18.138 63.600 C 17.864 63.600,17.496 63.834,17.320 64.121 C 16.587 65.314,7.974 69.677,4.009 70.864 C 1.082 71.740,1.119 71.513,1.347 87.200 C 1.500 97.705,1.689 101.478,2.137 103.000 C 2.461 104.100,2.851 107.250,3.003 110.000 C 3.155 112.750,3.514 115.720,3.799 116.600 C 4.085 117.480,4.434 119.550,4.575 121.200 C 4.880 124.776,7.006 136.653,7.797 139.200 C 8.104 140.190,8.539 142.143,8.762 143.540 C 8.986 144.937,9.352 146.301,9.576 146.571 C 9.800 146.841,10.156 148.276,10.366 149.759 C 10.576 151.241,10.946 152.694,11.189 152.987 C 11.433 153.280,11.815 154.661,12.040 156.055 C 12.264 157.449,12.683 158.862,12.970 159.195 C 13.257 159.528,13.607 160.682,13.747 161.760 C 13.887 162.838,14.256 164.231,14.568 164.856 C 14.880 165.481,15.253 166.579,15.398 167.296 C 15.542 168.013,16.007 169.363,16.430 170.296 C 16.854 171.228,17.200 172.300,17.200 172.678 C 17.200 173.648,19.547 180.711,20.448 182.454 C 20.862 183.254,21.201 184.244,21.202 184.654 C 21.204 185.065,21.453 185.875,21.755 186.455 C 22.058 187.035,22.611 188.428,22.983 189.550 C 23.356 190.672,23.807 191.681,23.985 191.791 C 24.163 191.901,24.424 192.605,24.565 193.355 C 24.706 194.106,25.075 194.930,25.385 195.187 C 25.695 195.445,26.068 196.201,26.215 196.868 C 26.487 198.107,27.996 201.753,29.027 203.662 C 29.342 204.246,29.600 204.916,29.600 205.151 C 29.600 205.542,31.625 209.884,32.702 211.800 C 32.949 212.240,33.796 213.950,34.584 215.600 C 35.373 217.250,36.194 218.870,36.409 219.200 C 36.624 219.530,36.988 220.250,37.218 220.800 C 37.447 221.350,38.159 222.700,38.799 223.800 C 39.439 224.900,40.617 227.060,41.416 228.600 C 42.215 230.140,43.384 232.210,44.013 233.200 C 44.643 234.190,45.523 235.720,45.969 236.600 C 46.415 237.480,47.010 238.551,47.290 238.980 C 47.571 239.410,48.654 241.120,49.698 242.780 C 50.742 244.441,51.902 246.218,52.275 246.728 C 52.649 247.239,53.145 247.998,53.377 248.416 C 53.873 249.306,57.022 254.006,57.538 254.625 C 57.732 254.859,58.125 255.485,58.409 256.017 C 58.693 256.548,59.573 257.831,60.363 258.868 C 61.153 259.905,62.430 261.618,63.200 262.676 C 63.970 263.734,64.737 264.780,64.905 265.000 C 65.072 265.220,65.745 266.120,66.400 267.000 C 68.072 269.248,67.725 268.805,72.976 275.385 C 78.708 282.566,79.067 283.001,80.600 284.614 C 81.260 285.308,82.520 286.734,83.400 287.782 C 88.901 294.331,105.002 310.410,112.257 316.600 C 113.288 317.480,114.624 318.650,115.224 319.200 C 118.685 322.369,122.977 325.858,130.834 331.892 C 132.905 333.483,134.870 335.041,135.200 335.356 C 135.530 335.670,136.295 336.152,136.900 336.428 C 137.505 336.703,138.000 337.062,138.000 337.225 C 138.000 337.388,138.585 337.882,139.300 338.323 C 140.015 338.765,141.770 339.957,143.200 340.974 C 146.561 343.362,149.959 345.600,150.225 345.600 C 150.340 345.600,150.651 345.783,150.917 346.007 C 152.138 347.036,154.300 348.430,155.300 348.834 C 155.905 349.078,156.400 349.445,156.400 349.648 C 156.400 349.851,156.895 350.228,157.500 350.486 C 158.105 350.744,158.903 351.207,159.272 351.514 C 159.642 351.822,160.490 352.372,161.157 352.737 C 161.824 353.102,164.543 354.660,167.199 356.200 C 171.732 358.828,179.394 362.995,183.000 364.792 C 183.880 365.231,184.870 365.757,185.200 365.961 C 186.140 366.541,190.093 368.288,191.200 368.612 C 191.750 368.773,192.678 369.241,193.262 369.652 C 193.846 370.064,194.521 370.400,194.762 370.400 C 195.002 370.400,196.055 370.844,197.100 371.386 C 199.994 372.889,202.588 373.999,203.226 374.009 C 203.542 374.014,204.250 374.370,204.800 374.800 C 205.350 375.230,206.093 375.586,206.452 375.591 C 206.810 375.596,208.160 376.065,209.452 376.634 C 210.743 377.203,212.340 377.907,213.000 378.197 C 213.660 378.488,215.550 379.209,217.200 379.799 C 218.850 380.389,221.100 381.195,222.200 381.589 C 226.208 383.025,229.444 384.071,231.400 384.563 C 232.500 384.839,234.069 385.365,234.887 385.733 C 235.705 386.100,236.880 386.400,237.498 386.400 C 238.116 386.400,239.014 386.675,239.493 387.010 C 239.973 387.346,241.408 387.812,242.682 388.045 C 243.957 388.279,245.270 388.700,245.600 388.982 C 245.930 389.263,247.203 389.605,248.429 389.742 C 249.655 389.879,251.185 390.246,251.829 390.558 C 252.473 390.870,253.990 391.253,255.200 391.409 C 256.410 391.565,257.710 391.855,258.089 392.054 C 258.793 392.424,261.279 392.970,265.200 393.615 C 266.410 393.815,269.200 394.342,271.400 394.787 C 273.600 395.233,276.030 395.600,276.800 395.603 C 277.570 395.606,279.078 395.875,280.150 396.200 C 281.223 396.526,284.103 396.907,286.550 397.048 C 288.998 397.190,291.630 397.568,292.400 397.889 C 293.384 398.300,296.097 398.539,301.531 398.696 C 307.251 398.861,309.402 399.059,309.802 399.459 C 310.445 400.102,317.200 400.237,317.200 399.608 C 317.200 398.974,315.895 398.832,306.200 398.416 C 301.140 398.198,295.920 397.767,294.600 397.458 C 293.280 397.148,290.472 396.782,288.359 396.644 C 286.247 396.505,283.637 396.137,282.559 395.825 C 281.482 395.513,279.340 395.140,277.800 394.996 C 276.260 394.852,274.010 394.480,272.800 394.170 C 271.590 393.860,268.890 393.325,266.800 392.981 C 264.710 392.637,261.830 392.076,260.400 391.735 C 257.102 390.948,253.421 390.131,249.600 389.339 C 247.950 388.997,246.114 388.465,245.520 388.158 C 244.926 387.851,243.972 387.600,243.400 387.600 C 242.828 387.600,241.838 387.330,241.200 387.000 C 240.562 386.670,239.086 386.197,237.920 385.948 C 236.754 385.700,235.445 385.250,235.011 384.948 C 234.577 384.647,233.810 384.400,233.307 384.400 C 232.803 384.400,231.628 384.052,230.696 383.626 C 229.763 383.200,228.370 382.671,227.600 382.450 C 225.892 381.960,216.047 378.483,212.200 377.012 C 210.660 376.423,208.590 375.655,207.600 375.305 C 206.610 374.956,205.440 374.448,205.000 374.177 C 204.560 373.905,203.750 373.553,203.200 373.393 C 202.650 373.233,199.274 371.684,195.697 369.951 C 192.121 368.218,189.089 366.800,188.960 366.800 C 188.499 366.800,179.390 362.199,178.871 361.704 C 178.581 361.427,178.157 361.200,177.929 361.200 C 177.573 361.200,175.047 359.790,164.880 353.914 C 163.846 353.316,162.640 352.645,162.200 352.423 C 161.760 352.200,160.410 351.387,159.200 350.616 C 157.990 349.845,156.550 349.019,156.000 348.780 C 155.450 348.542,154.640 348.020,154.200 347.621 C 153.760 347.222,150.880 345.217,147.800 343.166 C 141.838 339.195,136.939 335.746,136.071 334.910 C 135.781 334.629,135.410 334.400,135.247 334.400 C 135.084 334.400,134.600 334.073,134.171 333.673 C 133.742 333.273,133.104 332.778,132.755 332.573 C 132.405 332.368,131.327 331.531,130.359 330.713 C 129.392 329.896,126.530 327.585,124.000 325.579 C 121.470 323.572,118.680 321.270,117.800 320.463 C 116.920 319.655,114.940 317.916,113.400 316.598 C 106.858 310.997,91.429 295.815,86.391 290.020 C 84.966 288.382,82.805 285.952,81.589 284.620 C 80.372 283.289,77.943 280.400,76.189 278.200 C 74.436 276.000,71.690 272.580,70.088 270.600 C 66.440 266.092,66.678 266.402,65.777 264.990 C 65.360 264.335,64.919 263.710,64.799 263.600 C 64.333 263.177,59.212 255.988,58.617 254.922 C 58.272 254.305,56.652 251.910,55.017 249.600 C 53.382 247.290,51.311 244.140,50.416 242.600 C 49.520 241.060,48.349 239.080,47.814 238.200 C 47.279 237.320,46.587 236.150,46.276 235.600 C 45.965 235.050,44.240 231.990,42.442 228.800 C 40.644 225.610,38.910 222.550,38.587 222.000 C 37.836 220.719,35.345 215.609,33.225 211.000 C 32.315 209.020,31.395 207.130,31.182 206.800 C 30.969 206.470,30.684 205.930,30.549 205.600 C 30.414 205.270,29.424 203.020,28.350 200.600 C 27.276 198.180,26.398 195.907,26.399 195.549 C 26.399 195.191,26.148 194.689,25.839 194.433 C 25.531 194.177,25.157 193.480,25.008 192.884 C 24.860 192.288,24.504 191.260,24.218 190.600 C 23.931 189.940,23.334 188.320,22.889 187.000 C 22.445 185.680,21.144 181.990,20.000 178.800 C 18.855 175.610,17.757 172.209,17.560 171.243 C 17.364 170.276,17.029 169.276,16.816 169.020 C 16.604 168.764,16.169 167.552,15.850 166.328 C 15.531 165.103,15.082 163.764,14.851 163.351 C 14.621 162.938,14.265 161.790,14.061 160.800 C 13.857 159.810,13.414 158.190,13.077 157.200 C 11.894 153.724,8.981 141.021,6.793 129.800 C 6.364 127.600,5.838 124.990,5.624 124.000 C 5.410 123.010,5.227 121.289,5.217 120.175 C 5.208 119.062,4.858 116.812,4.440 115.175 C 4.022 113.539,3.559 110.130,3.412 107.600 C 3.265 105.070,2.877 101.470,2.551 99.600 C 2.178 97.463,1.869 92.016,1.718 84.938 L 1.478 73.675 2.524 72.705 C 3.100 72.172,4.342 71.506,5.285 71.227 C 6.957 70.731,10.798 69.110,12.000 68.394 C 12.330 68.197,13.586 67.463,14.792 66.763 C 18.856 64.402,25.672 58.822,26.664 57.045 C 27.377 55.768,26.979 55.268,18.314 46.553 C 11.866 40.067,10.362 38.351,10.565 37.711 C 11.066 36.130,39.726 8.235,43.034 6.107 C 43.455 5.836,44.483 5.161,45.318 4.607 C 46.153 4.053,46.965 3.600,47.124 3.600 C 47.282 3.600,48.117 3.222,48.979 2.760 C 55.604 -0.791,73.055 0.526,79.625 5.072 C 85.327 9.018,87.540 11.125,118.200 41.793 C 165.196 88.802,163.779 86.922,163.758 102.200 C 163.742 113.339,162.871 116.310,157.689 122.887 C 156.650 124.205,155.425 125.801,154.967 126.433 C 154.278 127.383,149.617 132.303,140.978 141.200 C 140.230 141.970,138.849 143.311,137.909 144.179 C 136.969 145.048,134.384 147.499,132.163 149.627 C 127.831 153.778,125.439 155.479,120.659 157.810 C 117.458 159.371,116.963 160.011,117.404 162.017 C 117.668 163.219,124.967 177.945,126.416 180.200 C 126.841 180.860,127.596 182.152,128.094 183.072 C 129.588 185.828,132.092 190.133,132.824 191.200 C 133.200 191.750,134.811 194.178,136.403 196.595 C 139.269 200.946,141.609 204.211,146.962 211.328 C 149.843 215.158,150.535 216.001,154.559 220.575 C 159.291 225.955,168.961 235.900,174.223 240.800 C 179.818 246.010,186.825 251.953,190.400 254.523 C 191.830 255.551,193.360 256.678,193.800 257.027 C 199.604 261.634,208.248 267.226,219.800 273.846 C 225.273 276.983,236.739 282.635,238.342 282.987 C 239.657 283.276,241.600 282.440,241.600 281.585 C 241.600 280.257,245.077 274.340,247.268 271.941 C 255.346 263.094,271.419 246.817,274.348 244.516 C 275.884 243.310,277.675 242.101,279.000 241.376 C 279.440 241.135,280.970 240.299,282.400 239.519 C 287.559 236.704,289.746 236.305,298.907 236.510 C 313.858 236.846,311.572 235.134,354.600 278.208 C 378.642 302.276,387.878 311.708,391.150 315.532 C 394.904 319.920,398.400 325.325,398.400 326.741 C 398.400 328.087,399.317 331.600,399.669 331.600 C 399.851 331.600,400.000 330.880,400.000 330.000 C 400.000 329.120,399.849 328.400,399.664 328.400 C 399.479 328.400,399.109 327.424,398.842 326.231 C 398.575 325.038,398.096 323.846,397.778 323.582 C 397.460 323.318,397.200 322.899,397.200 322.651 C 397.199 322.403,396.749 321.677,396.200 321.038 C 395.650 320.399,395.199 319.679,395.197 319.438 C 395.195 319.197,394.340 318.076,393.297 316.946 C 392.254 315.816,390.620 314.016,389.667 312.946 C 380.608 302.776,328.542 250.679,321.585 244.824 C 320.163 243.628,318.811 242.428,318.580 242.158 C 317.842 241.293,312.278 237.600,311.715 237.600 C 311.416 237.600,310.758 237.329,310.252 236.997 C 307.373 235.111,290.031 235.140,285.649 237.039 C 280.625 239.216,277.569 241.043,273.600 244.242 C 273.270 244.508,268.320 249.385,262.600 255.081 C 253.871 263.773,250.899 266.869,246.200 272.169 C 244.961 273.566,243.200 276.004,243.200 276.323 C 243.200 276.526,242.867 277.121,242.461 277.646 C 242.055 278.171,241.591 279.140,241.430 279.800 C 240.808 282.353,238.316 283.262,236.428 281.625 C 235.937 281.198,235.011 280.734,234.372 280.594 C 233.732 280.453,233.118 280.190,233.006 280.010 C 232.894 279.829,229.787 278.178,226.101 276.340 C 222.416 274.503,219.310 272.889,219.200 272.754 C 219.090 272.618,218.211 272.078,217.246 271.554 C 214.917 270.288,213.923 269.714,213.200 269.217 C 212.870 268.991,211.700 268.236,210.600 267.541 C 207.886 265.824,203.653 263.100,202.247 262.166 C 201.613 261.745,200.796 261.220,200.432 261.000 C 200.068 260.780,199.507 260.370,199.185 260.089 C 198.863 259.809,197.700 259.004,196.600 258.302 C 195.500 257.599,194.365 256.704,194.077 256.312 C 193.790 255.920,193.387 255.600,193.182 255.600 C 191.409 255.600,170.354 236.663,161.555 227.155 C 159.440 224.870,156.954 222.190,156.030 221.200 C 152.155 217.048,142.615 204.721,139.200 199.453 C 138.870 198.944,138.133 197.824,137.563 196.964 C 136.993 196.104,136.003 194.606,135.363 193.636 C 134.723 192.666,133.890 191.406,133.511 190.836 C 133.132 190.266,132.451 189.170,131.996 188.400 C 131.542 187.630,130.733 186.280,130.199 185.400 C 129.665 184.520,128.962 183.246,128.637 182.568 C 128.312 181.891,127.777 181.113,127.449 180.841 C 127.120 180.568,126.736 179.819,126.595 179.177 C 126.454 178.535,126.196 177.921,126.022 177.814 C 125.636 177.575,121.200 168.647,121.200 168.108 C 121.200 167.897,120.861 167.417,120.446 167.042 C 120.031 166.666,119.579 165.795,119.441 165.106 C 119.303 164.416,118.944 163.571,118.643 163.226 C 117.202 161.580,118.318 158.800,120.418 158.800 C 120.763 158.800,121.655 158.350,122.400 157.800 C 123.145 157.250,123.891 156.800,124.058 156.800 C 125.178 156.800,130.552 152.364,137.054 146.071 C 137.354 145.781,137.600 145.388,137.600 145.198 C 137.600 145.009,137.951 144.743,138.380 144.606 C 138.808 144.470,139.270 144.008,139.406 143.580 C 139.543 143.151,139.929 142.800,140.264 142.800 C 140.600 142.800,140.969 142.440,141.084 142.000 C 141.199 141.560,141.448 141.200,141.637 141.200 C 141.826 141.200,142.570 140.548,143.290 139.752 C 144.011 138.956,146.580 136.277,149.000 133.800 C 158.703 123.868,162.581 118.402,164.043 112.597 C 164.288 111.621,164.399 107.107,164.316 101.382 L 164.179 91.800 163.024 89.422 C 162.389 88.114,161.491 86.494,161.027 85.822 C 159.441 83.522,156.272 79.600,156.000 79.600 C 155.851 79.600,155.523 79.150,155.273 78.600 C 155.022 78.050,154.543 77.600,154.209 77.600 C 153.874 77.600,153.600 77.396,153.600 77.147 C 153.600 76.320,146.974 69.486,118.600 41.047 C 105.620 28.038,93.214 15.775,91.030 13.797 C 88.847 11.819,86.692 9.840,86.242 9.400 C 84.858 8.048,80.717 4.800,80.378 4.800 C 80.201 4.800,79.806 4.549,79.498 4.241 C 78.184 2.927,74.251 1.200,72.572 1.200 C 71.581 1.200,70.604 0.947,70.257 0.600 C 69.764 0.107,68.237 0.000,61.671 0.000 C 54.942 0.000,53.649 0.094,53.455 0.600 M398.841 346.133 C 398.598 347.526,398.400 348.972,398.400 349.346 C 398.400 353.226,393.370 359.416,375.819 377.134 C 361.321 391.770,362.726 390.987,358.601 386.725 C 353.257 381.201,343.749 371.084,342.622 369.721 C 341.372 368.210,340.327 367.797,339.234 368.382 C 338.146 368.964,332.273 375.996,330.135 379.277 C 327.642 383.104,323.600 391.397,323.600 392.688 C 323.600 393.013,323.346 393.846,323.034 394.540 C 322.723 395.233,322.255 396.488,321.994 397.328 C 321.733 398.168,321.268 398.953,320.960 399.071 C 320.139 399.386,320.277 400.000,321.168 400.000 C 321.713 400.000,322.015 399.621,322.207 398.700 C 322.357 397.985,322.701 397.040,322.974 396.600 C 323.246 396.160,323.688 394.916,323.956 393.837 C 324.224 392.757,324.704 391.502,325.022 391.048 C 325.340 390.594,325.600 389.836,325.600 389.365 C 325.600 388.894,325.929 388.079,326.331 387.554 C 326.733 387.029,327.457 385.770,327.940 384.755 C 328.750 383.054,329.540 381.739,332.360 377.400 C 332.932 376.520,333.594 375.620,333.830 375.400 C 334.067 375.180,335.131 373.957,336.195 372.681 C 337.259 371.406,338.637 370.001,339.259 369.558 L 340.388 368.754 344.394 372.794 C 346.597 375.016,348.400 377.006,348.400 377.217 C 348.400 377.428,348.670 377.600,349.000 377.600 C 349.330 377.600,349.600 377.838,349.600 378.128 C 349.600 378.418,350.005 379.016,350.500 379.455 C 350.995 379.895,353.711 382.714,356.536 385.719 L 361.672 391.183 362.936 390.536 C 364.164 389.908,385.719 368.448,390.655 362.940 C 394.464 358.691,395.422 357.397,396.687 354.800 C 397.062 354.030,397.599 353.117,397.881 352.772 C 398.163 352.427,398.578 351.167,398.804 349.972 C 399.031 348.777,399.392 347.740,399.608 347.667 C 400.099 347.500,400.131 343.600,399.641 343.600 C 399.444 343.600,399.084 344.740,398.841 346.133 " stroke="none" fill="#9797c8" fill-rule="evenodd"></path><path id="path3" d="M59.315 1.096 C 60.588 1.176,62.568 1.175,63.715 1.094 C 64.862 1.014,63.820 0.949,61.400 0.950 C 58.980 0.951,58.042 1.016,59.315 1.096 M37.978 10.300 L 36.600 11.800 38.100 10.422 C 39.496 9.138,39.784 8.800,39.478 8.800 C 39.412 8.800,38.737 9.475,37.978 10.300 M21.997 25.900 L 13.400 34.600 22.100 26.003 C 30.184 18.016,30.980 17.200,30.697 17.200 C 30.640 17.200,26.725 21.115,21.997 25.900 M98.800 22.525 C 98.800 22.594,99.385 23.179,100.100 23.825 L 101.400 25.000 100.225 23.700 C 99.130 22.488,98.800 22.216,98.800 22.525 M109.000 32.800 C 111.633 35.440,113.877 37.600,113.987 37.600 C 114.097 37.600,112.033 35.440,109.400 32.800 C 106.767 30.160,104.523 28.000,104.413 28.000 C 104.303 28.000,106.367 30.160,109.000 32.800 M11.641 36.214 C 10.959 36.992,10.400 37.748,10.400 37.894 C 10.400 38.040,10.536 37.989,10.703 37.780 C 10.870 37.571,11.533 36.815,12.178 36.100 C 12.822 35.385,13.245 34.800,13.116 34.800 C 12.988 34.800,12.324 35.436,11.641 36.214 M119.200 42.925 C 119.200 42.994,119.785 43.579,120.500 44.225 L 121.800 45.400 120.625 44.100 C 119.530 42.888,119.200 42.616,119.200 42.925 M17.800 46.000 C 18.659 46.880,19.452 47.600,19.562 47.600 C 19.672 47.600,19.059 46.880,18.200 46.000 C 17.341 45.120,16.548 44.400,16.438 44.400 C 16.328 44.400,16.941 45.120,17.800 46.000 M126.200 50.000 C 127.506 51.320,128.665 52.400,128.775 52.400 C 128.885 52.400,127.906 51.320,126.600 50.000 C 125.294 48.680,124.135 47.600,124.025 47.600 C 123.915 47.600,124.894 48.680,126.200 50.000 M130.800 54.600 C 131.546 55.370,132.247 56.000,132.357 56.000 C 132.467 56.000,131.946 55.370,131.200 54.600 C 130.454 53.830,129.753 53.200,129.643 53.200 C 129.533 53.200,130.054 53.830,130.800 54.600 M24.175 59.700 L 23.000 61.000 24.300 59.825 C 25.512 58.730,25.784 58.400,25.475 58.400 C 25.406 58.400,24.821 58.985,24.175 59.700 M140.000 63.800 C 141.195 65.010,142.263 66.000,142.373 66.000 C 142.483 66.000,141.595 65.010,140.400 63.800 C 139.205 62.590,138.137 61.600,138.027 61.600 C 137.917 61.600,138.805 62.590,140.000 63.800 M14.600 66.827 C 13.940 67.250,13.605 67.597,13.856 67.598 C 14.106 67.599,14.736 67.246,15.256 66.813 C 16.445 65.823,16.159 65.829,14.600 66.827 M147.000 71.200 C 148.083 72.300,149.060 73.200,149.170 73.200 C 149.280 73.200,148.483 72.300,147.400 71.200 C 146.317 70.100,145.340 69.200,145.230 69.200 C 145.120 69.200,145.917 70.100,147.000 71.200 M1.770 82.000 C 1.770 86.730,1.828 88.665,1.898 86.300 C 1.969 83.935,1.969 80.065,1.898 77.700 C 1.828 75.335,1.770 77.270,1.770 82.000 M2.101 95.800 C 2.105 96.680,2.187 96.993,2.283 96.495 C 2.379 95.998,2.375 95.278,2.275 94.895 C 2.175 94.513,2.096 94.920,2.101 95.800 M163.760 102.200 C 163.761 105.500,163.822 106.797,163.898 105.082 C 163.973 103.367,163.972 100.667,163.897 99.082 C 163.821 97.497,163.759 98.900,163.760 102.200 M3.309 105.600 C 3.309 106.590,3.387 106.995,3.482 106.500 C 3.578 106.005,3.578 105.195,3.482 104.700 C 3.387 104.205,3.309 104.610,3.309 105.600 M160.800 227.800 C 162.217 229.230,163.467 230.400,163.577 230.400 C 163.687 230.400,162.617 229.230,161.200 227.800 C 159.783 226.370,158.533 225.200,158.423 225.200 C 158.313 225.200,159.383 226.370,160.800 227.800 M290.500 236.676 C 290.885 236.776,291.515 236.776,291.900 236.676 C 292.285 236.575,291.970 236.493,291.200 236.493 C 290.430 236.493,290.115 236.575,290.500 236.676 M171.600 238.525 C 171.600 238.594,172.185 239.179,172.900 239.825 L 174.200 241.000 173.025 239.700 C 171.930 238.488,171.600 238.216,171.600 238.525 M335.000 258.800 C 336.750 260.560,338.271 262.000,338.381 262.000 C 338.491 262.000,337.150 260.560,335.400 258.800 C 333.650 257.040,332.129 255.600,332.019 255.600 C 331.909 255.600,333.250 257.040,335.000 258.800 M255.186 263.500 L 253.000 265.800 255.300 263.614 C 257.437 261.582,257.783 261.200,257.486 261.200 C 257.424 261.200,256.389 262.235,255.186 263.500 M345.400 269.200 C 346.259 270.080,347.052 270.800,347.162 270.800 C 347.272 270.800,346.659 270.080,345.800 269.200 C 344.941 268.320,344.148 267.600,344.038 267.600 C 343.928 267.600,344.541 268.320,345.400 269.200 M249.578 269.500 L 248.200 271.000 249.700 269.622 C 251.096 268.338,251.384 268.000,251.078 268.000 C 251.012 268.000,250.337 268.675,249.578 269.500 M350.200 274.000 C 351.283 275.100,352.260 276.000,352.370 276.000 C 352.480 276.000,351.683 275.100,350.600 274.000 C 349.517 272.900,348.540 272.000,348.430 272.000 C 348.320 272.000,349.117 272.900,350.200 274.000 M240.000 282.848 C 239.230 283.261,238.895 283.599,239.256 283.599 C 239.616 283.600,240.336 283.246,240.856 282.813 C 242.000 281.860,241.831 281.867,240.000 282.848 M80.800 283.800 C 81.546 284.570,82.247 285.200,82.357 285.200 C 82.467 285.200,81.946 284.570,81.200 283.800 C 80.454 283.030,79.753 282.400,79.643 282.400 C 79.533 282.400,80.054 283.030,80.800 283.800 M360.000 283.800 C 360.746 284.570,361.447 285.200,361.557 285.200 C 361.667 285.200,361.146 284.570,360.400 283.800 C 359.654 283.030,358.953 282.400,358.843 282.400 C 358.733 282.400,359.254 283.030,360.000 283.800 M91.800 296.000 C 92.659 296.880,93.452 297.600,93.562 297.600 C 93.672 297.600,93.059 296.880,92.200 296.000 C 91.341 295.120,90.548 294.400,90.438 294.400 C 90.328 294.400,90.941 295.120,91.800 296.000 M374.000 297.800 C 374.746 298.570,375.447 299.200,375.557 299.200 C 375.667 299.200,375.146 298.570,374.400 297.800 C 373.654 297.030,372.953 296.400,372.843 296.400 C 372.733 296.400,373.254 297.030,374.000 297.800 M99.600 303.800 C 102.784 306.990,105.480 309.600,105.590 309.600 C 105.700 309.600,103.184 306.990,100.000 303.800 C 96.816 300.610,94.120 298.000,94.010 298.000 C 93.900 298.000,96.416 300.610,99.600 303.800 M381.000 305.200 C 382.083 306.300,383.060 307.200,383.170 307.200 C 383.280 307.200,382.483 306.300,381.400 305.200 C 380.317 304.100,379.340 303.200,379.230 303.200 C 379.120 303.200,379.917 304.100,381.000 305.200 M384.000 308.125 C 384.000 308.194,384.585 308.779,385.300 309.425 L 386.600 310.600 385.425 309.300 C 384.330 308.088,384.000 307.816,384.000 308.125 M107.600 311.325 C 107.600 311.394,108.185 311.979,108.900 312.625 L 110.200 313.800 109.025 312.500 C 107.930 311.288,107.600 311.016,107.600 311.325 M399.000 337.600 C 399.000 341.890,399.058 344.995,399.128 344.500 C 399.198 344.005,399.423 343.600,399.628 343.600 C 399.841 343.600,400.000 341.034,400.000 337.600 C 400.000 334.166,399.841 331.600,399.628 331.600 C 399.423 331.600,399.198 331.195,399.128 330.700 C 399.058 330.205,399.000 333.310,399.000 337.600 M382.587 370.100 L 380.200 372.600 382.700 370.213 C 384.075 368.899,385.200 367.774,385.200 367.713 C 385.200 367.417,384.805 367.778,382.587 370.100 M376.181 376.500 L 374.600 378.200 376.300 376.619 C 377.881 375.148,378.184 374.800,377.881 374.800 C 377.816 374.800,377.051 375.565,376.181 376.500 M369.787 382.900 L 367.400 385.400 369.900 383.013 C 371.275 381.699,372.400 380.574,372.400 380.513 C 372.400 380.217,372.005 380.578,369.787 382.900 M326.200 385.600 C 325.859 386.260,325.669 386.800,325.779 386.800 C 325.889 386.800,326.259 386.260,326.600 385.600 C 326.941 384.940,327.131 384.400,327.021 384.400 C 326.911 384.400,326.541 384.940,326.200 385.600 M364.985 387.700 L 363.000 389.800 365.100 387.815 C 366.255 386.723,367.200 385.778,367.200 385.715 C 367.200 385.417,366.829 385.749,364.985 387.700 M278.500 395.076 C 278.885 395.176,279.515 395.176,279.900 395.076 C 280.285 394.975,279.970 394.893,279.200 394.893 C 278.430 394.893,278.115 394.975,278.500 395.076 M287.900 396.682 C 288.395 396.778,289.205 396.778,289.700 396.682 C 290.195 396.587,289.790 396.509,288.800 396.509 C 287.810 396.509,287.405 396.587,287.900 396.682 M300.100 398.276 C 300.485 398.376,301.115 398.376,301.500 398.276 C 301.885 398.175,301.570 398.093,300.800 398.093 C 300.030 398.093,299.715 398.175,300.100 398.276 M310.500 398.676 C 310.885 398.776,311.515 398.776,311.900 398.676 C 312.285 398.575,311.970 398.493,311.200 398.493 C 310.430 398.493,310.115 398.575,310.500 398.676 M321.092 398.642 C 320.959 398.775,319.843 398.871,318.611 398.857 C 316.647 398.833,316.444 398.901,316.958 399.415 C 317.796 400.253,319.885 400.139,320.892 399.200 C 321.364 398.760,321.657 398.400,321.542 398.400 C 321.427 398.400,321.225 398.509,321.092 398.642 " stroke="none" fill="#7c7cbc" fill-rule="evenodd"></path><path id="path4" d="M53.439 1.655 C 51.921 1.850,50.100 2.368,49.392 2.805 C 48.685 3.242,47.905 3.600,47.661 3.600 C 46.380 3.600,36.794 11.108,33.550 14.653 C 32.972 15.284,27.872 20.390,22.217 26.000 C 16.562 31.610,11.603 36.659,11.197 37.220 L 10.459 38.241 18.465 46.420 C 26.983 55.124,27.379 55.605,27.001 56.797 C 26.323 58.933,15.702 67.055,10.800 69.186 C 10.250 69.426,9.260 69.877,8.600 70.190 C 7.940 70.503,6.268 71.174,4.884 71.680 C 2.990 72.373,2.310 72.828,2.135 73.524 C 1.729 75.130,2.281 98.100,2.762 99.600 C 3.008 100.370,3.316 103.160,3.445 105.800 C 3.574 108.440,4.009 112.130,4.411 114.000 C 4.813 115.870,5.248 118.726,5.378 120.346 C 5.508 121.966,5.872 124.396,6.186 125.746 C 6.501 127.096,7.316 131.080,7.996 134.600 C 9.497 142.362,11.017 149.155,11.811 151.654 C 12.135 152.673,12.400 153.867,12.400 154.306 C 12.400 154.745,12.850 156.300,13.400 157.762 C 13.950 159.223,14.401 160.819,14.402 161.309 C 14.404 161.799,14.642 162.655,14.933 163.211 C 15.223 163.767,15.681 165.101,15.952 166.174 C 16.222 167.248,16.704 168.498,17.022 168.952 C 17.340 169.406,17.600 170.166,17.600 170.640 C 17.600 171.114,17.895 172.199,18.255 173.051 C 18.616 173.903,19.141 175.410,19.423 176.400 C 19.705 177.390,20.596 180.000,21.403 182.200 C 22.211 184.400,23.047 186.830,23.261 187.600 C 23.476 188.370,23.888 189.540,24.178 190.200 C 24.468 190.860,24.921 192.075,25.184 192.900 C 25.447 193.725,25.828 194.400,26.031 194.400 C 26.234 194.400,26.400 194.701,26.400 195.069 C 26.400 196.343,35.491 215.922,39.276 222.800 C 39.821 223.790,40.953 225.860,41.792 227.400 C 42.631 228.940,44.246 231.730,45.382 233.600 C 46.517 235.470,48.494 238.868,49.774 241.151 C 51.055 243.435,52.360 245.595,52.675 245.951 C 53.466 246.848,58.272 253.813,58.855 254.907 C 59.754 256.593,68.902 269.068,70.738 271.111 C 71.474 271.930,73.080 273.950,74.307 275.600 C 76.919 279.111,78.160 280.603,80.960 283.600 C 82.091 284.810,84.082 287.060,85.386 288.600 C 88.720 292.540,105.681 309.561,110.097 313.400 C 112.122 315.160,114.779 317.500,116.002 318.600 C 119.296 321.563,121.510 323.395,128.730 329.134 C 135.324 334.376,137.179 335.723,146.600 342.112 C 149.460 344.052,152.496 346.125,153.346 346.719 C 155.111 347.952,154.783 347.755,165.996 354.333 C 170.622 357.047,175.440 359.802,176.703 360.457 C 177.966 361.112,180.104 362.230,181.453 362.942 C 182.801 363.655,185.231 364.840,186.853 365.575 C 189.399 366.731,193.856 368.837,201.806 372.640 C 202.909 373.168,203.989 373.600,204.206 373.599 C 204.423 373.598,205.320 373.953,206.200 374.388 C 208.921 375.732,219.207 379.573,222.852 380.605 C 223.871 380.894,225.257 381.416,225.932 381.765 C 226.608 382.114,227.484 382.401,227.880 382.402 C 228.276 382.404,229.110 382.671,229.733 382.996 C 230.357 383.321,231.617 383.777,232.533 384.009 C 233.450 384.240,234.830 384.675,235.600 384.975 C 236.370 385.274,238.620 386.001,240.600 386.591 C 242.580 387.180,245.010 387.906,246.000 388.205 C 246.990 388.504,248.430 388.865,249.200 389.008 C 249.970 389.150,252.130 389.620,254.000 390.051 C 255.870 390.481,258.930 391.185,260.800 391.613 C 262.670 392.042,265.902 392.676,267.983 393.023 C 270.064 393.370,272.757 393.911,273.967 394.227 C 275.178 394.542,276.895 394.797,277.784 394.794 C 278.673 394.790,281.020 395.143,283.000 395.579 C 284.980 396.015,288.220 396.540,290.200 396.746 C 292.180 396.952,296.410 397.411,299.600 397.764 C 314.990 399.472,321.188 399.258,321.905 396.996 C 322.183 396.118,322.577 395.040,322.780 394.600 C 322.984 394.160,323.266 393.350,323.407 392.800 C 324.888 387.051,329.382 379.277,335.195 372.410 C 339.959 366.784,340.164 366.739,343.593 370.574 C 346.237 373.531,346.870 374.205,351.333 378.820 C 353.790 381.361,357.117 384.906,358.726 386.698 C 362.435 390.827,361.036 391.584,374.477 378.178 C 398.087 354.632,399.178 352.840,399.173 337.600 C 399.170 326.987,398.121 324.183,391.019 315.800 C 389.901 314.480,388.629 312.974,388.193 312.453 C 387.757 311.932,378.733 302.752,368.141 292.053 C 351.294 275.038,341.093 264.863,326.422 250.443 C 319.351 243.492,313.914 239.496,309.087 237.699 C 303.549 235.637,290.172 236.148,284.600 238.632 C 277.751 241.687,274.611 244.135,264.400 254.383 C 248.656 270.185,244.670 274.817,242.570 279.751 C 241.112 283.177,240.220 283.864,238.115 283.179 C 235.585 282.356,219.449 274.199,218.000 273.011 C 217.670 272.740,215.713 271.578,213.651 270.428 C 210.551 268.699,207.190 266.634,203.200 264.006 C 200.643 262.322,196.288 259.220,194.800 258.023 C 193.810 257.227,192.198 256.041,191.217 255.388 C 185.123 251.329,163.597 231.350,156.968 223.600 C 154.695 220.943,150.224 215.799,149.812 215.368 C 149.586 215.130,148.500 213.723,147.400 212.240 C 146.300 210.757,144.725 208.662,143.900 207.584 C 143.075 206.506,142.400 205.516,142.400 205.384 C 142.400 205.252,141.705 204.301,140.856 203.272 C 138.121 199.956,132.636 191.516,128.852 184.800 C 127.922 183.150,126.780 181.170,126.314 180.400 C 124.498 177.398,120.042 168.730,118.090 164.400 C 116.315 160.464,116.706 159.415,120.624 157.600 C 123.290 156.365,124.413 155.684,128.305 152.940 C 129.499 152.097,138.704 143.287,141.777 140.044 C 143.110 138.638,146.540 135.087,149.400 132.153 C 161.462 119.777,163.600 115.264,163.600 102.170 C 163.600 90.873,161.521 86.133,152.510 76.888 C 150.799 75.133,148.162 72.370,146.649 70.749 C 143.300 67.160,103.233 26.885,94.949 18.780 C 86.388 10.406,80.006 5.168,75.617 2.914 C 72.613 1.372,60.852 0.704,53.439 1.655 M74.287 2.887 C 74.679 3.235,75.630 3.808,76.400 4.159 C 80.458 6.011,92.991 17.076,103.000 27.642 C 104.100 28.803,107.061 31.744,109.580 34.177 C 112.099 36.610,115.249 39.744,116.580 41.141 C 117.911 42.539,124.670 49.396,131.600 56.379 C 138.530 63.362,145.820 70.810,147.800 72.930 C 149.780 75.050,151.521 76.788,151.669 76.792 C 151.965 76.801,154.400 79.157,154.400 79.434 C 154.400 79.529,155.570 81.224,157.000 83.200 C 158.430 85.176,159.600 86.904,159.600 87.039 C 159.600 87.174,160.050 87.819,160.600 88.473 C 161.150 89.127,161.604 90.053,161.609 90.531 C 161.614 91.009,161.974 92.185,162.409 93.144 C 163.567 95.697,163.581 108.058,162.429 111.498 C 162.006 112.764,161.544 114.373,161.404 115.072 C 161.263 115.772,160.890 116.559,160.574 116.821 C 160.258 117.083,160.000 117.521,160.000 117.794 C 160.000 118.067,159.460 118.969,158.800 119.800 C 158.140 120.631,157.600 121.465,157.600 121.655 C 157.600 121.845,157.232 122.405,156.781 122.900 C 155.476 124.335,155.003 124.934,154.332 126.000 C 153.986 126.550,151.430 129.267,148.652 132.038 C 145.873 134.808,143.600 137.196,143.600 137.344 C 143.600 137.681,137.702 143.600,137.366 143.600 C 137.231 143.600,135.203 145.479,132.860 147.775 C 128.179 152.362,126.313 153.973,124.800 154.735 C 124.250 155.012,123.260 155.510,122.600 155.840 C 121.940 156.171,121.130 156.611,120.800 156.819 C 120.470 157.026,119.505 157.495,118.655 157.860 C 116.284 158.878,115.893 160.231,117.050 163.418 C 118.548 167.546,124.180 178.637,125.395 179.852 C 125.728 180.185,126.000 180.701,126.000 181.000 C 126.000 181.299,126.257 181.799,126.570 182.113 C 126.884 182.427,127.415 183.340,127.750 184.142 C 128.085 184.944,128.520 185.600,128.716 185.600 C 128.913 185.600,129.283 186.299,129.539 187.153 C 129.794 188.006,130.273 188.928,130.602 189.202 C 130.931 189.475,131.200 189.932,131.200 190.218 C 131.200 190.504,131.650 191.273,132.200 191.927 C 132.750 192.581,133.200 193.215,133.200 193.338 C 133.200 193.696,135.737 197.387,136.084 197.533 C 136.258 197.607,136.400 197.851,136.400 198.076 C 136.400 198.300,136.805 198.993,137.300 199.615 C 137.795 200.236,138.650 201.405,139.200 202.211 C 139.750 203.017,140.605 204.052,141.100 204.511 C 141.595 204.969,142.000 205.522,142.000 205.739 C 142.000 205.955,142.277 206.418,142.615 206.766 C 142.953 207.115,143.800 208.300,144.497 209.400 C 145.766 211.404,149.209 215.776,151.585 218.400 C 152.283 219.170,153.606 220.674,154.527 221.743 C 155.447 222.812,156.920 224.506,157.800 225.507 C 160.209 228.249,172.389 240.374,174.568 242.200 C 175.618 243.080,176.973 244.250,177.579 244.800 C 178.185 245.350,180.265 247.240,182.202 249.000 C 184.139 250.760,186.101 252.462,186.562 252.782 C 187.023 253.102,187.580 253.561,187.800 253.803 C 188.020 254.044,188.920 254.699,189.800 255.257 C 190.680 255.815,191.920 256.616,192.556 257.036 C 193.192 257.456,193.986 257.980,194.321 258.200 C 194.656 258.420,195.234 258.870,195.605 259.200 C 196.927 260.376,200.714 263.242,201.681 263.800 C 202.063 264.020,203.685 265.100,205.287 266.200 C 206.889 267.300,208.830 268.516,209.600 268.903 C 210.370 269.290,211.900 270.134,213.000 270.780 C 214.100 271.426,215.495 272.162,216.100 272.416 C 216.705 272.670,217.200 273.019,217.200 273.191 C 217.200 273.362,217.785 273.733,218.500 274.013 C 219.215 274.294,219.982 274.721,220.205 274.962 C 220.678 275.473,221.849 276.112,229.356 279.955 C 232.412 281.520,235.100 282.800,235.330 282.800 C 235.559 282.800,236.547 283.187,237.523 283.660 C 240.541 285.121,241.811 284.078,243.807 278.500 C 244.220 277.345,244.690 276.400,244.852 276.400 C 245.014 276.400,245.264 276.027,245.409 275.572 C 245.554 275.116,247.510 272.821,249.757 270.472 C 256.168 263.768,258.400 261.346,258.400 261.095 C 258.400 260.755,260.809 258.400,261.156 258.400 C 261.317 258.400,264.250 255.565,267.673 252.100 C 271.096 248.635,274.392 245.440,274.998 245.000 C 276.750 243.726,278.096 242.888,279.600 242.133 C 280.370 241.747,281.238 241.199,281.529 240.915 C 281.819 240.632,282.241 240.400,282.467 240.400 C 282.692 240.400,283.373 240.046,283.980 239.614 C 284.587 239.182,285.875 238.707,286.842 238.558 C 287.809 238.410,289.134 238.019,289.786 237.689 C 291.598 236.774,303.948 236.802,306.350 237.726 C 307.313 238.097,308.604 238.400,309.220 238.400 C 309.835 238.400,310.873 238.850,311.527 239.400 C 312.181 239.950,312.894 240.400,313.112 240.400 C 313.330 240.400,315.059 241.570,316.955 243.000 C 318.851 244.430,320.501 245.600,320.621 245.600 C 320.741 245.600,322.136 246.982,323.720 248.671 C 325.304 250.361,327.320 252.386,328.200 253.171 C 330.729 255.429,387.310 312.261,388.200 313.438 C 388.640 314.019,389.270 314.795,389.600 315.161 C 389.930 315.527,390.675 316.458,391.256 317.229 C 391.837 318.000,392.779 319.074,393.349 319.616 C 393.920 320.157,394.389 320.803,394.393 321.051 C 394.397 321.299,394.680 321.735,395.023 322.019 C 395.366 322.304,395.912 323.091,396.238 323.768 C 396.563 324.446,397.104 325.498,397.440 326.107 C 398.859 328.680,398.544 349.094,397.060 350.734 C 396.697 351.135,396.400 351.750,396.400 352.101 C 396.400 352.452,395.950 353.273,395.400 353.927 C 394.850 354.581,394.400 355.215,394.400 355.338 C 394.400 356.786,376.035 376.418,364.464 387.339 C 361.946 389.716,362.233 389.853,356.915 383.734 C 355.769 382.414,353.743 380.269,352.413 378.967 C 351.084 377.665,349.812 376.420,349.588 376.200 C 348.773 375.399,345.365 371.601,344.016 369.988 C 341.737 367.266,340.620 366.635,339.195 367.267 C 338.538 367.557,338.000 367.907,338.000 368.043 C 338.000 368.179,337.578 368.720,337.061 369.245 C 336.545 369.770,335.443 371.100,334.613 372.200 C 333.782 373.300,332.960 374.291,332.785 374.403 C 332.442 374.622,330.512 377.037,329.707 378.255 C 329.436 378.665,328.790 379.640,328.272 380.423 C 326.775 382.681,323.772 389.213,323.241 391.363 C 322.975 392.443,322.496 393.698,322.178 394.152 C 321.860 394.606,321.600 395.546,321.600 396.240 C 321.600 396.934,321.362 397.699,321.072 397.940 C 320.415 398.485,300.336 397.788,298.763 397.165 C 298.193 396.940,295.043 396.516,291.763 396.224 C 288.483 395.931,285.262 395.480,284.605 395.220 C 283.948 394.960,281.878 394.646,280.005 394.521 C 278.132 394.397,275.970 394.038,275.200 393.725 C 274.430 393.411,272.360 392.979,270.600 392.764 C 268.840 392.549,266.590 392.122,265.600 391.814 C 264.610 391.507,262.450 391.043,260.800 390.782 C 259.150 390.522,257.620 390.178,257.400 390.019 C 257.180 389.859,255.650 389.496,254.000 389.212 C 252.350 388.928,250.280 388.524,249.400 388.314 C 248.520 388.103,246.630 387.667,245.200 387.344 C 243.770 387.021,242.240 386.525,241.800 386.241 C 241.360 385.958,240.190 385.615,239.200 385.479 C 238.210 385.342,236.687 384.864,235.815 384.415 C 234.944 383.967,233.661 383.600,232.964 383.600 C 232.268 383.600,231.490 383.350,231.237 383.044 C 230.983 382.739,229.943 382.279,228.925 382.023 C 227.906 381.766,226.702 381.296,226.248 380.978 C 225.794 380.660,224.967 380.399,224.411 380.399 C 223.855 380.398,222.856 380.065,222.192 379.660 C 221.527 379.255,220.276 378.791,219.410 378.628 C 218.545 378.466,217.199 378.010,216.419 377.615 C 215.638 377.221,214.373 376.762,213.606 376.596 C 212.839 376.431,211.847 376.056,211.401 375.764 C 210.955 375.471,209.647 375.030,208.495 374.783 C 207.343 374.536,206.400 374.176,206.400 373.983 C 206.400 373.790,205.635 373.414,204.700 373.147 C 203.765 372.880,202.716 372.423,202.369 372.131 C 202.021 371.839,201.578 371.600,201.384 371.600 C 201.189 371.600,199.404 370.800,197.415 369.823 C 195.427 368.846,193.350 367.856,192.800 367.624 C 192.250 367.392,191.530 367.051,191.200 366.866 C 190.870 366.682,189.610 366.075,188.400 365.517 C 187.190 364.959,185.030 363.940,183.600 363.251 C 182.170 362.563,180.794 362.000,180.543 362.000 C 180.291 362.000,179.988 361.747,179.870 361.438 C 179.751 361.128,179.057 360.748,178.327 360.593 C 177.597 360.438,176.722 360.066,176.381 359.767 C 176.041 359.468,174.871 358.755,173.781 358.182 C 171.912 357.200,169.990 356.021,167.516 354.337 C 166.920 353.932,166.354 353.600,166.257 353.600 C 166.161 353.600,164.865 352.861,163.377 351.957 C 161.890 351.053,160.162 350.136,159.537 349.918 C 158.911 349.700,158.400 349.373,158.400 349.192 C 158.400 349.010,157.776 348.656,157.014 348.405 C 156.252 348.153,155.037 347.395,154.314 346.720 C 153.592 346.045,151.920 344.803,150.600 343.961 C 149.280 343.118,148.020 342.282,147.800 342.103 C 147.127 341.554,139.567 336.430,138.500 335.800 C 138.127 335.580,136.905 334.680,135.784 333.800 C 134.663 332.920,133.238 331.840,132.617 331.400 C 130.930 330.204,126.657 326.750,126.200 326.211 C 125.980 325.952,124.810 325.063,123.600 324.235 C 122.390 323.407,121.256 322.475,121.080 322.165 C 120.904 321.854,120.612 321.600,120.430 321.600 C 120.249 321.600,119.293 320.835,118.307 319.900 C 114.311 316.112,112.127 314.182,106.859 309.786 C 106.341 309.354,105.351 308.419,104.659 307.708 C 98.508 301.394,93.905 296.800,93.731 296.800 C 93.459 296.800,91.574 294.778,89.256 292.000 C 86.929 289.213,80.100 281.614,79.132 280.736 C 78.729 280.371,78.400 279.882,78.400 279.650 C 78.400 279.418,78.040 279.035,77.600 278.800 C 77.160 278.565,76.794 278.153,76.786 277.886 C 76.778 277.619,75.405 275.780,73.734 273.800 C 70.717 270.225,65.549 263.576,64.400 261.791 C 63.081 259.742,58.205 252.587,58.000 252.400 C 57.880 252.290,57.426 251.678,56.991 251.040 C 56.556 250.403,55.930 249.494,55.600 249.021 C 55.270 248.549,54.587 247.512,54.082 246.717 C 53.576 245.922,52.925 245.180,52.633 245.068 C 52.341 244.956,51.975 244.356,51.819 243.735 C 51.663 243.113,51.372 242.407,51.172 242.166 C 50.972 241.925,50.248 240.664,49.563 239.364 C 48.165 236.709,45.965 233.104,45.558 232.800 C 45.411 232.690,44.998 231.970,44.642 231.200 C 44.286 230.430,43.552 229.080,43.011 228.200 C 42.471 227.320,41.762 226.046,41.437 225.368 C 41.112 224.691,40.566 223.904,40.223 223.619 C 39.880 223.335,39.600 222.788,39.600 222.405 C 39.600 222.022,39.240 221.250,38.800 220.691 C 38.360 220.131,38.000 219.534,38.000 219.363 C 38.000 219.192,37.655 218.321,37.234 217.426 C 36.813 216.532,35.820 214.360,35.028 212.600 C 34.235 210.840,33.418 209.130,33.212 208.800 C 32.326 207.384,30.400 203.295,30.400 202.831 C 30.400 202.554,30.040 201.869,29.600 201.309 C 29.160 200.750,28.799 200.001,28.797 199.646 C 28.796 199.291,28.437 198.460,28.000 197.800 C 27.563 197.140,27.204 196.219,27.203 195.754 C 27.201 195.289,26.846 194.458,26.414 193.909 C 25.982 193.359,25.441 192.120,25.213 191.155 C 24.985 190.190,24.247 187.870,23.574 186.000 C 22.900 184.130,22.065 181.700,21.717 180.600 C 21.369 179.500,20.853 178.240,20.572 177.800 C 20.290 177.360,19.936 176.280,19.785 175.400 C 19.634 174.520,19.288 173.440,19.015 173.000 C 18.743 172.560,18.388 171.480,18.227 170.600 C 18.065 169.720,17.588 168.439,17.166 167.753 C 16.745 167.067,16.400 166.074,16.400 165.547 C 16.400 165.020,16.066 163.961,15.657 163.194 C 15.248 162.427,14.782 160.900,14.622 159.800 C 14.461 158.700,14.093 157.530,13.804 157.200 C 13.516 156.870,13.076 155.269,12.827 153.641 C 12.578 152.014,12.291 150.547,12.189 150.382 C 11.965 150.020,10.083 141.157,9.517 137.800 C 9.295 136.480,8.784 134.230,8.382 132.800 C 7.980 131.370,7.523 129.030,7.367 127.600 C 7.211 126.170,6.829 124.280,6.518 123.400 C 6.207 122.520,5.793 119.872,5.599 117.516 C 5.404 115.159,5.034 112.838,4.777 112.356 C 4.519 111.875,4.143 108.678,3.941 105.252 C 3.740 101.826,3.311 97.398,2.989 95.411 C 1.940 88.941,2.156 73.325,3.300 72.991 C 4.754 72.565,8.916 70.900,10.207 70.227 C 10.863 69.885,11.597 69.604,11.838 69.602 C 12.079 69.601,12.602 69.240,13.000 68.800 C 13.398 68.360,13.921 67.996,14.162 67.991 C 14.795 67.977,20.272 64.227,22.516 62.271 C 29.037 56.586,29.130 56.213,25.042 52.190 C 23.919 51.085,21.722 48.835,20.160 47.190 C 18.597 45.546,15.945 42.879,14.264 41.265 C 11.840 38.935,11.285 38.193,11.576 37.665 C 11.965 36.960,35.890 13.177,38.601 10.800 C 41.652 8.126,47.329 4.228,48.800 3.798 C 49.350 3.637,50.070 3.271,50.400 2.984 C 51.752 1.809,72.978 1.723,74.287 2.887 " stroke="none" fill="#7474b4" fill-rule="evenodd"></path></g></svg>